M48
;DRILL file {kicad (2015-01-16 BZR 5376)-product} date 3/6/2015 8:51:44 PM
;FORMAT={3:3/ absolute / metric / suppress leading zeros}
FMAT,2
METRIC,TZ
T1C0.330
T2C0.635
T3C0.762
T4C0.800
T5C1.000
T6C1.001
T7C1.016
T8C1.300
T9C2.667
T10C3.300
%
G90
G05
M71
T1
X173330Y-91923
X177597Y-86868
X178486Y-75311
X179603Y-90754
X180188Y-68783
X180289Y-86919
X181178Y-73025
X181254Y-81280
X181559Y-71679
X181610Y-70688
X181737Y-69774
X181762Y-57404
X184099Y-91338
X184150Y-86258
X184150Y-88798
X186588Y-89967
X187300Y-92608
X187325Y-78308
X187325Y-86665
X187503Y-84912
X187935Y-76886
X188163Y-84201
X188570Y-76149
X188595Y-83236
X189586Y-82855
X189636Y-74549
X190119Y-69742
X190703Y-67107
X203022Y-84760
X203022Y-86335
X203784Y-84023
X203784Y-87020
X204724Y-83287
X204724Y-86335
T2
X169977Y-85954
X171628Y-60503
X177597Y-90043
X182626Y-75286
X182931Y-69799
X183693Y-66802
X183693Y-80416
X184379Y-75413
X185369Y-69850
X191668Y-68275
X191668Y-71907
X193513Y-82280
X196266Y-67462
X197231Y-78257
X209398Y-98044
X215900Y-89357
X215925Y-92964
X218491Y-89408
T3
X170368Y-57481
X170368Y-63981
X174868Y-57481
X174868Y-63981
T4
X179118Y-62611
X184000Y-62611
X201346Y-68047
X203632Y-68047
X211023Y-70079
X213563Y-70079
T5
X172150Y-83678
X172150Y-98178
X174650Y-98178
X177150Y-83678
X177150Y-98178
T6
X202819Y-72390
X202819Y-74930
X202819Y-77470
T7
X170561Y-67005
X170561Y-69545
X170637Y-73660
X170637Y-76200
X170637Y-78740
X173101Y-67005
X173101Y-69545
X173177Y-73660
X173177Y-76200
X173177Y-78740
X177571Y-52121
X177571Y-54661
X180111Y-52121
X180111Y-54661
X182651Y-52121
X182651Y-54661
X186893Y-52197
X189179Y-98450
X189433Y-52197
X191719Y-98450
X191973Y-52197
X194259Y-98450
X194513Y-52197
X196799Y-98450
X197053Y-52197
X199339Y-98450
X199593Y-52197
X201879Y-98450
X202133Y-52197
X204419Y-98450
X214909Y-52197
X217449Y-52197
X219583Y-80061
X222123Y-80061
T8
X221488Y-69342
X221488Y-74422
T9
X199000Y-62300
X199000Y-87700
T10
X171094Y-52654
X183845Y-97333
X221920Y-52654
X221971Y-97358
T6
X214932Y-62493G85X214932Y-60494
G05
X218931Y-56794G85X216933Y-56794
G05
X220932Y-62493G85X220932Y-60494
G05
T0
M30
