G04 #@! TF.FileFunction,Copper,L2,Bot,Signal*
%FSLAX46Y46*%
G04 Gerber Fmt 4.6, Leading zero omitted, Abs format (unit mm)*
G04 Created by KiCad (PCBNEW (2015-01-16 BZR 5376)-product) date 3/6/2015 10:24:15 PM*
%MOMM*%
G01*
G04 APERTURE LIST*
%ADD10C,0.100000*%
%ADD11O,3.500120X1.699260*%
%ADD12R,1.000000X1.250000*%
%ADD13R,0.750000X0.800000*%
%ADD14R,1.250000X1.000000*%
%ADD15C,2.300000*%
%ADD16R,2.300000X2.300000*%
%ADD17R,0.700000X1.300000*%
%ADD18C,1.524000*%
%ADD19C,1.501140*%
%ADD20R,1.727200X1.727200*%
%ADD21O,1.727200X1.727200*%
%ADD22C,4.064000*%
%ADD23R,6.400000X5.600000*%
%ADD24R,6.400000X5.000000*%
%ADD25R,3.500120X3.500120*%
%ADD26R,1.300000X0.700000*%
%ADD27C,1.724000*%
%ADD28R,1.998980X1.998980*%
%ADD29C,1.998980*%
%ADD30R,1.143000X0.508000*%
%ADD31R,1.651000X3.048000*%
%ADD32R,6.096000X6.096000*%
%ADD33R,1.727200X2.032000*%
%ADD34O,1.727200X2.032000*%
%ADD35R,2.540000X2.540000*%
%ADD36C,1.778000*%
%ADD37R,2.032000X2.032000*%
%ADD38O,2.032000X2.032000*%
%ADD39R,1.000000X1.900000*%
%ADD40C,0.889000*%
%ADD41C,0.685800*%
%ADD42C,0.381000*%
%ADD43C,0.152400*%
%ADD44C,1.400000*%
%ADD45C,0.254000*%
G04 APERTURE END LIST*
D10*
D11*
X202819000Y-74930000D03*
X202819000Y-77470000D03*
X202819000Y-72390000D03*
D12*
X193462400Y-73964800D03*
X195462400Y-73964800D03*
X193462400Y-76098400D03*
X195462400Y-76098400D03*
D13*
X183972200Y-60465400D03*
X183972200Y-58965400D03*
X179120800Y-60465400D03*
X179120800Y-58965400D03*
D12*
X183353200Y-73812400D03*
X185353200Y-73812400D03*
X183353200Y-71577200D03*
X185353200Y-71577200D03*
D14*
X217932000Y-91608400D03*
X217932000Y-93608400D03*
X217982800Y-87258400D03*
X217982800Y-85258400D03*
X174752000Y-87918800D03*
X174752000Y-85918800D03*
D15*
X221488000Y-69342000D03*
D16*
X221488000Y-74422000D03*
D17*
X172938400Y-60477400D03*
X174838400Y-60477400D03*
D18*
X174868400Y-57481400D03*
X174868400Y-63981400D03*
X170368400Y-63981400D03*
X170368400Y-57481400D03*
D19*
X184000140Y-62611000D03*
X179118260Y-62611000D03*
D20*
X170637200Y-73660000D03*
D21*
X173177200Y-73660000D03*
X170637200Y-76200000D03*
X173177200Y-76200000D03*
X170637200Y-78740000D03*
X173177200Y-78740000D03*
D22*
X199000000Y-62300000D03*
X199000000Y-87700000D03*
D23*
X210058000Y-76948000D03*
D24*
X210058000Y-94248000D03*
D14*
X173380400Y-93386400D03*
X173380400Y-95386400D03*
X185191400Y-82356200D03*
X185191400Y-80356200D03*
D25*
X214932260Y-61493400D03*
X220931740Y-61493400D03*
X217932000Y-56794400D03*
D20*
X177571400Y-54660800D03*
D21*
X177571400Y-52120800D03*
X180111400Y-54660800D03*
X180111400Y-52120800D03*
X182651400Y-54660800D03*
X182651400Y-52120800D03*
D26*
X177596800Y-87818000D03*
X177596800Y-85918000D03*
X171805600Y-85968800D03*
X171805600Y-87868800D03*
X179374800Y-93538000D03*
X179374800Y-95438000D03*
X179349400Y-89880400D03*
X179349400Y-91780400D03*
X170281600Y-95438000D03*
X170281600Y-93538000D03*
X170332400Y-89880400D03*
X170332400Y-91780400D03*
D27*
X172150400Y-98178000D03*
X174650400Y-98178000D03*
X177150400Y-98178000D03*
X172150400Y-83678000D03*
X177150400Y-83678000D03*
D12*
X210753200Y-65989200D03*
X208753200Y-65989200D03*
D14*
X176479200Y-93437200D03*
X176479200Y-95437200D03*
D28*
X211023200Y-70078600D03*
D29*
X213563200Y-70078600D03*
D30*
X191617600Y-84937600D03*
X191617600Y-86207600D03*
X191617600Y-87477600D03*
X191617600Y-88747600D03*
X191617600Y-90017600D03*
X191617600Y-91287600D03*
X191617600Y-92557600D03*
X185267600Y-92557600D03*
X185267600Y-91287600D03*
X185267600Y-88747600D03*
X185267600Y-87477600D03*
X185267600Y-86207600D03*
X185267600Y-84937600D03*
X185267600Y-90017600D03*
D31*
X210718400Y-61671200D03*
D32*
X208432400Y-55321200D03*
D31*
X206146400Y-61671200D03*
D20*
X170561000Y-69545200D03*
D21*
X170561000Y-67005200D03*
X173101000Y-69545200D03*
X173101000Y-67005200D03*
D33*
X204419200Y-98450400D03*
D34*
X201879200Y-98450400D03*
X199339200Y-98450400D03*
X196799200Y-98450400D03*
X194259200Y-98450400D03*
X191719200Y-98450400D03*
X189179200Y-98450400D03*
D35*
X192100200Y-59131200D03*
X189560200Y-59131200D03*
D36*
X203631800Y-68046600D03*
X201345800Y-68046600D03*
D37*
X214909400Y-52197000D03*
D38*
X217449400Y-52197000D03*
D39*
X216053800Y-65913000D03*
X213053800Y-65913000D03*
D37*
X219583000Y-80060800D03*
D38*
X222123000Y-80060800D03*
D33*
X186893200Y-52197000D03*
D34*
X189433200Y-52197000D03*
X191973200Y-52197000D03*
X194513200Y-52197000D03*
X197053200Y-52197000D03*
X199593200Y-52197000D03*
X202133200Y-52197000D03*
D40*
X218490800Y-89408000D03*
X197231000Y-78257400D03*
X209397600Y-98044000D03*
X196265800Y-67462400D03*
X193513200Y-82280000D03*
X185369200Y-69850000D03*
X184378600Y-75412600D03*
X183692800Y-66802000D03*
X171196000Y-86690200D03*
X179374800Y-90703400D03*
X170256200Y-90703400D03*
X183870600Y-82270600D03*
X215900000Y-89357200D03*
X182930800Y-69799200D03*
X182626000Y-75285600D03*
X171627800Y-60502800D03*
X215925400Y-92964000D03*
D41*
X172313600Y-87096600D03*
X174879000Y-87020400D03*
X177596800Y-86868000D03*
X184150000Y-86258400D03*
X179984400Y-68148200D03*
X181559200Y-71678800D03*
X181178200Y-73025000D03*
X181178200Y-79121000D03*
X180340000Y-66827400D03*
X181737000Y-69773800D03*
X187299600Y-92608400D03*
X190703200Y-67106800D03*
X179324000Y-79298800D03*
X179349400Y-68783200D03*
X186588400Y-89966800D03*
X189585600Y-82854800D03*
X189636400Y-74549000D03*
X204724000Y-83286600D03*
X204724000Y-86334600D03*
X188595000Y-83235800D03*
X188569600Y-76149200D03*
X203784200Y-84023200D03*
X203784200Y-87020400D03*
X188163200Y-84201000D03*
X187934600Y-76885800D03*
X203022200Y-84759800D03*
X203022200Y-86334600D03*
X187502800Y-84912200D03*
X187325000Y-78308200D03*
X187325000Y-86664800D03*
X190119000Y-69742400D03*
D40*
X191668400Y-68275200D03*
X191668400Y-71907400D03*
D41*
X178485800Y-69088000D03*
X178485800Y-75311000D03*
X184150000Y-88798400D03*
X179324000Y-94284800D03*
X176479200Y-94284800D03*
X184099200Y-91338400D03*
X170281600Y-94259400D03*
X173380400Y-94284800D03*
D42*
X197231000Y-78257400D02*
X197205600Y-78232000D01*
X193513200Y-82280000D02*
X193497200Y-82296000D01*
X185191400Y-82356200D02*
X185191400Y-84861400D01*
X185191400Y-84861400D02*
X185267600Y-84937600D01*
X171196000Y-86690200D02*
X171196000Y-86578400D01*
X171196000Y-86578400D02*
X171805600Y-85968800D01*
X179374800Y-89905800D02*
X179374800Y-90703400D01*
X179374800Y-89905800D02*
X179349400Y-89880400D01*
X170256200Y-89956600D02*
X170256200Y-90703400D01*
X170256200Y-89956600D02*
X170332400Y-89880400D01*
X170256200Y-89753400D02*
X170332400Y-89677200D01*
X179349400Y-89753400D02*
X179374800Y-89728000D01*
X185105800Y-82270600D02*
X183870600Y-82270600D01*
X185105800Y-82270600D02*
X185191400Y-82356200D01*
X185318400Y-84861400D02*
X185420000Y-84963000D01*
X171790400Y-85953600D02*
X171805600Y-85968800D01*
X215900000Y-89357200D02*
X215950800Y-89306400D01*
X215950800Y-89306400D02*
X215950800Y-88773000D01*
X215900000Y-90982800D02*
X215900000Y-89357200D01*
X183277000Y-73533000D02*
X183404000Y-73660000D01*
X183337200Y-73828400D02*
X183353200Y-73812400D01*
X182930800Y-69799200D02*
X183353200Y-70221600D01*
X183353200Y-71577200D02*
X183353200Y-70221600D01*
X183353200Y-71577200D02*
X183353200Y-73812400D01*
X182626000Y-75285600D02*
X183353200Y-74558400D01*
X183353200Y-74558400D02*
X183353200Y-73812400D01*
X172659000Y-60502800D02*
X171627800Y-60502800D01*
X215950800Y-88773000D02*
X215950800Y-87503000D01*
X216195400Y-87258400D02*
X215950800Y-87503000D01*
X217982800Y-87258400D02*
X216195400Y-87258400D01*
X215900000Y-91998800D02*
X215900000Y-90982800D01*
X216290400Y-91608400D02*
X215900000Y-91998800D01*
X217932000Y-91608400D02*
X216290400Y-91608400D01*
X203631800Y-64795400D02*
X203631800Y-68046600D01*
X206146400Y-62280800D02*
X203631800Y-64795400D01*
X206146400Y-61671200D02*
X206146400Y-62280800D01*
X215925400Y-92964000D02*
X215900000Y-92938600D01*
X215900000Y-91998800D02*
X215900000Y-92938600D01*
D43*
X171805600Y-87868800D02*
X171805600Y-87604600D01*
X171805600Y-87604600D02*
X172313600Y-87096600D01*
X174752000Y-87918800D02*
X174752000Y-87147400D01*
X174752000Y-87147400D02*
X174879000Y-87020400D01*
X174700400Y-87868800D02*
X174701200Y-87868000D01*
X177546800Y-87868000D02*
X177596800Y-87818000D01*
X184150000Y-86258400D02*
X184200800Y-86207600D01*
X184200800Y-86207600D02*
X185267600Y-86207600D01*
X177596800Y-87818000D02*
X177596800Y-86868000D01*
D42*
X210811600Y-61120800D02*
X211201000Y-60731400D01*
X210829400Y-65913000D02*
X210753200Y-65989200D01*
X213053800Y-65913000D02*
X210829400Y-65913000D01*
X210718400Y-65954400D02*
X210753200Y-65989200D01*
X210718400Y-61671200D02*
X210718400Y-65954400D01*
D43*
X179984400Y-70078600D02*
X179984400Y-70104000D01*
X179984400Y-70078600D02*
X179984400Y-68148200D01*
X180797200Y-70916800D02*
X181483000Y-71602600D01*
X179984400Y-70104000D02*
X180797200Y-70916800D01*
D44*
X202819000Y-72390000D02*
X205500000Y-72390000D01*
X205500000Y-72390000D02*
X210058000Y-76948000D01*
D43*
X181178200Y-73025000D02*
X181178200Y-79121000D01*
X181229000Y-73075800D02*
X181178200Y-73025000D01*
X183972200Y-62583060D02*
X184000140Y-62611000D01*
X183972200Y-60465400D02*
X183972200Y-62583060D01*
X179120800Y-62608460D02*
X179118260Y-62611000D01*
X179120800Y-60465400D02*
X179120800Y-62608460D01*
X181737000Y-69773800D02*
X180848000Y-68884800D01*
X180848000Y-68884800D02*
X180848000Y-67335400D01*
X180848000Y-67335400D02*
X180340000Y-66827400D01*
X174838400Y-60477400D02*
X174838400Y-57578400D01*
X174838400Y-57578400D02*
X174741400Y-57481400D01*
X174614400Y-60447400D02*
X174559000Y-60502800D01*
X185445400Y-92608400D02*
X185420000Y-92583000D01*
X187299600Y-92608400D02*
X185445400Y-92608400D01*
X187299600Y-92303600D02*
X187299600Y-92608400D01*
X187350400Y-87553800D02*
X187350400Y-87553800D01*
X187350400Y-87553800D02*
X187299600Y-87604600D01*
X187299600Y-92303600D02*
X187299600Y-87604600D01*
X190754000Y-82956400D02*
X190779400Y-84124800D01*
X190754000Y-67157600D02*
X190754000Y-82956400D01*
X187350400Y-87553800D02*
X187782200Y-87122000D01*
X190779400Y-84124800D02*
X187782200Y-87122000D01*
X190703200Y-67106800D02*
X190754000Y-67157600D01*
X179349400Y-79273400D02*
X179324000Y-79298800D01*
X179349400Y-68783200D02*
X179349400Y-69570600D01*
X179349400Y-69570600D02*
X179349400Y-79273400D01*
X185388267Y-90074733D02*
X185420000Y-90043000D01*
X186588400Y-89966800D02*
X186512200Y-90043000D01*
X185318400Y-89966800D02*
X185267600Y-90017600D01*
X186588400Y-89966800D02*
X185318400Y-89966800D01*
X189534800Y-74574400D02*
X189585600Y-74625200D01*
X189585600Y-74625200D02*
X189585600Y-82854800D01*
X204724000Y-83286600D02*
X204724000Y-86334600D01*
X188569600Y-83210400D02*
X188595000Y-83235800D01*
X188569600Y-83032600D02*
X188569600Y-83159600D01*
X188569600Y-83159600D02*
X188569600Y-76149200D01*
X188569600Y-83032600D02*
X188569600Y-83210400D01*
X203784200Y-84023200D02*
X203784200Y-86410800D01*
X203784200Y-86410800D02*
X203784200Y-87020400D01*
X188010800Y-80441800D02*
X188010800Y-80441800D01*
X188010800Y-80441800D02*
X188010800Y-84023200D01*
X188010800Y-84048600D02*
X188163200Y-84201000D01*
X188010800Y-84023200D02*
X188010800Y-84048600D01*
X187934600Y-76885800D02*
X188010800Y-76962000D01*
X188010800Y-76962000D02*
X188010800Y-76987400D01*
X188010800Y-76987400D02*
X188010800Y-80441800D01*
X203022200Y-84759800D02*
X203022200Y-86334600D01*
X187375800Y-78333600D02*
X187325000Y-78282800D01*
X187375800Y-84785200D02*
X187375800Y-78333600D01*
X187375800Y-84785200D02*
X187502800Y-84912200D01*
X187325000Y-78308200D02*
X187350400Y-78333600D01*
X187350400Y-78333600D02*
X187375800Y-78333600D01*
X190246000Y-82753200D02*
X190246000Y-81635600D01*
X190246000Y-81635600D02*
X190246000Y-70612000D01*
X190246000Y-70612000D02*
X190246000Y-69799200D01*
X187325000Y-86664800D02*
X190246000Y-83743800D01*
X186512200Y-87477600D02*
X187325000Y-86664800D01*
X190246000Y-83743800D02*
X190246000Y-82753200D01*
X185267600Y-87477600D02*
X186512200Y-87477600D01*
X190119000Y-69742400D02*
X190119000Y-69748400D01*
D45*
X193462400Y-76098400D02*
X193462400Y-73964800D01*
X191668400Y-68275200D02*
X191643000Y-68300600D01*
X191643000Y-71907400D02*
X191643000Y-72145400D01*
X191643000Y-68300600D02*
X191643000Y-71907400D01*
X191643000Y-72145400D02*
X193462400Y-73964800D01*
X191668400Y-71907400D02*
X191643000Y-71907400D01*
D43*
X178485800Y-69926200D02*
X178485800Y-69088000D01*
X178485800Y-69926200D02*
X178485800Y-69824600D01*
X178485800Y-75311000D02*
X178485800Y-69926200D01*
X179349400Y-91780400D02*
X179349400Y-93512600D01*
X179349400Y-93512600D02*
X179374800Y-93538000D01*
X184150000Y-88798400D02*
X184200800Y-88747600D01*
X185267600Y-88747600D02*
X184200800Y-88747600D01*
X176479200Y-93437200D02*
X176479200Y-94284800D01*
X179374800Y-94234000D02*
X179374800Y-93538000D01*
X179324000Y-94284800D02*
X179374800Y-94234000D01*
X176580000Y-93538000D02*
X176403000Y-93361000D01*
X170332400Y-91780400D02*
X170332400Y-93487200D01*
X170332400Y-93487200D02*
X170281600Y-93538000D01*
X184099200Y-91338400D02*
X185216800Y-91338400D01*
X170281600Y-93538000D02*
X170281600Y-94259400D01*
X173380400Y-94284800D02*
X173380400Y-93386400D01*
X173178000Y-93538000D02*
X173355000Y-93361000D01*
X185216800Y-91338400D02*
X185267600Y-91287600D01*
X177125000Y-83678000D02*
X177125000Y-85446200D01*
X177125000Y-85446200D02*
X177596800Y-85918000D01*
X177125000Y-98178000D02*
X178174000Y-98178000D01*
X179324000Y-97028000D02*
X179324000Y-95438000D01*
X178174000Y-98178000D02*
X179324000Y-97028000D01*
X170307000Y-97409000D02*
X171076000Y-98178000D01*
X171076000Y-98178000D02*
X172125000Y-98178000D01*
X170307000Y-95438000D02*
X170307000Y-97409000D01*
D42*
X216053800Y-63704600D02*
X216053800Y-65913000D01*
X215338660Y-62989460D02*
X216053800Y-63704600D01*
X215338660Y-61290200D02*
X215338660Y-62989460D01*
D45*
G36*
X194462400Y-96807473D02*
X194259200Y-96767055D01*
X193685711Y-96881129D01*
X193199530Y-97205985D01*
X192989200Y-97520765D01*
X192824100Y-97273676D01*
X192824100Y-92937909D01*
X192824100Y-92843350D01*
X192665350Y-92684600D01*
X191744600Y-92684600D01*
X191744600Y-93287850D01*
X191903350Y-93446600D01*
X192062791Y-93446600D01*
X192315410Y-93446600D01*
X192548799Y-93349927D01*
X192727427Y-93171298D01*
X192824100Y-92937909D01*
X192824100Y-97273676D01*
X192778870Y-97205985D01*
X192292689Y-96881129D01*
X191719200Y-96767055D01*
X191490600Y-96812526D01*
X191490600Y-93287850D01*
X191490600Y-92684600D01*
X190569850Y-92684600D01*
X190411100Y-92843350D01*
X190411100Y-92937909D01*
X190507773Y-93171298D01*
X190686401Y-93349927D01*
X190919790Y-93446600D01*
X191172409Y-93446600D01*
X191331850Y-93446600D01*
X191490600Y-93287850D01*
X191490600Y-96812526D01*
X191145711Y-96881129D01*
X190659530Y-97205985D01*
X190449200Y-97520765D01*
X190238870Y-97205985D01*
X189752689Y-96881129D01*
X189179200Y-96767055D01*
X188605711Y-96881129D01*
X188119530Y-97205985D01*
X187794674Y-97692166D01*
X187680600Y-98265655D01*
X187680600Y-98635145D01*
X187794674Y-99208634D01*
X188119530Y-99694815D01*
X188149738Y-99715000D01*
X186130596Y-99715000D01*
X186130596Y-96880279D01*
X185783458Y-96040142D01*
X185141239Y-95396801D01*
X184301709Y-95048197D01*
X183392679Y-95047404D01*
X182552542Y-95394542D01*
X181909201Y-96036761D01*
X181560597Y-96876291D01*
X181559804Y-97785321D01*
X181906942Y-98625458D01*
X182549161Y-99268799D01*
X183388691Y-99617403D01*
X184297721Y-99618196D01*
X185137858Y-99271058D01*
X185781199Y-98628839D01*
X186129803Y-97789309D01*
X186130596Y-96880279D01*
X186130596Y-99715000D01*
X180672240Y-99715000D01*
X180672240Y-95788000D01*
X180672240Y-95088000D01*
X180625263Y-94845877D01*
X180485473Y-94633073D01*
X180292365Y-94502722D01*
X180301730Y-94480170D01*
X180301742Y-94465590D01*
X180479727Y-94348673D01*
X180622177Y-94137640D01*
X180672240Y-93888000D01*
X180672240Y-93188000D01*
X180625263Y-92945877D01*
X180485473Y-92733073D01*
X180363497Y-92650738D01*
X180454327Y-92591073D01*
X180596777Y-92380040D01*
X180646840Y-92130400D01*
X180646840Y-91430400D01*
X180599863Y-91188277D01*
X180460073Y-90975473D01*
X180437123Y-90959982D01*
X180454113Y-90919068D01*
X180454311Y-90691083D01*
X180454327Y-90691073D01*
X180596777Y-90480040D01*
X180646840Y-90230400D01*
X180646840Y-89530400D01*
X180599863Y-89288277D01*
X180460073Y-89075473D01*
X180249040Y-88933023D01*
X179999400Y-88882960D01*
X178894240Y-88882960D01*
X178894240Y-88168000D01*
X178894240Y-87468000D01*
X178847263Y-87225877D01*
X178707473Y-87013073D01*
X178574651Y-86923417D01*
X178574748Y-86812084D01*
X178701727Y-86728673D01*
X178844177Y-86517640D01*
X178894240Y-86268000D01*
X178894240Y-85568000D01*
X178847263Y-85325877D01*
X178707473Y-85113073D01*
X178496440Y-84970623D01*
X178246800Y-84920560D01*
X178024597Y-84920560D01*
X178418755Y-84527090D01*
X178647140Y-83977078D01*
X178647659Y-83381535D01*
X178420235Y-82831125D01*
X177999490Y-82409645D01*
X177449478Y-82181260D01*
X176853935Y-82180741D01*
X176303525Y-82408165D01*
X176265642Y-82445981D01*
X176265642Y-63704739D01*
X176265642Y-57204739D01*
X176053410Y-56691097D01*
X175660770Y-56297771D01*
X175147500Y-56084643D01*
X174591739Y-56084158D01*
X174078097Y-56296390D01*
X173684771Y-56689030D01*
X173471643Y-57202300D01*
X173471158Y-57758061D01*
X173683390Y-58271703D01*
X174076030Y-58665029D01*
X174127200Y-58686276D01*
X174127200Y-59305158D01*
X174033473Y-59366727D01*
X173891023Y-59577760D01*
X173889183Y-59586930D01*
X173888863Y-59585277D01*
X173749073Y-59372473D01*
X173538040Y-59230023D01*
X173379796Y-59198288D01*
X173379796Y-52201679D01*
X173032658Y-51361542D01*
X172390439Y-50718201D01*
X171550909Y-50369597D01*
X170641879Y-50368804D01*
X169801742Y-50715942D01*
X169158401Y-51358161D01*
X168809797Y-52197691D01*
X168809004Y-53106721D01*
X169156142Y-53946858D01*
X169798361Y-54590199D01*
X170637891Y-54938803D01*
X171546921Y-54939596D01*
X172387058Y-54592458D01*
X173030399Y-53950239D01*
X173379003Y-53110709D01*
X173379796Y-52201679D01*
X173379796Y-59198288D01*
X173288400Y-59179960D01*
X172588400Y-59179960D01*
X172346277Y-59226937D01*
X172133473Y-59366727D01*
X172040057Y-59505118D01*
X171843468Y-59423487D01*
X171777544Y-59423429D01*
X171777544Y-57689098D01*
X171749762Y-57134032D01*
X171590797Y-56750257D01*
X171348613Y-56680792D01*
X171169008Y-56860397D01*
X171169008Y-56501187D01*
X171099543Y-56259003D01*
X170576098Y-56072256D01*
X170021032Y-56100038D01*
X169637257Y-56259003D01*
X169567792Y-56501187D01*
X170368400Y-57301795D01*
X171169008Y-56501187D01*
X171169008Y-56860397D01*
X170548005Y-57481400D01*
X171348613Y-58282008D01*
X171590797Y-58212543D01*
X171777544Y-57689098D01*
X171777544Y-59423429D01*
X171414016Y-59423113D01*
X171169008Y-59524348D01*
X171169008Y-58461613D01*
X170368400Y-57661005D01*
X170188795Y-57840610D01*
X170188795Y-57481400D01*
X169388187Y-56680792D01*
X169146003Y-56750257D01*
X168959256Y-57273702D01*
X168987038Y-57828768D01*
X169146003Y-58212543D01*
X169388187Y-58282008D01*
X170188795Y-57481400D01*
X170188795Y-57840610D01*
X169567792Y-58461613D01*
X169637257Y-58703797D01*
X170160702Y-58890544D01*
X170715768Y-58862762D01*
X171099543Y-58703797D01*
X171169008Y-58461613D01*
X171169008Y-59524348D01*
X171017111Y-59587111D01*
X170713178Y-59890514D01*
X170548487Y-60287132D01*
X170548113Y-60716584D01*
X170712111Y-61113489D01*
X171015514Y-61417422D01*
X171412132Y-61582113D01*
X171841584Y-61582487D01*
X172066723Y-61489461D01*
X172127727Y-61582327D01*
X172338760Y-61724777D01*
X172588400Y-61774840D01*
X173288400Y-61774840D01*
X173530523Y-61727863D01*
X173743327Y-61588073D01*
X173885777Y-61377040D01*
X173887616Y-61367869D01*
X173887937Y-61369523D01*
X174027727Y-61582327D01*
X174238760Y-61724777D01*
X174488400Y-61774840D01*
X175188400Y-61774840D01*
X175430523Y-61727863D01*
X175643327Y-61588073D01*
X175785777Y-61377040D01*
X175835840Y-61127400D01*
X175835840Y-59827400D01*
X175788863Y-59585277D01*
X175649073Y-59372473D01*
X175549600Y-59305327D01*
X175549600Y-58711490D01*
X175658703Y-58666410D01*
X176052029Y-58273770D01*
X176265157Y-57760500D01*
X176265642Y-57204739D01*
X176265642Y-63704739D01*
X176053410Y-63191097D01*
X175660770Y-62797771D01*
X175147500Y-62584643D01*
X174591739Y-62584158D01*
X174078097Y-62796390D01*
X173684771Y-63189030D01*
X173471643Y-63702300D01*
X173471158Y-64258061D01*
X173683390Y-64771703D01*
X174076030Y-65165029D01*
X174589300Y-65378157D01*
X175145061Y-65378642D01*
X175658703Y-65166410D01*
X176052029Y-64773770D01*
X176265157Y-64260500D01*
X176265642Y-63704739D01*
X176265642Y-82445981D01*
X175882045Y-82828910D01*
X175653660Y-83378922D01*
X175653141Y-83974465D01*
X175880565Y-84524875D01*
X176301310Y-84946355D01*
X176413800Y-84993064D01*
X176413800Y-85222988D01*
X176349423Y-85318360D01*
X176299360Y-85568000D01*
X176299360Y-86268000D01*
X176346337Y-86510123D01*
X176486127Y-86722927D01*
X176618948Y-86812582D01*
X176618851Y-86923915D01*
X176491873Y-87007327D01*
X176349423Y-87218360D01*
X176299360Y-87468000D01*
X176299360Y-88168000D01*
X176346337Y-88410123D01*
X176486127Y-88622927D01*
X176697160Y-88765377D01*
X176946800Y-88815440D01*
X178246800Y-88815440D01*
X178488923Y-88768463D01*
X178701727Y-88628673D01*
X178844177Y-88417640D01*
X178894240Y-88168000D01*
X178894240Y-88882960D01*
X178699400Y-88882960D01*
X178457277Y-88929937D01*
X178244473Y-89069727D01*
X178102023Y-89280760D01*
X178051960Y-89530400D01*
X178051960Y-90230400D01*
X178098937Y-90472523D01*
X178238727Y-90685327D01*
X178295281Y-90723502D01*
X178295113Y-90917184D01*
X178301377Y-90932346D01*
X178244473Y-90969727D01*
X178102023Y-91180760D01*
X178051960Y-91430400D01*
X178051960Y-92130400D01*
X178098937Y-92372523D01*
X178238727Y-92585327D01*
X178360702Y-92667661D01*
X178269873Y-92727327D01*
X178127423Y-92938360D01*
X178077360Y-93188000D01*
X178077360Y-93888000D01*
X178124337Y-94130123D01*
X178264127Y-94342927D01*
X178346000Y-94398192D01*
X178345931Y-94478463D01*
X178378072Y-94556251D01*
X178269873Y-94627327D01*
X178127423Y-94838360D01*
X178077360Y-95088000D01*
X178077360Y-95788000D01*
X178124337Y-96030123D01*
X178264127Y-96242927D01*
X178475160Y-96385377D01*
X178612800Y-96412979D01*
X178612800Y-96733411D01*
X178217837Y-97128373D01*
X177999490Y-96909645D01*
X177751640Y-96806728D01*
X177751640Y-93937200D01*
X177751640Y-92937200D01*
X177704663Y-92695077D01*
X177564873Y-92482273D01*
X177353840Y-92339823D01*
X177104200Y-92289760D01*
X176024440Y-92289760D01*
X176024440Y-88418800D01*
X176024440Y-87418800D01*
X175977463Y-87176677D01*
X175856923Y-86993178D01*
X175857060Y-86836765D01*
X175915327Y-86778498D01*
X176012000Y-86545109D01*
X176012000Y-86204550D01*
X176012000Y-85633050D01*
X176012000Y-85292491D01*
X175915327Y-85059102D01*
X175736699Y-84880473D01*
X175503310Y-84783800D01*
X175250691Y-84783800D01*
X175037750Y-84783800D01*
X174879000Y-84942550D01*
X174879000Y-85791800D01*
X175853250Y-85791800D01*
X176012000Y-85633050D01*
X176012000Y-86204550D01*
X175853250Y-86045800D01*
X175081907Y-86045800D01*
X175074370Y-86042670D01*
X174685337Y-86042331D01*
X174675800Y-86046271D01*
X174675800Y-78769359D01*
X174675800Y-78710641D01*
X174561726Y-78137152D01*
X174236870Y-77650971D01*
X173966027Y-77470000D01*
X174236870Y-77289029D01*
X174561726Y-76802848D01*
X174675800Y-76229359D01*
X174675800Y-76170641D01*
X174561726Y-75597152D01*
X174236870Y-75110971D01*
X173966027Y-74930000D01*
X174236870Y-74749029D01*
X174561726Y-74262848D01*
X174675800Y-73689359D01*
X174675800Y-73630641D01*
X174599600Y-73247557D01*
X174599600Y-69574559D01*
X174599600Y-69515841D01*
X174485526Y-68942352D01*
X174160670Y-68456171D01*
X173889827Y-68275200D01*
X174160670Y-68094229D01*
X174485526Y-67608048D01*
X174599600Y-67034559D01*
X174599600Y-66975841D01*
X174485526Y-66402352D01*
X174160670Y-65916171D01*
X173674489Y-65591315D01*
X173101000Y-65477241D01*
X172527511Y-65591315D01*
X172041330Y-65916171D01*
X171831000Y-66230951D01*
X171777544Y-66150948D01*
X171777544Y-64189098D01*
X171749762Y-63634032D01*
X171590797Y-63250257D01*
X171348613Y-63180792D01*
X171169008Y-63360397D01*
X171169008Y-63001187D01*
X171099543Y-62759003D01*
X170576098Y-62572256D01*
X170021032Y-62600038D01*
X169637257Y-62759003D01*
X169567792Y-63001187D01*
X170368400Y-63801795D01*
X171169008Y-63001187D01*
X171169008Y-63360397D01*
X170548005Y-63981400D01*
X171348613Y-64782008D01*
X171590797Y-64712543D01*
X171777544Y-64189098D01*
X171777544Y-66150948D01*
X171620670Y-65916171D01*
X171169008Y-65614379D01*
X171169008Y-64961613D01*
X170368400Y-64161005D01*
X170188795Y-64340610D01*
X170188795Y-63981400D01*
X169388187Y-63180792D01*
X169146003Y-63250257D01*
X168959256Y-63773702D01*
X168987038Y-64328768D01*
X169146003Y-64712543D01*
X169388187Y-64782008D01*
X170188795Y-63981400D01*
X170188795Y-64340610D01*
X169567792Y-64961613D01*
X169637257Y-65203797D01*
X170160702Y-65390544D01*
X170715768Y-65362762D01*
X171099543Y-65203797D01*
X171169008Y-64961613D01*
X171169008Y-65614379D01*
X171134489Y-65591315D01*
X170561000Y-65477241D01*
X169987511Y-65591315D01*
X169501330Y-65916171D01*
X169176474Y-66402352D01*
X169062400Y-66975841D01*
X169062400Y-67034559D01*
X169176474Y-67608048D01*
X169488300Y-68074729D01*
X169455277Y-68081137D01*
X169242473Y-68220927D01*
X169100023Y-68431960D01*
X169049960Y-68681600D01*
X169049960Y-70408800D01*
X169096937Y-70650923D01*
X169236727Y-70863727D01*
X169447760Y-71006177D01*
X169697400Y-71056240D01*
X171424600Y-71056240D01*
X171666723Y-71009263D01*
X171879527Y-70869473D01*
X172021977Y-70658440D01*
X172030179Y-70617540D01*
X172041330Y-70634229D01*
X172527511Y-70959085D01*
X173101000Y-71073159D01*
X173674489Y-70959085D01*
X174160670Y-70634229D01*
X174485526Y-70148048D01*
X174599600Y-69574559D01*
X174599600Y-73247557D01*
X174561726Y-73057152D01*
X174236870Y-72570971D01*
X173750689Y-72246115D01*
X173177200Y-72132041D01*
X172603711Y-72246115D01*
X172117530Y-72570971D01*
X172107433Y-72586081D01*
X172101263Y-72554277D01*
X171961473Y-72341473D01*
X171750440Y-72199023D01*
X171500800Y-72148960D01*
X169773600Y-72148960D01*
X169531477Y-72195937D01*
X169318673Y-72335727D01*
X169176223Y-72546760D01*
X169126160Y-72796400D01*
X169126160Y-74523600D01*
X169173137Y-74765723D01*
X169312927Y-74978527D01*
X169523960Y-75120977D01*
X169618378Y-75139911D01*
X169430379Y-75311510D01*
X169182232Y-75840973D01*
X169302731Y-76073000D01*
X170510200Y-76073000D01*
X170510200Y-76053000D01*
X170764200Y-76053000D01*
X170764200Y-76073000D01*
X170784200Y-76073000D01*
X170784200Y-76327000D01*
X170764200Y-76327000D01*
X170764200Y-77406183D01*
X170764200Y-77533817D01*
X170764200Y-78613000D01*
X170784200Y-78613000D01*
X170784200Y-78867000D01*
X170764200Y-78867000D01*
X170764200Y-80073817D01*
X170996226Y-80194958D01*
X171412147Y-80022688D01*
X171844021Y-79628490D01*
X171901536Y-79505771D01*
X172117530Y-79829029D01*
X172603711Y-80153885D01*
X173177200Y-80267959D01*
X173750689Y-80153885D01*
X174236870Y-79829029D01*
X174561726Y-79342848D01*
X174675800Y-78769359D01*
X174675800Y-86046271D01*
X174628535Y-86065800D01*
X174625000Y-86065800D01*
X174625000Y-86045800D01*
X174625000Y-85791800D01*
X174625000Y-84942550D01*
X174466250Y-84783800D01*
X174253309Y-84783800D01*
X174000690Y-84783800D01*
X173767301Y-84880473D01*
X173659056Y-84988718D01*
X173659056Y-83909587D01*
X173632842Y-83314621D01*
X173455592Y-82886704D01*
X173203047Y-82804958D01*
X173023442Y-82984563D01*
X173023442Y-82625353D01*
X172941696Y-82372808D01*
X172381987Y-82169344D01*
X171787021Y-82195558D01*
X171359104Y-82372808D01*
X171277358Y-82625353D01*
X172150400Y-83498395D01*
X173023442Y-82625353D01*
X173023442Y-82984563D01*
X172330005Y-83678000D01*
X173203047Y-84551042D01*
X173455592Y-84469296D01*
X173659056Y-83909587D01*
X173659056Y-84988718D01*
X173588673Y-85059102D01*
X173492000Y-85292491D01*
X173492000Y-85633050D01*
X173650750Y-85791800D01*
X174625000Y-85791800D01*
X174625000Y-86045800D01*
X173650750Y-86045800D01*
X173492000Y-86204550D01*
X173492000Y-86545109D01*
X173588673Y-86778498D01*
X173730150Y-86919976D01*
X173672073Y-86958127D01*
X173529623Y-87169160D01*
X173479560Y-87418800D01*
X173479560Y-88418800D01*
X173526537Y-88660923D01*
X173666327Y-88873727D01*
X173877360Y-89016177D01*
X174127000Y-89066240D01*
X175377000Y-89066240D01*
X175619123Y-89019263D01*
X175831927Y-88879473D01*
X175974377Y-88668440D01*
X176024440Y-88418800D01*
X176024440Y-92289760D01*
X175854200Y-92289760D01*
X175612077Y-92336737D01*
X175399273Y-92476527D01*
X175256823Y-92687560D01*
X175206760Y-92937200D01*
X175206760Y-93937200D01*
X175253737Y-94179323D01*
X175393527Y-94392127D01*
X175457837Y-94435537D01*
X175315873Y-94577502D01*
X175219200Y-94810891D01*
X175219200Y-95151450D01*
X175377950Y-95310200D01*
X176352200Y-95310200D01*
X176352200Y-95290200D01*
X176606200Y-95290200D01*
X176606200Y-95310200D01*
X177580450Y-95310200D01*
X177739200Y-95151450D01*
X177739200Y-94810891D01*
X177642527Y-94577502D01*
X177501049Y-94436023D01*
X177559127Y-94397873D01*
X177701577Y-94186840D01*
X177751640Y-93937200D01*
X177751640Y-96806728D01*
X177739200Y-96801563D01*
X177739200Y-96063509D01*
X177739200Y-95722950D01*
X177580450Y-95564200D01*
X176606200Y-95564200D01*
X176606200Y-96413450D01*
X176764950Y-96572200D01*
X176977891Y-96572200D01*
X177230510Y-96572200D01*
X177463899Y-96475527D01*
X177642527Y-96296898D01*
X177739200Y-96063509D01*
X177739200Y-96801563D01*
X177449478Y-96681260D01*
X176853935Y-96680741D01*
X176352200Y-96888052D01*
X176352200Y-96413450D01*
X176352200Y-95564200D01*
X175377950Y-95564200D01*
X175219200Y-95722950D01*
X175219200Y-96063509D01*
X175315873Y-96296898D01*
X175494501Y-96475527D01*
X175727890Y-96572200D01*
X175980509Y-96572200D01*
X176193450Y-96572200D01*
X176352200Y-96413450D01*
X176352200Y-96888052D01*
X176303525Y-96908165D01*
X175882045Y-97328910D01*
X175869604Y-97358870D01*
X175703047Y-97304958D01*
X175523442Y-97484563D01*
X175523442Y-97125353D01*
X175441696Y-96872808D01*
X174881987Y-96669344D01*
X174652840Y-96679440D01*
X174652840Y-93886400D01*
X174652840Y-92886400D01*
X174605863Y-92644277D01*
X174466073Y-92431473D01*
X174255040Y-92289023D01*
X174005400Y-92238960D01*
X173291669Y-92238960D01*
X173291669Y-86902937D01*
X173143107Y-86543388D01*
X173072237Y-86472395D01*
X173103040Y-86318800D01*
X173103040Y-85618800D01*
X173056063Y-85376677D01*
X172916273Y-85163873D01*
X172760061Y-85058428D01*
X172941696Y-84983192D01*
X173023442Y-84730647D01*
X172150400Y-83857605D01*
X171970795Y-84037210D01*
X171970795Y-83678000D01*
X171097753Y-82804958D01*
X170845208Y-82886704D01*
X170641744Y-83446413D01*
X170667958Y-84041379D01*
X170845208Y-84469296D01*
X171097753Y-84551042D01*
X171970795Y-83678000D01*
X171970795Y-84037210D01*
X171277358Y-84730647D01*
X171355274Y-84971360D01*
X171155600Y-84971360D01*
X170913477Y-85018337D01*
X170700673Y-85158127D01*
X170558223Y-85369160D01*
X170510200Y-85608627D01*
X170510200Y-80073817D01*
X170510200Y-78867000D01*
X170510200Y-78613000D01*
X170510200Y-77533817D01*
X170510200Y-77406183D01*
X170510200Y-76327000D01*
X169302731Y-76327000D01*
X169182232Y-76559027D01*
X169430379Y-77088490D01*
X169848352Y-77470000D01*
X169430379Y-77851510D01*
X169182232Y-78380973D01*
X169302731Y-78613000D01*
X170510200Y-78613000D01*
X170510200Y-78867000D01*
X169302731Y-78867000D01*
X169182232Y-79099027D01*
X169430379Y-79628490D01*
X169862253Y-80022688D01*
X170278174Y-80194958D01*
X170510200Y-80073817D01*
X170510200Y-85608627D01*
X170508160Y-85618800D01*
X170508160Y-85851527D01*
X170281378Y-86077914D01*
X170116687Y-86474532D01*
X170116313Y-86903984D01*
X170280311Y-87300889D01*
X170508160Y-87529136D01*
X170508160Y-88218800D01*
X170555137Y-88460923D01*
X170694927Y-88673727D01*
X170905960Y-88816177D01*
X171155600Y-88866240D01*
X172455600Y-88866240D01*
X172697723Y-88819263D01*
X172910527Y-88679473D01*
X173052977Y-88468440D01*
X173103040Y-88218800D01*
X173103040Y-87690290D01*
X173142140Y-87651259D01*
X173291330Y-87291970D01*
X173291669Y-86902937D01*
X173291669Y-92238960D01*
X172755400Y-92238960D01*
X172513277Y-92285937D01*
X172300473Y-92425727D01*
X172158023Y-92636760D01*
X172107960Y-92886400D01*
X172107960Y-93886400D01*
X172154937Y-94128523D01*
X172294727Y-94341327D01*
X172359037Y-94384737D01*
X172217073Y-94526702D01*
X172120400Y-94760091D01*
X172120400Y-95100650D01*
X172279150Y-95259400D01*
X173177492Y-95259400D01*
X173185030Y-95262530D01*
X173574063Y-95262869D01*
X173582458Y-95259400D01*
X174481650Y-95259400D01*
X174640400Y-95100650D01*
X174640400Y-94760091D01*
X174543727Y-94526702D01*
X174402249Y-94385223D01*
X174460327Y-94347073D01*
X174602777Y-94136040D01*
X174652840Y-93886400D01*
X174652840Y-96679440D01*
X174640400Y-96679988D01*
X174640400Y-96012709D01*
X174640400Y-95672150D01*
X174481650Y-95513400D01*
X173507400Y-95513400D01*
X173507400Y-96362650D01*
X173666150Y-96521400D01*
X173879091Y-96521400D01*
X174131710Y-96521400D01*
X174365099Y-96424727D01*
X174543727Y-96246098D01*
X174640400Y-96012709D01*
X174640400Y-96679988D01*
X174287021Y-96695558D01*
X173859104Y-96872808D01*
X173777358Y-97125353D01*
X174650400Y-97998395D01*
X175523442Y-97125353D01*
X175523442Y-97484563D01*
X174830005Y-98178000D01*
X175703047Y-99051042D01*
X175869160Y-98997273D01*
X175880565Y-99024875D01*
X176301310Y-99446355D01*
X176851322Y-99674740D01*
X177446865Y-99675259D01*
X177997275Y-99447835D01*
X178418755Y-99027090D01*
X178518584Y-98786673D01*
X178676894Y-98680894D01*
X179826894Y-97530894D01*
X179826895Y-97530894D01*
X179981063Y-97300164D01*
X180035200Y-97028000D01*
X180035200Y-96433422D01*
X180266923Y-96388463D01*
X180479727Y-96248673D01*
X180622177Y-96037640D01*
X180672240Y-95788000D01*
X180672240Y-99715000D01*
X175523442Y-99715000D01*
X175523442Y-99230647D01*
X174650400Y-98357605D01*
X174470795Y-98537210D01*
X174470795Y-98178000D01*
X173597753Y-97304958D01*
X173431639Y-97358726D01*
X173420235Y-97331125D01*
X173253400Y-97163998D01*
X173253400Y-96362650D01*
X173253400Y-95513400D01*
X172279150Y-95513400D01*
X172120400Y-95672150D01*
X172120400Y-96012709D01*
X172217073Y-96246098D01*
X172395701Y-96424727D01*
X172629090Y-96521400D01*
X172881709Y-96521400D01*
X173094650Y-96521400D01*
X173253400Y-96362650D01*
X173253400Y-97163998D01*
X172999490Y-96909645D01*
X172449478Y-96681260D01*
X171853935Y-96680741D01*
X171303525Y-96908165D01*
X171057524Y-97153736D01*
X171018200Y-97114411D01*
X171018200Y-96418637D01*
X171173723Y-96388463D01*
X171386527Y-96248673D01*
X171528977Y-96037640D01*
X171579040Y-95788000D01*
X171579040Y-95088000D01*
X171532063Y-94845877D01*
X171392273Y-94633073D01*
X171230605Y-94523945D01*
X171259330Y-94454770D01*
X171259349Y-94432215D01*
X171386527Y-94348673D01*
X171528977Y-94137640D01*
X171579040Y-93888000D01*
X171579040Y-93188000D01*
X171532063Y-92945877D01*
X171392273Y-92733073D01*
X171307879Y-92676106D01*
X171437327Y-92591073D01*
X171579777Y-92380040D01*
X171629840Y-92130400D01*
X171629840Y-91430400D01*
X171582863Y-91188277D01*
X171443073Y-90975473D01*
X171335527Y-90902878D01*
X171335653Y-90757861D01*
X171437327Y-90691073D01*
X171579777Y-90480040D01*
X171629840Y-90230400D01*
X171629840Y-89530400D01*
X171582863Y-89288277D01*
X171443073Y-89075473D01*
X171232040Y-88933023D01*
X170982400Y-88882960D01*
X170489556Y-88882960D01*
X170332400Y-88851700D01*
X170175243Y-88882960D01*
X169682400Y-88882960D01*
X169440277Y-88929937D01*
X169227473Y-89069727D01*
X169085023Y-89280760D01*
X169034960Y-89530400D01*
X169034960Y-90230400D01*
X169081937Y-90472523D01*
X169176774Y-90616895D01*
X169176513Y-90917184D01*
X169209329Y-90996605D01*
X169085023Y-91180760D01*
X169034960Y-91430400D01*
X169034960Y-92130400D01*
X169081937Y-92372523D01*
X169221727Y-92585327D01*
X169306120Y-92642293D01*
X169176673Y-92727327D01*
X169034223Y-92938360D01*
X168984160Y-93188000D01*
X168984160Y-93888000D01*
X169031137Y-94130123D01*
X169170927Y-94342927D01*
X169303548Y-94432448D01*
X169303531Y-94453063D01*
X169333082Y-94524582D01*
X169176673Y-94627327D01*
X169034223Y-94838360D01*
X168984160Y-95088000D01*
X168984160Y-95788000D01*
X169031137Y-96030123D01*
X169170927Y-96242927D01*
X169381960Y-96385377D01*
X169595800Y-96428260D01*
X169595800Y-97409000D01*
X169649937Y-97681165D01*
X169804106Y-97911894D01*
X170573105Y-98680894D01*
X170573106Y-98680894D01*
X170801488Y-98833494D01*
X170801488Y-98833495D01*
X170880565Y-99024875D01*
X171301310Y-99446355D01*
X171851322Y-99674740D01*
X172446865Y-99675259D01*
X172997275Y-99447835D01*
X173418755Y-99027090D01*
X173431195Y-98997129D01*
X173597753Y-99051042D01*
X174470795Y-98178000D01*
X174470795Y-98537210D01*
X173777358Y-99230647D01*
X173859104Y-99483192D01*
X174418813Y-99686656D01*
X175013779Y-99660442D01*
X175441696Y-99483192D01*
X175523442Y-99230647D01*
X175523442Y-99715000D01*
X168685000Y-99715000D01*
X168685000Y-50285000D01*
X189992000Y-50285000D01*
X189992000Y-50624807D01*
X189433200Y-50513655D01*
X188859711Y-50627729D01*
X188373530Y-50952585D01*
X188362984Y-50968367D01*
X188357263Y-50938877D01*
X188217473Y-50726073D01*
X188006440Y-50583623D01*
X187756800Y-50533560D01*
X186029600Y-50533560D01*
X185787477Y-50580537D01*
X185574673Y-50720327D01*
X185432223Y-50931360D01*
X185382160Y-51181000D01*
X185382160Y-53213000D01*
X185429137Y-53455123D01*
X185568927Y-53667927D01*
X185779960Y-53810377D01*
X186029600Y-53860440D01*
X187756800Y-53860440D01*
X187998923Y-53813463D01*
X188211727Y-53673673D01*
X188354177Y-53462640D01*
X188361918Y-53424037D01*
X188373530Y-53441415D01*
X188859711Y-53766271D01*
X189433200Y-53880345D01*
X189992000Y-53769192D01*
X189992000Y-57226200D01*
X189845950Y-57226200D01*
X189687200Y-57384950D01*
X189687200Y-59004200D01*
X189707200Y-59004200D01*
X189707200Y-59258200D01*
X189687200Y-59258200D01*
X189687200Y-60877450D01*
X189845950Y-61036200D01*
X189992000Y-61036200D01*
X189992000Y-66435005D01*
X189874660Y-66552141D01*
X189725470Y-66911430D01*
X189725131Y-67300463D01*
X189873693Y-67660012D01*
X189992000Y-67778525D01*
X189992000Y-68764389D01*
X189925337Y-68764331D01*
X189565788Y-68912893D01*
X189433200Y-69045249D01*
X189433200Y-60877450D01*
X189433200Y-59258200D01*
X189433200Y-59004200D01*
X189433200Y-57384950D01*
X189274450Y-57226200D01*
X188163891Y-57226200D01*
X187930502Y-57322873D01*
X187751873Y-57501501D01*
X187655200Y-57734890D01*
X187655200Y-57987509D01*
X187655200Y-58845450D01*
X187813950Y-59004200D01*
X189433200Y-59004200D01*
X189433200Y-59258200D01*
X187813950Y-59258200D01*
X187655200Y-59416950D01*
X187655200Y-60274891D01*
X187655200Y-60527510D01*
X187751873Y-60760899D01*
X187930502Y-60939527D01*
X188163891Y-61036200D01*
X189274450Y-61036200D01*
X189433200Y-60877450D01*
X189433200Y-69045249D01*
X189290460Y-69187741D01*
X189141270Y-69547030D01*
X189140931Y-69936063D01*
X189289493Y-70295612D01*
X189534800Y-70541347D01*
X189534800Y-70612000D01*
X189534800Y-73571011D01*
X189442737Y-73570931D01*
X189083188Y-73719493D01*
X188807860Y-73994341D01*
X188658670Y-74353630D01*
X188658331Y-74742663D01*
X188806893Y-75102212D01*
X188874400Y-75169836D01*
X188874400Y-75216909D01*
X188764970Y-75171470D01*
X188375937Y-75171131D01*
X188016388Y-75319693D01*
X187741060Y-75594541D01*
X187591870Y-75953830D01*
X187591856Y-75969329D01*
X187381388Y-76056293D01*
X187106060Y-76331141D01*
X186956870Y-76690430D01*
X186956531Y-77079463D01*
X187070492Y-77355271D01*
X186771788Y-77478693D01*
X186496460Y-77753541D01*
X186488200Y-77773433D01*
X186488200Y-74563710D01*
X186488200Y-74311091D01*
X186488200Y-74098150D01*
X186488200Y-73526650D01*
X186488200Y-73313709D01*
X186488200Y-73061090D01*
X186391527Y-72827701D01*
X186258625Y-72694800D01*
X186391527Y-72561899D01*
X186488200Y-72328510D01*
X186488200Y-72075891D01*
X186488200Y-71862950D01*
X186488200Y-71291450D01*
X186488200Y-71078509D01*
X186488200Y-70825890D01*
X186391527Y-70592501D01*
X186212898Y-70413873D01*
X185979509Y-70317200D01*
X185638950Y-70317200D01*
X185480200Y-70475950D01*
X185480200Y-71450200D01*
X186329450Y-71450200D01*
X186488200Y-71291450D01*
X186488200Y-71862950D01*
X186329450Y-71704200D01*
X185480200Y-71704200D01*
X185480200Y-72678450D01*
X185496550Y-72694800D01*
X185480200Y-72711150D01*
X185480200Y-73685400D01*
X186329450Y-73685400D01*
X186488200Y-73526650D01*
X186488200Y-74098150D01*
X186329450Y-73939400D01*
X185480200Y-73939400D01*
X185480200Y-74913650D01*
X185638950Y-75072400D01*
X185979509Y-75072400D01*
X186212898Y-74975727D01*
X186391527Y-74797099D01*
X186488200Y-74563710D01*
X186488200Y-77773433D01*
X186347270Y-78112830D01*
X186346931Y-78501863D01*
X186495493Y-78861412D01*
X186664600Y-79030814D01*
X186664600Y-84380804D01*
X186525070Y-84716830D01*
X186524731Y-85105863D01*
X186673293Y-85465412D01*
X186948141Y-85740740D01*
X186974318Y-85751609D01*
X186771788Y-85835293D01*
X186496460Y-86110141D01*
X186486540Y-86134030D01*
X186486540Y-85953600D01*
X186439563Y-85711477D01*
X186348074Y-85572203D01*
X186436477Y-85441240D01*
X186486540Y-85191600D01*
X186486540Y-84683600D01*
X186439563Y-84441477D01*
X186299773Y-84228673D01*
X186088740Y-84086223D01*
X186016900Y-84071816D01*
X186016900Y-83464738D01*
X186058523Y-83456663D01*
X186271327Y-83316873D01*
X186413777Y-83105840D01*
X186463840Y-82856200D01*
X186463840Y-81856200D01*
X186416863Y-81614077D01*
X186277073Y-81401273D01*
X186212762Y-81357862D01*
X186354727Y-81215898D01*
X186451400Y-80982509D01*
X186451400Y-80641950D01*
X186451400Y-80070450D01*
X186451400Y-79729891D01*
X186354727Y-79496502D01*
X186176099Y-79317873D01*
X185942710Y-79221200D01*
X185690091Y-79221200D01*
X185477150Y-79221200D01*
X185385950Y-79312400D01*
X185385950Y-62336602D01*
X185175454Y-61827163D01*
X184786027Y-61437056D01*
X184692375Y-61398168D01*
X184802127Y-61326073D01*
X184944577Y-61115040D01*
X184994640Y-60865400D01*
X184994640Y-60065400D01*
X184947663Y-59823277D01*
X184884104Y-59726520D01*
X184885527Y-59725098D01*
X184982200Y-59491709D01*
X184982200Y-59251150D01*
X184982200Y-58679650D01*
X184982200Y-58439091D01*
X184885527Y-58205702D01*
X184706899Y-58027073D01*
X184473510Y-57930400D01*
X184257950Y-57930400D01*
X184150000Y-58038350D01*
X184150000Y-54690159D01*
X184150000Y-54631441D01*
X184035926Y-54057952D01*
X183711070Y-53571771D01*
X183440239Y-53390807D01*
X183858221Y-53009290D01*
X184106368Y-52479827D01*
X184106368Y-51761773D01*
X183858221Y-51232310D01*
X183426347Y-50838112D01*
X183010426Y-50665842D01*
X182778400Y-50786983D01*
X182778400Y-51993800D01*
X183985869Y-51993800D01*
X184106368Y-51761773D01*
X184106368Y-52479827D01*
X183985869Y-52247800D01*
X182778400Y-52247800D01*
X182778400Y-52267800D01*
X182524400Y-52267800D01*
X182524400Y-52247800D01*
X182504400Y-52247800D01*
X182504400Y-51993800D01*
X182524400Y-51993800D01*
X182524400Y-50786983D01*
X182292374Y-50665842D01*
X181876453Y-50838112D01*
X181444579Y-51232310D01*
X181387063Y-51355028D01*
X181171070Y-51031771D01*
X180684889Y-50706915D01*
X180111400Y-50592841D01*
X179537911Y-50706915D01*
X179051730Y-51031771D01*
X178841400Y-51346551D01*
X178631070Y-51031771D01*
X178144889Y-50706915D01*
X177571400Y-50592841D01*
X176997911Y-50706915D01*
X176511730Y-51031771D01*
X176186874Y-51517952D01*
X176072800Y-52091441D01*
X176072800Y-52150159D01*
X176186874Y-52723648D01*
X176498700Y-53190329D01*
X176465677Y-53196737D01*
X176252873Y-53336527D01*
X176110423Y-53547560D01*
X176060360Y-53797200D01*
X176060360Y-55524400D01*
X176107337Y-55766523D01*
X176247127Y-55979327D01*
X176458160Y-56121777D01*
X176707800Y-56171840D01*
X178435000Y-56171840D01*
X178677123Y-56124863D01*
X178889927Y-55985073D01*
X179032377Y-55774040D01*
X179040579Y-55733140D01*
X179051730Y-55749829D01*
X179537911Y-56074685D01*
X180111400Y-56188759D01*
X180684889Y-56074685D01*
X181171070Y-55749829D01*
X181381400Y-55435048D01*
X181591730Y-55749829D01*
X182077911Y-56074685D01*
X182651400Y-56188759D01*
X183224889Y-56074685D01*
X183711070Y-55749829D01*
X184035926Y-55263648D01*
X184150000Y-54690159D01*
X184150000Y-58038350D01*
X184099200Y-58089150D01*
X184099200Y-58838400D01*
X184823450Y-58838400D01*
X184982200Y-58679650D01*
X184982200Y-59251150D01*
X184823450Y-59092400D01*
X184099200Y-59092400D01*
X184099200Y-59112400D01*
X183845200Y-59112400D01*
X183845200Y-59092400D01*
X183845200Y-58838400D01*
X183845200Y-58089150D01*
X183686450Y-57930400D01*
X183470890Y-57930400D01*
X183237501Y-58027073D01*
X183058873Y-58205702D01*
X182962200Y-58439091D01*
X182962200Y-58679650D01*
X183120950Y-58838400D01*
X183845200Y-58838400D01*
X183845200Y-59092400D01*
X183120950Y-59092400D01*
X182962200Y-59251150D01*
X182962200Y-59491709D01*
X183058873Y-59725098D01*
X183060155Y-59726380D01*
X182999823Y-59815760D01*
X182949760Y-60065400D01*
X182949760Y-60865400D01*
X182996737Y-61107523D01*
X183136527Y-61320327D01*
X183261000Y-61404347D01*
X183261000Y-61417217D01*
X183216303Y-61435686D01*
X182826196Y-61825113D01*
X182614811Y-62334184D01*
X182614330Y-62885398D01*
X182824826Y-63394837D01*
X183214253Y-63784944D01*
X183723324Y-63996329D01*
X184274538Y-63996810D01*
X184783977Y-63786314D01*
X185174084Y-63396887D01*
X185385469Y-62887816D01*
X185385950Y-62336602D01*
X185385950Y-79312400D01*
X185318400Y-79379950D01*
X185318400Y-80229200D01*
X186292650Y-80229200D01*
X186451400Y-80070450D01*
X186451400Y-80641950D01*
X186292650Y-80483200D01*
X185318400Y-80483200D01*
X185318400Y-80503200D01*
X185226200Y-80503200D01*
X185226200Y-74913650D01*
X185226200Y-73939400D01*
X185206200Y-73939400D01*
X185206200Y-73685400D01*
X185226200Y-73685400D01*
X185226200Y-72711150D01*
X185209850Y-72694800D01*
X185226200Y-72678450D01*
X185226200Y-71704200D01*
X185206200Y-71704200D01*
X185206200Y-71450200D01*
X185226200Y-71450200D01*
X185226200Y-70475950D01*
X185067450Y-70317200D01*
X184726891Y-70317200D01*
X184493502Y-70413873D01*
X184352023Y-70555350D01*
X184313873Y-70497273D01*
X184178700Y-70406029D01*
X184178700Y-70221605D01*
X184178700Y-70221600D01*
X184178701Y-70221600D01*
X184115863Y-69905695D01*
X184010345Y-69747776D01*
X184010487Y-69585416D01*
X183846489Y-69188511D01*
X183543086Y-68884578D01*
X183146468Y-68719887D01*
X182717016Y-68719513D01*
X182320111Y-68883511D01*
X182268067Y-68935463D01*
X181932370Y-68796070D01*
X181764912Y-68795924D01*
X181559200Y-68590212D01*
X181559200Y-67335400D01*
X181505063Y-67063236D01*
X181505062Y-67063235D01*
X181453905Y-66986674D01*
X181350894Y-66832506D01*
X181350894Y-66832505D01*
X181317924Y-66799535D01*
X181318069Y-66633737D01*
X181169507Y-66274188D01*
X180894659Y-65998860D01*
X180535370Y-65849670D01*
X180504070Y-65849642D01*
X180504070Y-62336602D01*
X180293574Y-61827163D01*
X179904147Y-61437056D01*
X179832000Y-61407097D01*
X179832000Y-61404064D01*
X179950727Y-61326073D01*
X180093177Y-61115040D01*
X180143240Y-60865400D01*
X180143240Y-60065400D01*
X180096263Y-59823277D01*
X180032704Y-59726520D01*
X180034127Y-59725098D01*
X180130800Y-59491709D01*
X180130800Y-59251150D01*
X180130800Y-58679650D01*
X180130800Y-58439091D01*
X180034127Y-58205702D01*
X179855499Y-58027073D01*
X179622110Y-57930400D01*
X179406550Y-57930400D01*
X179247800Y-58089150D01*
X179247800Y-58838400D01*
X179972050Y-58838400D01*
X180130800Y-58679650D01*
X180130800Y-59251150D01*
X179972050Y-59092400D01*
X179247800Y-59092400D01*
X179247800Y-59112400D01*
X178993800Y-59112400D01*
X178993800Y-59092400D01*
X178993800Y-58838400D01*
X178993800Y-58089150D01*
X178835050Y-57930400D01*
X178619490Y-57930400D01*
X178386101Y-58027073D01*
X178207473Y-58205702D01*
X178110800Y-58439091D01*
X178110800Y-58679650D01*
X178269550Y-58838400D01*
X178993800Y-58838400D01*
X178993800Y-59092400D01*
X178269550Y-59092400D01*
X178110800Y-59251150D01*
X178110800Y-59491709D01*
X178207473Y-59725098D01*
X178208755Y-59726380D01*
X178148423Y-59815760D01*
X178098360Y-60065400D01*
X178098360Y-60865400D01*
X178145337Y-61107523D01*
X178285127Y-61320327D01*
X178409600Y-61404347D01*
X178409600Y-61404623D01*
X178334423Y-61435686D01*
X177944316Y-61825113D01*
X177732931Y-62334184D01*
X177732450Y-62885398D01*
X177942946Y-63394837D01*
X178332373Y-63784944D01*
X178841444Y-63996329D01*
X179392658Y-63996810D01*
X179902097Y-63786314D01*
X180292204Y-63396887D01*
X180503589Y-62887816D01*
X180504070Y-62336602D01*
X180504070Y-65849642D01*
X180146337Y-65849331D01*
X179786788Y-65997893D01*
X179511460Y-66272741D01*
X179362270Y-66632030D01*
X179361931Y-67021063D01*
X179477074Y-67299733D01*
X179431188Y-67318693D01*
X179155860Y-67593541D01*
X179049829Y-67848890D01*
X178796188Y-67953693D01*
X178639374Y-68110233D01*
X178292137Y-68109931D01*
X177932588Y-68258493D01*
X177657260Y-68533341D01*
X177508070Y-68892630D01*
X177507731Y-69281663D01*
X177656293Y-69641212D01*
X177774600Y-69759725D01*
X177774600Y-69824600D01*
X177774600Y-69926200D01*
X177774600Y-74639205D01*
X177657260Y-74756341D01*
X177508070Y-75115630D01*
X177507731Y-75504663D01*
X177656293Y-75864212D01*
X177931141Y-76139540D01*
X178290430Y-76288730D01*
X178638200Y-76289033D01*
X178638200Y-78601649D01*
X178495460Y-78744141D01*
X178346270Y-79103430D01*
X178345931Y-79492463D01*
X178494493Y-79852012D01*
X178769341Y-80127340D01*
X179128630Y-80276530D01*
X179517663Y-80276869D01*
X179877212Y-80128307D01*
X180152540Y-79853459D01*
X180287981Y-79527279D01*
X180348693Y-79674212D01*
X180623541Y-79949540D01*
X180982830Y-80098730D01*
X181371863Y-80099069D01*
X181731412Y-79950507D01*
X182006740Y-79675659D01*
X182155930Y-79316370D01*
X182156269Y-78927337D01*
X182007707Y-78567788D01*
X181889400Y-78449274D01*
X181889400Y-76075690D01*
X182013714Y-76200222D01*
X182410332Y-76364913D01*
X182839784Y-76365287D01*
X183236689Y-76201289D01*
X183540622Y-75897886D01*
X183705313Y-75501268D01*
X183705424Y-75373609D01*
X183936917Y-75142117D01*
X183993358Y-75057646D01*
X184095323Y-75037863D01*
X184308127Y-74898073D01*
X184351537Y-74833762D01*
X184493502Y-74975727D01*
X184726891Y-75072400D01*
X185067450Y-75072400D01*
X185226200Y-74913650D01*
X185226200Y-80503200D01*
X185064400Y-80503200D01*
X185064400Y-80483200D01*
X185064400Y-80229200D01*
X185064400Y-79379950D01*
X184905650Y-79221200D01*
X184692709Y-79221200D01*
X184440090Y-79221200D01*
X184206701Y-79317873D01*
X184028073Y-79496502D01*
X183931400Y-79729891D01*
X183931400Y-80070450D01*
X184090150Y-80229200D01*
X185064400Y-80229200D01*
X185064400Y-80483200D01*
X184090150Y-80483200D01*
X183931400Y-80641950D01*
X183931400Y-80982509D01*
X184017854Y-81191227D01*
X183656816Y-81190913D01*
X183259911Y-81354911D01*
X182955978Y-81658314D01*
X182791287Y-82054932D01*
X182790913Y-82484384D01*
X182954911Y-82881289D01*
X183258314Y-83185222D01*
X183654932Y-83349913D01*
X184084384Y-83350287D01*
X184133608Y-83329947D01*
X184316760Y-83453577D01*
X184365900Y-83463431D01*
X184365900Y-84140994D01*
X184241173Y-84222927D01*
X184098723Y-84433960D01*
X184048660Y-84683600D01*
X184048660Y-85191600D01*
X184065894Y-85280426D01*
X183956337Y-85280331D01*
X183596788Y-85428893D01*
X183321460Y-85703741D01*
X183172270Y-86063030D01*
X183171931Y-86452063D01*
X183320493Y-86811612D01*
X183595341Y-87086940D01*
X183954630Y-87236130D01*
X184048660Y-87236211D01*
X184048660Y-87731600D01*
X184065894Y-87820426D01*
X183956337Y-87820331D01*
X183596788Y-87968893D01*
X183321460Y-88243741D01*
X183172270Y-88603030D01*
X183171931Y-88992063D01*
X183320493Y-89351612D01*
X183595341Y-89626940D01*
X183954630Y-89776130D01*
X184048660Y-89776211D01*
X184048660Y-90271600D01*
X184065902Y-90360470D01*
X183905537Y-90360331D01*
X183545988Y-90508893D01*
X183270660Y-90783741D01*
X183121470Y-91143030D01*
X183121131Y-91532063D01*
X183269693Y-91891612D01*
X183544541Y-92166940D01*
X183903830Y-92316130D01*
X184048660Y-92316256D01*
X184048660Y-92811600D01*
X184095637Y-93053723D01*
X184235427Y-93266527D01*
X184446460Y-93408977D01*
X184696100Y-93459040D01*
X185839100Y-93459040D01*
X186081223Y-93412063D01*
X186221980Y-93319600D01*
X186627805Y-93319600D01*
X186744941Y-93436940D01*
X187104230Y-93586130D01*
X187493263Y-93586469D01*
X187852812Y-93437907D01*
X188128140Y-93163059D01*
X188277330Y-92803770D01*
X188277669Y-92414737D01*
X188129107Y-92055188D01*
X188010800Y-91936674D01*
X188010800Y-87899188D01*
X188285094Y-87624895D01*
X188285094Y-87624894D01*
X188285096Y-87624891D01*
X190457779Y-85452208D01*
X190537125Y-85572996D01*
X190448723Y-85703960D01*
X190398660Y-85953600D01*
X190398660Y-86461600D01*
X190445637Y-86703723D01*
X190537125Y-86842996D01*
X190448723Y-86973960D01*
X190398660Y-87223600D01*
X190398660Y-87731600D01*
X190445637Y-87973723D01*
X190537125Y-88112996D01*
X190448723Y-88243960D01*
X190398660Y-88493600D01*
X190398660Y-89001600D01*
X190445637Y-89243723D01*
X190537125Y-89382996D01*
X190448723Y-89513960D01*
X190398660Y-89763600D01*
X190398660Y-90271600D01*
X190445637Y-90513723D01*
X190537125Y-90652996D01*
X190448723Y-90783960D01*
X190398660Y-91033600D01*
X190398660Y-91541600D01*
X190445637Y-91783723D01*
X190533776Y-91917898D01*
X190507773Y-91943902D01*
X190411100Y-92177291D01*
X190411100Y-92271850D01*
X190569850Y-92430600D01*
X191490600Y-92430600D01*
X191490600Y-92410600D01*
X191744600Y-92410600D01*
X191744600Y-92430600D01*
X192665350Y-92430600D01*
X192824100Y-92271850D01*
X192824100Y-92177291D01*
X192727427Y-91943902D01*
X192701159Y-91917634D01*
X192786477Y-91791240D01*
X192836540Y-91541600D01*
X192836540Y-91033600D01*
X192789563Y-90791477D01*
X192698074Y-90652203D01*
X192786477Y-90521240D01*
X192836540Y-90271600D01*
X192836540Y-89763600D01*
X192789563Y-89521477D01*
X192698074Y-89382203D01*
X192786477Y-89251240D01*
X192836540Y-89001600D01*
X192836540Y-88493600D01*
X192789563Y-88251477D01*
X192698074Y-88112203D01*
X192786477Y-87981240D01*
X192836540Y-87731600D01*
X192836540Y-87223600D01*
X192789563Y-86981477D01*
X192698074Y-86842203D01*
X192786477Y-86711240D01*
X192836540Y-86461600D01*
X192836540Y-85953600D01*
X192789563Y-85711477D01*
X192698074Y-85572203D01*
X192786477Y-85441240D01*
X192836540Y-85191600D01*
X192836540Y-84683600D01*
X192789563Y-84441477D01*
X192649773Y-84228673D01*
X192438740Y-84086223D01*
X192189100Y-84036160D01*
X191488841Y-84036160D01*
X191465200Y-82948671D01*
X191465200Y-80772000D01*
X194462400Y-80772000D01*
X194462400Y-96807473D01*
X194462400Y-96807473D01*
G37*
X194462400Y-96807473D02*
X194259200Y-96767055D01*
X193685711Y-96881129D01*
X193199530Y-97205985D01*
X192989200Y-97520765D01*
X192824100Y-97273676D01*
X192824100Y-92937909D01*
X192824100Y-92843350D01*
X192665350Y-92684600D01*
X191744600Y-92684600D01*
X191744600Y-93287850D01*
X191903350Y-93446600D01*
X192062791Y-93446600D01*
X192315410Y-93446600D01*
X192548799Y-93349927D01*
X192727427Y-93171298D01*
X192824100Y-92937909D01*
X192824100Y-97273676D01*
X192778870Y-97205985D01*
X192292689Y-96881129D01*
X191719200Y-96767055D01*
X191490600Y-96812526D01*
X191490600Y-93287850D01*
X191490600Y-92684600D01*
X190569850Y-92684600D01*
X190411100Y-92843350D01*
X190411100Y-92937909D01*
X190507773Y-93171298D01*
X190686401Y-93349927D01*
X190919790Y-93446600D01*
X191172409Y-93446600D01*
X191331850Y-93446600D01*
X191490600Y-93287850D01*
X191490600Y-96812526D01*
X191145711Y-96881129D01*
X190659530Y-97205985D01*
X190449200Y-97520765D01*
X190238870Y-97205985D01*
X189752689Y-96881129D01*
X189179200Y-96767055D01*
X188605711Y-96881129D01*
X188119530Y-97205985D01*
X187794674Y-97692166D01*
X187680600Y-98265655D01*
X187680600Y-98635145D01*
X187794674Y-99208634D01*
X188119530Y-99694815D01*
X188149738Y-99715000D01*
X186130596Y-99715000D01*
X186130596Y-96880279D01*
X185783458Y-96040142D01*
X185141239Y-95396801D01*
X184301709Y-95048197D01*
X183392679Y-95047404D01*
X182552542Y-95394542D01*
X181909201Y-96036761D01*
X181560597Y-96876291D01*
X181559804Y-97785321D01*
X181906942Y-98625458D01*
X182549161Y-99268799D01*
X183388691Y-99617403D01*
X184297721Y-99618196D01*
X185137858Y-99271058D01*
X185781199Y-98628839D01*
X186129803Y-97789309D01*
X186130596Y-96880279D01*
X186130596Y-99715000D01*
X180672240Y-99715000D01*
X180672240Y-95788000D01*
X180672240Y-95088000D01*
X180625263Y-94845877D01*
X180485473Y-94633073D01*
X180292365Y-94502722D01*
X180301730Y-94480170D01*
X180301742Y-94465590D01*
X180479727Y-94348673D01*
X180622177Y-94137640D01*
X180672240Y-93888000D01*
X180672240Y-93188000D01*
X180625263Y-92945877D01*
X180485473Y-92733073D01*
X180363497Y-92650738D01*
X180454327Y-92591073D01*
X180596777Y-92380040D01*
X180646840Y-92130400D01*
X180646840Y-91430400D01*
X180599863Y-91188277D01*
X180460073Y-90975473D01*
X180437123Y-90959982D01*
X180454113Y-90919068D01*
X180454311Y-90691083D01*
X180454327Y-90691073D01*
X180596777Y-90480040D01*
X180646840Y-90230400D01*
X180646840Y-89530400D01*
X180599863Y-89288277D01*
X180460073Y-89075473D01*
X180249040Y-88933023D01*
X179999400Y-88882960D01*
X178894240Y-88882960D01*
X178894240Y-88168000D01*
X178894240Y-87468000D01*
X178847263Y-87225877D01*
X178707473Y-87013073D01*
X178574651Y-86923417D01*
X178574748Y-86812084D01*
X178701727Y-86728673D01*
X178844177Y-86517640D01*
X178894240Y-86268000D01*
X178894240Y-85568000D01*
X178847263Y-85325877D01*
X178707473Y-85113073D01*
X178496440Y-84970623D01*
X178246800Y-84920560D01*
X178024597Y-84920560D01*
X178418755Y-84527090D01*
X178647140Y-83977078D01*
X178647659Y-83381535D01*
X178420235Y-82831125D01*
X177999490Y-82409645D01*
X177449478Y-82181260D01*
X176853935Y-82180741D01*
X176303525Y-82408165D01*
X176265642Y-82445981D01*
X176265642Y-63704739D01*
X176265642Y-57204739D01*
X176053410Y-56691097D01*
X175660770Y-56297771D01*
X175147500Y-56084643D01*
X174591739Y-56084158D01*
X174078097Y-56296390D01*
X173684771Y-56689030D01*
X173471643Y-57202300D01*
X173471158Y-57758061D01*
X173683390Y-58271703D01*
X174076030Y-58665029D01*
X174127200Y-58686276D01*
X174127200Y-59305158D01*
X174033473Y-59366727D01*
X173891023Y-59577760D01*
X173889183Y-59586930D01*
X173888863Y-59585277D01*
X173749073Y-59372473D01*
X173538040Y-59230023D01*
X173379796Y-59198288D01*
X173379796Y-52201679D01*
X173032658Y-51361542D01*
X172390439Y-50718201D01*
X171550909Y-50369597D01*
X170641879Y-50368804D01*
X169801742Y-50715942D01*
X169158401Y-51358161D01*
X168809797Y-52197691D01*
X168809004Y-53106721D01*
X169156142Y-53946858D01*
X169798361Y-54590199D01*
X170637891Y-54938803D01*
X171546921Y-54939596D01*
X172387058Y-54592458D01*
X173030399Y-53950239D01*
X173379003Y-53110709D01*
X173379796Y-52201679D01*
X173379796Y-59198288D01*
X173288400Y-59179960D01*
X172588400Y-59179960D01*
X172346277Y-59226937D01*
X172133473Y-59366727D01*
X172040057Y-59505118D01*
X171843468Y-59423487D01*
X171777544Y-59423429D01*
X171777544Y-57689098D01*
X171749762Y-57134032D01*
X171590797Y-56750257D01*
X171348613Y-56680792D01*
X171169008Y-56860397D01*
X171169008Y-56501187D01*
X171099543Y-56259003D01*
X170576098Y-56072256D01*
X170021032Y-56100038D01*
X169637257Y-56259003D01*
X169567792Y-56501187D01*
X170368400Y-57301795D01*
X171169008Y-56501187D01*
X171169008Y-56860397D01*
X170548005Y-57481400D01*
X171348613Y-58282008D01*
X171590797Y-58212543D01*
X171777544Y-57689098D01*
X171777544Y-59423429D01*
X171414016Y-59423113D01*
X171169008Y-59524348D01*
X171169008Y-58461613D01*
X170368400Y-57661005D01*
X170188795Y-57840610D01*
X170188795Y-57481400D01*
X169388187Y-56680792D01*
X169146003Y-56750257D01*
X168959256Y-57273702D01*
X168987038Y-57828768D01*
X169146003Y-58212543D01*
X169388187Y-58282008D01*
X170188795Y-57481400D01*
X170188795Y-57840610D01*
X169567792Y-58461613D01*
X169637257Y-58703797D01*
X170160702Y-58890544D01*
X170715768Y-58862762D01*
X171099543Y-58703797D01*
X171169008Y-58461613D01*
X171169008Y-59524348D01*
X171017111Y-59587111D01*
X170713178Y-59890514D01*
X170548487Y-60287132D01*
X170548113Y-60716584D01*
X170712111Y-61113489D01*
X171015514Y-61417422D01*
X171412132Y-61582113D01*
X171841584Y-61582487D01*
X172066723Y-61489461D01*
X172127727Y-61582327D01*
X172338760Y-61724777D01*
X172588400Y-61774840D01*
X173288400Y-61774840D01*
X173530523Y-61727863D01*
X173743327Y-61588073D01*
X173885777Y-61377040D01*
X173887616Y-61367869D01*
X173887937Y-61369523D01*
X174027727Y-61582327D01*
X174238760Y-61724777D01*
X174488400Y-61774840D01*
X175188400Y-61774840D01*
X175430523Y-61727863D01*
X175643327Y-61588073D01*
X175785777Y-61377040D01*
X175835840Y-61127400D01*
X175835840Y-59827400D01*
X175788863Y-59585277D01*
X175649073Y-59372473D01*
X175549600Y-59305327D01*
X175549600Y-58711490D01*
X175658703Y-58666410D01*
X176052029Y-58273770D01*
X176265157Y-57760500D01*
X176265642Y-57204739D01*
X176265642Y-63704739D01*
X176053410Y-63191097D01*
X175660770Y-62797771D01*
X175147500Y-62584643D01*
X174591739Y-62584158D01*
X174078097Y-62796390D01*
X173684771Y-63189030D01*
X173471643Y-63702300D01*
X173471158Y-64258061D01*
X173683390Y-64771703D01*
X174076030Y-65165029D01*
X174589300Y-65378157D01*
X175145061Y-65378642D01*
X175658703Y-65166410D01*
X176052029Y-64773770D01*
X176265157Y-64260500D01*
X176265642Y-63704739D01*
X176265642Y-82445981D01*
X175882045Y-82828910D01*
X175653660Y-83378922D01*
X175653141Y-83974465D01*
X175880565Y-84524875D01*
X176301310Y-84946355D01*
X176413800Y-84993064D01*
X176413800Y-85222988D01*
X176349423Y-85318360D01*
X176299360Y-85568000D01*
X176299360Y-86268000D01*
X176346337Y-86510123D01*
X176486127Y-86722927D01*
X176618948Y-86812582D01*
X176618851Y-86923915D01*
X176491873Y-87007327D01*
X176349423Y-87218360D01*
X176299360Y-87468000D01*
X176299360Y-88168000D01*
X176346337Y-88410123D01*
X176486127Y-88622927D01*
X176697160Y-88765377D01*
X176946800Y-88815440D01*
X178246800Y-88815440D01*
X178488923Y-88768463D01*
X178701727Y-88628673D01*
X178844177Y-88417640D01*
X178894240Y-88168000D01*
X178894240Y-88882960D01*
X178699400Y-88882960D01*
X178457277Y-88929937D01*
X178244473Y-89069727D01*
X178102023Y-89280760D01*
X178051960Y-89530400D01*
X178051960Y-90230400D01*
X178098937Y-90472523D01*
X178238727Y-90685327D01*
X178295281Y-90723502D01*
X178295113Y-90917184D01*
X178301377Y-90932346D01*
X178244473Y-90969727D01*
X178102023Y-91180760D01*
X178051960Y-91430400D01*
X178051960Y-92130400D01*
X178098937Y-92372523D01*
X178238727Y-92585327D01*
X178360702Y-92667661D01*
X178269873Y-92727327D01*
X178127423Y-92938360D01*
X178077360Y-93188000D01*
X178077360Y-93888000D01*
X178124337Y-94130123D01*
X178264127Y-94342927D01*
X178346000Y-94398192D01*
X178345931Y-94478463D01*
X178378072Y-94556251D01*
X178269873Y-94627327D01*
X178127423Y-94838360D01*
X178077360Y-95088000D01*
X178077360Y-95788000D01*
X178124337Y-96030123D01*
X178264127Y-96242927D01*
X178475160Y-96385377D01*
X178612800Y-96412979D01*
X178612800Y-96733411D01*
X178217837Y-97128373D01*
X177999490Y-96909645D01*
X177751640Y-96806728D01*
X177751640Y-93937200D01*
X177751640Y-92937200D01*
X177704663Y-92695077D01*
X177564873Y-92482273D01*
X177353840Y-92339823D01*
X177104200Y-92289760D01*
X176024440Y-92289760D01*
X176024440Y-88418800D01*
X176024440Y-87418800D01*
X175977463Y-87176677D01*
X175856923Y-86993178D01*
X175857060Y-86836765D01*
X175915327Y-86778498D01*
X176012000Y-86545109D01*
X176012000Y-86204550D01*
X176012000Y-85633050D01*
X176012000Y-85292491D01*
X175915327Y-85059102D01*
X175736699Y-84880473D01*
X175503310Y-84783800D01*
X175250691Y-84783800D01*
X175037750Y-84783800D01*
X174879000Y-84942550D01*
X174879000Y-85791800D01*
X175853250Y-85791800D01*
X176012000Y-85633050D01*
X176012000Y-86204550D01*
X175853250Y-86045800D01*
X175081907Y-86045800D01*
X175074370Y-86042670D01*
X174685337Y-86042331D01*
X174675800Y-86046271D01*
X174675800Y-78769359D01*
X174675800Y-78710641D01*
X174561726Y-78137152D01*
X174236870Y-77650971D01*
X173966027Y-77470000D01*
X174236870Y-77289029D01*
X174561726Y-76802848D01*
X174675800Y-76229359D01*
X174675800Y-76170641D01*
X174561726Y-75597152D01*
X174236870Y-75110971D01*
X173966027Y-74930000D01*
X174236870Y-74749029D01*
X174561726Y-74262848D01*
X174675800Y-73689359D01*
X174675800Y-73630641D01*
X174599600Y-73247557D01*
X174599600Y-69574559D01*
X174599600Y-69515841D01*
X174485526Y-68942352D01*
X174160670Y-68456171D01*
X173889827Y-68275200D01*
X174160670Y-68094229D01*
X174485526Y-67608048D01*
X174599600Y-67034559D01*
X174599600Y-66975841D01*
X174485526Y-66402352D01*
X174160670Y-65916171D01*
X173674489Y-65591315D01*
X173101000Y-65477241D01*
X172527511Y-65591315D01*
X172041330Y-65916171D01*
X171831000Y-66230951D01*
X171777544Y-66150948D01*
X171777544Y-64189098D01*
X171749762Y-63634032D01*
X171590797Y-63250257D01*
X171348613Y-63180792D01*
X171169008Y-63360397D01*
X171169008Y-63001187D01*
X171099543Y-62759003D01*
X170576098Y-62572256D01*
X170021032Y-62600038D01*
X169637257Y-62759003D01*
X169567792Y-63001187D01*
X170368400Y-63801795D01*
X171169008Y-63001187D01*
X171169008Y-63360397D01*
X170548005Y-63981400D01*
X171348613Y-64782008D01*
X171590797Y-64712543D01*
X171777544Y-64189098D01*
X171777544Y-66150948D01*
X171620670Y-65916171D01*
X171169008Y-65614379D01*
X171169008Y-64961613D01*
X170368400Y-64161005D01*
X170188795Y-64340610D01*
X170188795Y-63981400D01*
X169388187Y-63180792D01*
X169146003Y-63250257D01*
X168959256Y-63773702D01*
X168987038Y-64328768D01*
X169146003Y-64712543D01*
X169388187Y-64782008D01*
X170188795Y-63981400D01*
X170188795Y-64340610D01*
X169567792Y-64961613D01*
X169637257Y-65203797D01*
X170160702Y-65390544D01*
X170715768Y-65362762D01*
X171099543Y-65203797D01*
X171169008Y-64961613D01*
X171169008Y-65614379D01*
X171134489Y-65591315D01*
X170561000Y-65477241D01*
X169987511Y-65591315D01*
X169501330Y-65916171D01*
X169176474Y-66402352D01*
X169062400Y-66975841D01*
X169062400Y-67034559D01*
X169176474Y-67608048D01*
X169488300Y-68074729D01*
X169455277Y-68081137D01*
X169242473Y-68220927D01*
X169100023Y-68431960D01*
X169049960Y-68681600D01*
X169049960Y-70408800D01*
X169096937Y-70650923D01*
X169236727Y-70863727D01*
X169447760Y-71006177D01*
X169697400Y-71056240D01*
X171424600Y-71056240D01*
X171666723Y-71009263D01*
X171879527Y-70869473D01*
X172021977Y-70658440D01*
X172030179Y-70617540D01*
X172041330Y-70634229D01*
X172527511Y-70959085D01*
X173101000Y-71073159D01*
X173674489Y-70959085D01*
X174160670Y-70634229D01*
X174485526Y-70148048D01*
X174599600Y-69574559D01*
X174599600Y-73247557D01*
X174561726Y-73057152D01*
X174236870Y-72570971D01*
X173750689Y-72246115D01*
X173177200Y-72132041D01*
X172603711Y-72246115D01*
X172117530Y-72570971D01*
X172107433Y-72586081D01*
X172101263Y-72554277D01*
X171961473Y-72341473D01*
X171750440Y-72199023D01*
X171500800Y-72148960D01*
X169773600Y-72148960D01*
X169531477Y-72195937D01*
X169318673Y-72335727D01*
X169176223Y-72546760D01*
X169126160Y-72796400D01*
X169126160Y-74523600D01*
X169173137Y-74765723D01*
X169312927Y-74978527D01*
X169523960Y-75120977D01*
X169618378Y-75139911D01*
X169430379Y-75311510D01*
X169182232Y-75840973D01*
X169302731Y-76073000D01*
X170510200Y-76073000D01*
X170510200Y-76053000D01*
X170764200Y-76053000D01*
X170764200Y-76073000D01*
X170784200Y-76073000D01*
X170784200Y-76327000D01*
X170764200Y-76327000D01*
X170764200Y-77406183D01*
X170764200Y-77533817D01*
X170764200Y-78613000D01*
X170784200Y-78613000D01*
X170784200Y-78867000D01*
X170764200Y-78867000D01*
X170764200Y-80073817D01*
X170996226Y-80194958D01*
X171412147Y-80022688D01*
X171844021Y-79628490D01*
X171901536Y-79505771D01*
X172117530Y-79829029D01*
X172603711Y-80153885D01*
X173177200Y-80267959D01*
X173750689Y-80153885D01*
X174236870Y-79829029D01*
X174561726Y-79342848D01*
X174675800Y-78769359D01*
X174675800Y-86046271D01*
X174628535Y-86065800D01*
X174625000Y-86065800D01*
X174625000Y-86045800D01*
X174625000Y-85791800D01*
X174625000Y-84942550D01*
X174466250Y-84783800D01*
X174253309Y-84783800D01*
X174000690Y-84783800D01*
X173767301Y-84880473D01*
X173659056Y-84988718D01*
X173659056Y-83909587D01*
X173632842Y-83314621D01*
X173455592Y-82886704D01*
X173203047Y-82804958D01*
X173023442Y-82984563D01*
X173023442Y-82625353D01*
X172941696Y-82372808D01*
X172381987Y-82169344D01*
X171787021Y-82195558D01*
X171359104Y-82372808D01*
X171277358Y-82625353D01*
X172150400Y-83498395D01*
X173023442Y-82625353D01*
X173023442Y-82984563D01*
X172330005Y-83678000D01*
X173203047Y-84551042D01*
X173455592Y-84469296D01*
X173659056Y-83909587D01*
X173659056Y-84988718D01*
X173588673Y-85059102D01*
X173492000Y-85292491D01*
X173492000Y-85633050D01*
X173650750Y-85791800D01*
X174625000Y-85791800D01*
X174625000Y-86045800D01*
X173650750Y-86045800D01*
X173492000Y-86204550D01*
X173492000Y-86545109D01*
X173588673Y-86778498D01*
X173730150Y-86919976D01*
X173672073Y-86958127D01*
X173529623Y-87169160D01*
X173479560Y-87418800D01*
X173479560Y-88418800D01*
X173526537Y-88660923D01*
X173666327Y-88873727D01*
X173877360Y-89016177D01*
X174127000Y-89066240D01*
X175377000Y-89066240D01*
X175619123Y-89019263D01*
X175831927Y-88879473D01*
X175974377Y-88668440D01*
X176024440Y-88418800D01*
X176024440Y-92289760D01*
X175854200Y-92289760D01*
X175612077Y-92336737D01*
X175399273Y-92476527D01*
X175256823Y-92687560D01*
X175206760Y-92937200D01*
X175206760Y-93937200D01*
X175253737Y-94179323D01*
X175393527Y-94392127D01*
X175457837Y-94435537D01*
X175315873Y-94577502D01*
X175219200Y-94810891D01*
X175219200Y-95151450D01*
X175377950Y-95310200D01*
X176352200Y-95310200D01*
X176352200Y-95290200D01*
X176606200Y-95290200D01*
X176606200Y-95310200D01*
X177580450Y-95310200D01*
X177739200Y-95151450D01*
X177739200Y-94810891D01*
X177642527Y-94577502D01*
X177501049Y-94436023D01*
X177559127Y-94397873D01*
X177701577Y-94186840D01*
X177751640Y-93937200D01*
X177751640Y-96806728D01*
X177739200Y-96801563D01*
X177739200Y-96063509D01*
X177739200Y-95722950D01*
X177580450Y-95564200D01*
X176606200Y-95564200D01*
X176606200Y-96413450D01*
X176764950Y-96572200D01*
X176977891Y-96572200D01*
X177230510Y-96572200D01*
X177463899Y-96475527D01*
X177642527Y-96296898D01*
X177739200Y-96063509D01*
X177739200Y-96801563D01*
X177449478Y-96681260D01*
X176853935Y-96680741D01*
X176352200Y-96888052D01*
X176352200Y-96413450D01*
X176352200Y-95564200D01*
X175377950Y-95564200D01*
X175219200Y-95722950D01*
X175219200Y-96063509D01*
X175315873Y-96296898D01*
X175494501Y-96475527D01*
X175727890Y-96572200D01*
X175980509Y-96572200D01*
X176193450Y-96572200D01*
X176352200Y-96413450D01*
X176352200Y-96888052D01*
X176303525Y-96908165D01*
X175882045Y-97328910D01*
X175869604Y-97358870D01*
X175703047Y-97304958D01*
X175523442Y-97484563D01*
X175523442Y-97125353D01*
X175441696Y-96872808D01*
X174881987Y-96669344D01*
X174652840Y-96679440D01*
X174652840Y-93886400D01*
X174652840Y-92886400D01*
X174605863Y-92644277D01*
X174466073Y-92431473D01*
X174255040Y-92289023D01*
X174005400Y-92238960D01*
X173291669Y-92238960D01*
X173291669Y-86902937D01*
X173143107Y-86543388D01*
X173072237Y-86472395D01*
X173103040Y-86318800D01*
X173103040Y-85618800D01*
X173056063Y-85376677D01*
X172916273Y-85163873D01*
X172760061Y-85058428D01*
X172941696Y-84983192D01*
X173023442Y-84730647D01*
X172150400Y-83857605D01*
X171970795Y-84037210D01*
X171970795Y-83678000D01*
X171097753Y-82804958D01*
X170845208Y-82886704D01*
X170641744Y-83446413D01*
X170667958Y-84041379D01*
X170845208Y-84469296D01*
X171097753Y-84551042D01*
X171970795Y-83678000D01*
X171970795Y-84037210D01*
X171277358Y-84730647D01*
X171355274Y-84971360D01*
X171155600Y-84971360D01*
X170913477Y-85018337D01*
X170700673Y-85158127D01*
X170558223Y-85369160D01*
X170510200Y-85608627D01*
X170510200Y-80073817D01*
X170510200Y-78867000D01*
X170510200Y-78613000D01*
X170510200Y-77533817D01*
X170510200Y-77406183D01*
X170510200Y-76327000D01*
X169302731Y-76327000D01*
X169182232Y-76559027D01*
X169430379Y-77088490D01*
X169848352Y-77470000D01*
X169430379Y-77851510D01*
X169182232Y-78380973D01*
X169302731Y-78613000D01*
X170510200Y-78613000D01*
X170510200Y-78867000D01*
X169302731Y-78867000D01*
X169182232Y-79099027D01*
X169430379Y-79628490D01*
X169862253Y-80022688D01*
X170278174Y-80194958D01*
X170510200Y-80073817D01*
X170510200Y-85608627D01*
X170508160Y-85618800D01*
X170508160Y-85851527D01*
X170281378Y-86077914D01*
X170116687Y-86474532D01*
X170116313Y-86903984D01*
X170280311Y-87300889D01*
X170508160Y-87529136D01*
X170508160Y-88218800D01*
X170555137Y-88460923D01*
X170694927Y-88673727D01*
X170905960Y-88816177D01*
X171155600Y-88866240D01*
X172455600Y-88866240D01*
X172697723Y-88819263D01*
X172910527Y-88679473D01*
X173052977Y-88468440D01*
X173103040Y-88218800D01*
X173103040Y-87690290D01*
X173142140Y-87651259D01*
X173291330Y-87291970D01*
X173291669Y-86902937D01*
X173291669Y-92238960D01*
X172755400Y-92238960D01*
X172513277Y-92285937D01*
X172300473Y-92425727D01*
X172158023Y-92636760D01*
X172107960Y-92886400D01*
X172107960Y-93886400D01*
X172154937Y-94128523D01*
X172294727Y-94341327D01*
X172359037Y-94384737D01*
X172217073Y-94526702D01*
X172120400Y-94760091D01*
X172120400Y-95100650D01*
X172279150Y-95259400D01*
X173177492Y-95259400D01*
X173185030Y-95262530D01*
X173574063Y-95262869D01*
X173582458Y-95259400D01*
X174481650Y-95259400D01*
X174640400Y-95100650D01*
X174640400Y-94760091D01*
X174543727Y-94526702D01*
X174402249Y-94385223D01*
X174460327Y-94347073D01*
X174602777Y-94136040D01*
X174652840Y-93886400D01*
X174652840Y-96679440D01*
X174640400Y-96679988D01*
X174640400Y-96012709D01*
X174640400Y-95672150D01*
X174481650Y-95513400D01*
X173507400Y-95513400D01*
X173507400Y-96362650D01*
X173666150Y-96521400D01*
X173879091Y-96521400D01*
X174131710Y-96521400D01*
X174365099Y-96424727D01*
X174543727Y-96246098D01*
X174640400Y-96012709D01*
X174640400Y-96679988D01*
X174287021Y-96695558D01*
X173859104Y-96872808D01*
X173777358Y-97125353D01*
X174650400Y-97998395D01*
X175523442Y-97125353D01*
X175523442Y-97484563D01*
X174830005Y-98178000D01*
X175703047Y-99051042D01*
X175869160Y-98997273D01*
X175880565Y-99024875D01*
X176301310Y-99446355D01*
X176851322Y-99674740D01*
X177446865Y-99675259D01*
X177997275Y-99447835D01*
X178418755Y-99027090D01*
X178518584Y-98786673D01*
X178676894Y-98680894D01*
X179826894Y-97530894D01*
X179826895Y-97530894D01*
X179981063Y-97300164D01*
X180035200Y-97028000D01*
X180035200Y-96433422D01*
X180266923Y-96388463D01*
X180479727Y-96248673D01*
X180622177Y-96037640D01*
X180672240Y-95788000D01*
X180672240Y-99715000D01*
X175523442Y-99715000D01*
X175523442Y-99230647D01*
X174650400Y-98357605D01*
X174470795Y-98537210D01*
X174470795Y-98178000D01*
X173597753Y-97304958D01*
X173431639Y-97358726D01*
X173420235Y-97331125D01*
X173253400Y-97163998D01*
X173253400Y-96362650D01*
X173253400Y-95513400D01*
X172279150Y-95513400D01*
X172120400Y-95672150D01*
X172120400Y-96012709D01*
X172217073Y-96246098D01*
X172395701Y-96424727D01*
X172629090Y-96521400D01*
X172881709Y-96521400D01*
X173094650Y-96521400D01*
X173253400Y-96362650D01*
X173253400Y-97163998D01*
X172999490Y-96909645D01*
X172449478Y-96681260D01*
X171853935Y-96680741D01*
X171303525Y-96908165D01*
X171057524Y-97153736D01*
X171018200Y-97114411D01*
X171018200Y-96418637D01*
X171173723Y-96388463D01*
X171386527Y-96248673D01*
X171528977Y-96037640D01*
X171579040Y-95788000D01*
X171579040Y-95088000D01*
X171532063Y-94845877D01*
X171392273Y-94633073D01*
X171230605Y-94523945D01*
X171259330Y-94454770D01*
X171259349Y-94432215D01*
X171386527Y-94348673D01*
X171528977Y-94137640D01*
X171579040Y-93888000D01*
X171579040Y-93188000D01*
X171532063Y-92945877D01*
X171392273Y-92733073D01*
X171307879Y-92676106D01*
X171437327Y-92591073D01*
X171579777Y-92380040D01*
X171629840Y-92130400D01*
X171629840Y-91430400D01*
X171582863Y-91188277D01*
X171443073Y-90975473D01*
X171335527Y-90902878D01*
X171335653Y-90757861D01*
X171437327Y-90691073D01*
X171579777Y-90480040D01*
X171629840Y-90230400D01*
X171629840Y-89530400D01*
X171582863Y-89288277D01*
X171443073Y-89075473D01*
X171232040Y-88933023D01*
X170982400Y-88882960D01*
X170489556Y-88882960D01*
X170332400Y-88851700D01*
X170175243Y-88882960D01*
X169682400Y-88882960D01*
X169440277Y-88929937D01*
X169227473Y-89069727D01*
X169085023Y-89280760D01*
X169034960Y-89530400D01*
X169034960Y-90230400D01*
X169081937Y-90472523D01*
X169176774Y-90616895D01*
X169176513Y-90917184D01*
X169209329Y-90996605D01*
X169085023Y-91180760D01*
X169034960Y-91430400D01*
X169034960Y-92130400D01*
X169081937Y-92372523D01*
X169221727Y-92585327D01*
X169306120Y-92642293D01*
X169176673Y-92727327D01*
X169034223Y-92938360D01*
X168984160Y-93188000D01*
X168984160Y-93888000D01*
X169031137Y-94130123D01*
X169170927Y-94342927D01*
X169303548Y-94432448D01*
X169303531Y-94453063D01*
X169333082Y-94524582D01*
X169176673Y-94627327D01*
X169034223Y-94838360D01*
X168984160Y-95088000D01*
X168984160Y-95788000D01*
X169031137Y-96030123D01*
X169170927Y-96242927D01*
X169381960Y-96385377D01*
X169595800Y-96428260D01*
X169595800Y-97409000D01*
X169649937Y-97681165D01*
X169804106Y-97911894D01*
X170573105Y-98680894D01*
X170573106Y-98680894D01*
X170801488Y-98833494D01*
X170801488Y-98833495D01*
X170880565Y-99024875D01*
X171301310Y-99446355D01*
X171851322Y-99674740D01*
X172446865Y-99675259D01*
X172997275Y-99447835D01*
X173418755Y-99027090D01*
X173431195Y-98997129D01*
X173597753Y-99051042D01*
X174470795Y-98178000D01*
X174470795Y-98537210D01*
X173777358Y-99230647D01*
X173859104Y-99483192D01*
X174418813Y-99686656D01*
X175013779Y-99660442D01*
X175441696Y-99483192D01*
X175523442Y-99230647D01*
X175523442Y-99715000D01*
X168685000Y-99715000D01*
X168685000Y-50285000D01*
X189992000Y-50285000D01*
X189992000Y-50624807D01*
X189433200Y-50513655D01*
X188859711Y-50627729D01*
X188373530Y-50952585D01*
X188362984Y-50968367D01*
X188357263Y-50938877D01*
X188217473Y-50726073D01*
X188006440Y-50583623D01*
X187756800Y-50533560D01*
X186029600Y-50533560D01*
X185787477Y-50580537D01*
X185574673Y-50720327D01*
X185432223Y-50931360D01*
X185382160Y-51181000D01*
X185382160Y-53213000D01*
X185429137Y-53455123D01*
X185568927Y-53667927D01*
X185779960Y-53810377D01*
X186029600Y-53860440D01*
X187756800Y-53860440D01*
X187998923Y-53813463D01*
X188211727Y-53673673D01*
X188354177Y-53462640D01*
X188361918Y-53424037D01*
X188373530Y-53441415D01*
X188859711Y-53766271D01*
X189433200Y-53880345D01*
X189992000Y-53769192D01*
X189992000Y-57226200D01*
X189845950Y-57226200D01*
X189687200Y-57384950D01*
X189687200Y-59004200D01*
X189707200Y-59004200D01*
X189707200Y-59258200D01*
X189687200Y-59258200D01*
X189687200Y-60877450D01*
X189845950Y-61036200D01*
X189992000Y-61036200D01*
X189992000Y-66435005D01*
X189874660Y-66552141D01*
X189725470Y-66911430D01*
X189725131Y-67300463D01*
X189873693Y-67660012D01*
X189992000Y-67778525D01*
X189992000Y-68764389D01*
X189925337Y-68764331D01*
X189565788Y-68912893D01*
X189433200Y-69045249D01*
X189433200Y-60877450D01*
X189433200Y-59258200D01*
X189433200Y-59004200D01*
X189433200Y-57384950D01*
X189274450Y-57226200D01*
X188163891Y-57226200D01*
X187930502Y-57322873D01*
X187751873Y-57501501D01*
X187655200Y-57734890D01*
X187655200Y-57987509D01*
X187655200Y-58845450D01*
X187813950Y-59004200D01*
X189433200Y-59004200D01*
X189433200Y-59258200D01*
X187813950Y-59258200D01*
X187655200Y-59416950D01*
X187655200Y-60274891D01*
X187655200Y-60527510D01*
X187751873Y-60760899D01*
X187930502Y-60939527D01*
X188163891Y-61036200D01*
X189274450Y-61036200D01*
X189433200Y-60877450D01*
X189433200Y-69045249D01*
X189290460Y-69187741D01*
X189141270Y-69547030D01*
X189140931Y-69936063D01*
X189289493Y-70295612D01*
X189534800Y-70541347D01*
X189534800Y-70612000D01*
X189534800Y-73571011D01*
X189442737Y-73570931D01*
X189083188Y-73719493D01*
X188807860Y-73994341D01*
X188658670Y-74353630D01*
X188658331Y-74742663D01*
X188806893Y-75102212D01*
X188874400Y-75169836D01*
X188874400Y-75216909D01*
X188764970Y-75171470D01*
X188375937Y-75171131D01*
X188016388Y-75319693D01*
X187741060Y-75594541D01*
X187591870Y-75953830D01*
X187591856Y-75969329D01*
X187381388Y-76056293D01*
X187106060Y-76331141D01*
X186956870Y-76690430D01*
X186956531Y-77079463D01*
X187070492Y-77355271D01*
X186771788Y-77478693D01*
X186496460Y-77753541D01*
X186488200Y-77773433D01*
X186488200Y-74563710D01*
X186488200Y-74311091D01*
X186488200Y-74098150D01*
X186488200Y-73526650D01*
X186488200Y-73313709D01*
X186488200Y-73061090D01*
X186391527Y-72827701D01*
X186258625Y-72694800D01*
X186391527Y-72561899D01*
X186488200Y-72328510D01*
X186488200Y-72075891D01*
X186488200Y-71862950D01*
X186488200Y-71291450D01*
X186488200Y-71078509D01*
X186488200Y-70825890D01*
X186391527Y-70592501D01*
X186212898Y-70413873D01*
X185979509Y-70317200D01*
X185638950Y-70317200D01*
X185480200Y-70475950D01*
X185480200Y-71450200D01*
X186329450Y-71450200D01*
X186488200Y-71291450D01*
X186488200Y-71862950D01*
X186329450Y-71704200D01*
X185480200Y-71704200D01*
X185480200Y-72678450D01*
X185496550Y-72694800D01*
X185480200Y-72711150D01*
X185480200Y-73685400D01*
X186329450Y-73685400D01*
X186488200Y-73526650D01*
X186488200Y-74098150D01*
X186329450Y-73939400D01*
X185480200Y-73939400D01*
X185480200Y-74913650D01*
X185638950Y-75072400D01*
X185979509Y-75072400D01*
X186212898Y-74975727D01*
X186391527Y-74797099D01*
X186488200Y-74563710D01*
X186488200Y-77773433D01*
X186347270Y-78112830D01*
X186346931Y-78501863D01*
X186495493Y-78861412D01*
X186664600Y-79030814D01*
X186664600Y-84380804D01*
X186525070Y-84716830D01*
X186524731Y-85105863D01*
X186673293Y-85465412D01*
X186948141Y-85740740D01*
X186974318Y-85751609D01*
X186771788Y-85835293D01*
X186496460Y-86110141D01*
X186486540Y-86134030D01*
X186486540Y-85953600D01*
X186439563Y-85711477D01*
X186348074Y-85572203D01*
X186436477Y-85441240D01*
X186486540Y-85191600D01*
X186486540Y-84683600D01*
X186439563Y-84441477D01*
X186299773Y-84228673D01*
X186088740Y-84086223D01*
X186016900Y-84071816D01*
X186016900Y-83464738D01*
X186058523Y-83456663D01*
X186271327Y-83316873D01*
X186413777Y-83105840D01*
X186463840Y-82856200D01*
X186463840Y-81856200D01*
X186416863Y-81614077D01*
X186277073Y-81401273D01*
X186212762Y-81357862D01*
X186354727Y-81215898D01*
X186451400Y-80982509D01*
X186451400Y-80641950D01*
X186451400Y-80070450D01*
X186451400Y-79729891D01*
X186354727Y-79496502D01*
X186176099Y-79317873D01*
X185942710Y-79221200D01*
X185690091Y-79221200D01*
X185477150Y-79221200D01*
X185385950Y-79312400D01*
X185385950Y-62336602D01*
X185175454Y-61827163D01*
X184786027Y-61437056D01*
X184692375Y-61398168D01*
X184802127Y-61326073D01*
X184944577Y-61115040D01*
X184994640Y-60865400D01*
X184994640Y-60065400D01*
X184947663Y-59823277D01*
X184884104Y-59726520D01*
X184885527Y-59725098D01*
X184982200Y-59491709D01*
X184982200Y-59251150D01*
X184982200Y-58679650D01*
X184982200Y-58439091D01*
X184885527Y-58205702D01*
X184706899Y-58027073D01*
X184473510Y-57930400D01*
X184257950Y-57930400D01*
X184150000Y-58038350D01*
X184150000Y-54690159D01*
X184150000Y-54631441D01*
X184035926Y-54057952D01*
X183711070Y-53571771D01*
X183440239Y-53390807D01*
X183858221Y-53009290D01*
X184106368Y-52479827D01*
X184106368Y-51761773D01*
X183858221Y-51232310D01*
X183426347Y-50838112D01*
X183010426Y-50665842D01*
X182778400Y-50786983D01*
X182778400Y-51993800D01*
X183985869Y-51993800D01*
X184106368Y-51761773D01*
X184106368Y-52479827D01*
X183985869Y-52247800D01*
X182778400Y-52247800D01*
X182778400Y-52267800D01*
X182524400Y-52267800D01*
X182524400Y-52247800D01*
X182504400Y-52247800D01*
X182504400Y-51993800D01*
X182524400Y-51993800D01*
X182524400Y-50786983D01*
X182292374Y-50665842D01*
X181876453Y-50838112D01*
X181444579Y-51232310D01*
X181387063Y-51355028D01*
X181171070Y-51031771D01*
X180684889Y-50706915D01*
X180111400Y-50592841D01*
X179537911Y-50706915D01*
X179051730Y-51031771D01*
X178841400Y-51346551D01*
X178631070Y-51031771D01*
X178144889Y-50706915D01*
X177571400Y-50592841D01*
X176997911Y-50706915D01*
X176511730Y-51031771D01*
X176186874Y-51517952D01*
X176072800Y-52091441D01*
X176072800Y-52150159D01*
X176186874Y-52723648D01*
X176498700Y-53190329D01*
X176465677Y-53196737D01*
X176252873Y-53336527D01*
X176110423Y-53547560D01*
X176060360Y-53797200D01*
X176060360Y-55524400D01*
X176107337Y-55766523D01*
X176247127Y-55979327D01*
X176458160Y-56121777D01*
X176707800Y-56171840D01*
X178435000Y-56171840D01*
X178677123Y-56124863D01*
X178889927Y-55985073D01*
X179032377Y-55774040D01*
X179040579Y-55733140D01*
X179051730Y-55749829D01*
X179537911Y-56074685D01*
X180111400Y-56188759D01*
X180684889Y-56074685D01*
X181171070Y-55749829D01*
X181381400Y-55435048D01*
X181591730Y-55749829D01*
X182077911Y-56074685D01*
X182651400Y-56188759D01*
X183224889Y-56074685D01*
X183711070Y-55749829D01*
X184035926Y-55263648D01*
X184150000Y-54690159D01*
X184150000Y-58038350D01*
X184099200Y-58089150D01*
X184099200Y-58838400D01*
X184823450Y-58838400D01*
X184982200Y-58679650D01*
X184982200Y-59251150D01*
X184823450Y-59092400D01*
X184099200Y-59092400D01*
X184099200Y-59112400D01*
X183845200Y-59112400D01*
X183845200Y-59092400D01*
X183845200Y-58838400D01*
X183845200Y-58089150D01*
X183686450Y-57930400D01*
X183470890Y-57930400D01*
X183237501Y-58027073D01*
X183058873Y-58205702D01*
X182962200Y-58439091D01*
X182962200Y-58679650D01*
X183120950Y-58838400D01*
X183845200Y-58838400D01*
X183845200Y-59092400D01*
X183120950Y-59092400D01*
X182962200Y-59251150D01*
X182962200Y-59491709D01*
X183058873Y-59725098D01*
X183060155Y-59726380D01*
X182999823Y-59815760D01*
X182949760Y-60065400D01*
X182949760Y-60865400D01*
X182996737Y-61107523D01*
X183136527Y-61320327D01*
X183261000Y-61404347D01*
X183261000Y-61417217D01*
X183216303Y-61435686D01*
X182826196Y-61825113D01*
X182614811Y-62334184D01*
X182614330Y-62885398D01*
X182824826Y-63394837D01*
X183214253Y-63784944D01*
X183723324Y-63996329D01*
X184274538Y-63996810D01*
X184783977Y-63786314D01*
X185174084Y-63396887D01*
X185385469Y-62887816D01*
X185385950Y-62336602D01*
X185385950Y-79312400D01*
X185318400Y-79379950D01*
X185318400Y-80229200D01*
X186292650Y-80229200D01*
X186451400Y-80070450D01*
X186451400Y-80641950D01*
X186292650Y-80483200D01*
X185318400Y-80483200D01*
X185318400Y-80503200D01*
X185226200Y-80503200D01*
X185226200Y-74913650D01*
X185226200Y-73939400D01*
X185206200Y-73939400D01*
X185206200Y-73685400D01*
X185226200Y-73685400D01*
X185226200Y-72711150D01*
X185209850Y-72694800D01*
X185226200Y-72678450D01*
X185226200Y-71704200D01*
X185206200Y-71704200D01*
X185206200Y-71450200D01*
X185226200Y-71450200D01*
X185226200Y-70475950D01*
X185067450Y-70317200D01*
X184726891Y-70317200D01*
X184493502Y-70413873D01*
X184352023Y-70555350D01*
X184313873Y-70497273D01*
X184178700Y-70406029D01*
X184178700Y-70221605D01*
X184178700Y-70221600D01*
X184178701Y-70221600D01*
X184115863Y-69905695D01*
X184010345Y-69747776D01*
X184010487Y-69585416D01*
X183846489Y-69188511D01*
X183543086Y-68884578D01*
X183146468Y-68719887D01*
X182717016Y-68719513D01*
X182320111Y-68883511D01*
X182268067Y-68935463D01*
X181932370Y-68796070D01*
X181764912Y-68795924D01*
X181559200Y-68590212D01*
X181559200Y-67335400D01*
X181505063Y-67063236D01*
X181505062Y-67063235D01*
X181453905Y-66986674D01*
X181350894Y-66832506D01*
X181350894Y-66832505D01*
X181317924Y-66799535D01*
X181318069Y-66633737D01*
X181169507Y-66274188D01*
X180894659Y-65998860D01*
X180535370Y-65849670D01*
X180504070Y-65849642D01*
X180504070Y-62336602D01*
X180293574Y-61827163D01*
X179904147Y-61437056D01*
X179832000Y-61407097D01*
X179832000Y-61404064D01*
X179950727Y-61326073D01*
X180093177Y-61115040D01*
X180143240Y-60865400D01*
X180143240Y-60065400D01*
X180096263Y-59823277D01*
X180032704Y-59726520D01*
X180034127Y-59725098D01*
X180130800Y-59491709D01*
X180130800Y-59251150D01*
X180130800Y-58679650D01*
X180130800Y-58439091D01*
X180034127Y-58205702D01*
X179855499Y-58027073D01*
X179622110Y-57930400D01*
X179406550Y-57930400D01*
X179247800Y-58089150D01*
X179247800Y-58838400D01*
X179972050Y-58838400D01*
X180130800Y-58679650D01*
X180130800Y-59251150D01*
X179972050Y-59092400D01*
X179247800Y-59092400D01*
X179247800Y-59112400D01*
X178993800Y-59112400D01*
X178993800Y-59092400D01*
X178993800Y-58838400D01*
X178993800Y-58089150D01*
X178835050Y-57930400D01*
X178619490Y-57930400D01*
X178386101Y-58027073D01*
X178207473Y-58205702D01*
X178110800Y-58439091D01*
X178110800Y-58679650D01*
X178269550Y-58838400D01*
X178993800Y-58838400D01*
X178993800Y-59092400D01*
X178269550Y-59092400D01*
X178110800Y-59251150D01*
X178110800Y-59491709D01*
X178207473Y-59725098D01*
X178208755Y-59726380D01*
X178148423Y-59815760D01*
X178098360Y-60065400D01*
X178098360Y-60865400D01*
X178145337Y-61107523D01*
X178285127Y-61320327D01*
X178409600Y-61404347D01*
X178409600Y-61404623D01*
X178334423Y-61435686D01*
X177944316Y-61825113D01*
X177732931Y-62334184D01*
X177732450Y-62885398D01*
X177942946Y-63394837D01*
X178332373Y-63784944D01*
X178841444Y-63996329D01*
X179392658Y-63996810D01*
X179902097Y-63786314D01*
X180292204Y-63396887D01*
X180503589Y-62887816D01*
X180504070Y-62336602D01*
X180504070Y-65849642D01*
X180146337Y-65849331D01*
X179786788Y-65997893D01*
X179511460Y-66272741D01*
X179362270Y-66632030D01*
X179361931Y-67021063D01*
X179477074Y-67299733D01*
X179431188Y-67318693D01*
X179155860Y-67593541D01*
X179049829Y-67848890D01*
X178796188Y-67953693D01*
X178639374Y-68110233D01*
X178292137Y-68109931D01*
X177932588Y-68258493D01*
X177657260Y-68533341D01*
X177508070Y-68892630D01*
X177507731Y-69281663D01*
X177656293Y-69641212D01*
X177774600Y-69759725D01*
X177774600Y-69824600D01*
X177774600Y-69926200D01*
X177774600Y-74639205D01*
X177657260Y-74756341D01*
X177508070Y-75115630D01*
X177507731Y-75504663D01*
X177656293Y-75864212D01*
X177931141Y-76139540D01*
X178290430Y-76288730D01*
X178638200Y-76289033D01*
X178638200Y-78601649D01*
X178495460Y-78744141D01*
X178346270Y-79103430D01*
X178345931Y-79492463D01*
X178494493Y-79852012D01*
X178769341Y-80127340D01*
X179128630Y-80276530D01*
X179517663Y-80276869D01*
X179877212Y-80128307D01*
X180152540Y-79853459D01*
X180287981Y-79527279D01*
X180348693Y-79674212D01*
X180623541Y-79949540D01*
X180982830Y-80098730D01*
X181371863Y-80099069D01*
X181731412Y-79950507D01*
X182006740Y-79675659D01*
X182155930Y-79316370D01*
X182156269Y-78927337D01*
X182007707Y-78567788D01*
X181889400Y-78449274D01*
X181889400Y-76075690D01*
X182013714Y-76200222D01*
X182410332Y-76364913D01*
X182839784Y-76365287D01*
X183236689Y-76201289D01*
X183540622Y-75897886D01*
X183705313Y-75501268D01*
X183705424Y-75373609D01*
X183936917Y-75142117D01*
X183993358Y-75057646D01*
X184095323Y-75037863D01*
X184308127Y-74898073D01*
X184351537Y-74833762D01*
X184493502Y-74975727D01*
X184726891Y-75072400D01*
X185067450Y-75072400D01*
X185226200Y-74913650D01*
X185226200Y-80503200D01*
X185064400Y-80503200D01*
X185064400Y-80483200D01*
X185064400Y-80229200D01*
X185064400Y-79379950D01*
X184905650Y-79221200D01*
X184692709Y-79221200D01*
X184440090Y-79221200D01*
X184206701Y-79317873D01*
X184028073Y-79496502D01*
X183931400Y-79729891D01*
X183931400Y-80070450D01*
X184090150Y-80229200D01*
X185064400Y-80229200D01*
X185064400Y-80483200D01*
X184090150Y-80483200D01*
X183931400Y-80641950D01*
X183931400Y-80982509D01*
X184017854Y-81191227D01*
X183656816Y-81190913D01*
X183259911Y-81354911D01*
X182955978Y-81658314D01*
X182791287Y-82054932D01*
X182790913Y-82484384D01*
X182954911Y-82881289D01*
X183258314Y-83185222D01*
X183654932Y-83349913D01*
X184084384Y-83350287D01*
X184133608Y-83329947D01*
X184316760Y-83453577D01*
X184365900Y-83463431D01*
X184365900Y-84140994D01*
X184241173Y-84222927D01*
X184098723Y-84433960D01*
X184048660Y-84683600D01*
X184048660Y-85191600D01*
X184065894Y-85280426D01*
X183956337Y-85280331D01*
X183596788Y-85428893D01*
X183321460Y-85703741D01*
X183172270Y-86063030D01*
X183171931Y-86452063D01*
X183320493Y-86811612D01*
X183595341Y-87086940D01*
X183954630Y-87236130D01*
X184048660Y-87236211D01*
X184048660Y-87731600D01*
X184065894Y-87820426D01*
X183956337Y-87820331D01*
X183596788Y-87968893D01*
X183321460Y-88243741D01*
X183172270Y-88603030D01*
X183171931Y-88992063D01*
X183320493Y-89351612D01*
X183595341Y-89626940D01*
X183954630Y-89776130D01*
X184048660Y-89776211D01*
X184048660Y-90271600D01*
X184065902Y-90360470D01*
X183905537Y-90360331D01*
X183545988Y-90508893D01*
X183270660Y-90783741D01*
X183121470Y-91143030D01*
X183121131Y-91532063D01*
X183269693Y-91891612D01*
X183544541Y-92166940D01*
X183903830Y-92316130D01*
X184048660Y-92316256D01*
X184048660Y-92811600D01*
X184095637Y-93053723D01*
X184235427Y-93266527D01*
X184446460Y-93408977D01*
X184696100Y-93459040D01*
X185839100Y-93459040D01*
X186081223Y-93412063D01*
X186221980Y-93319600D01*
X186627805Y-93319600D01*
X186744941Y-93436940D01*
X187104230Y-93586130D01*
X187493263Y-93586469D01*
X187852812Y-93437907D01*
X188128140Y-93163059D01*
X188277330Y-92803770D01*
X188277669Y-92414737D01*
X188129107Y-92055188D01*
X188010800Y-91936674D01*
X188010800Y-87899188D01*
X188285094Y-87624895D01*
X188285094Y-87624894D01*
X188285096Y-87624891D01*
X190457779Y-85452208D01*
X190537125Y-85572996D01*
X190448723Y-85703960D01*
X190398660Y-85953600D01*
X190398660Y-86461600D01*
X190445637Y-86703723D01*
X190537125Y-86842996D01*
X190448723Y-86973960D01*
X190398660Y-87223600D01*
X190398660Y-87731600D01*
X190445637Y-87973723D01*
X190537125Y-88112996D01*
X190448723Y-88243960D01*
X190398660Y-88493600D01*
X190398660Y-89001600D01*
X190445637Y-89243723D01*
X190537125Y-89382996D01*
X190448723Y-89513960D01*
X190398660Y-89763600D01*
X190398660Y-90271600D01*
X190445637Y-90513723D01*
X190537125Y-90652996D01*
X190448723Y-90783960D01*
X190398660Y-91033600D01*
X190398660Y-91541600D01*
X190445637Y-91783723D01*
X190533776Y-91917898D01*
X190507773Y-91943902D01*
X190411100Y-92177291D01*
X190411100Y-92271850D01*
X190569850Y-92430600D01*
X191490600Y-92430600D01*
X191490600Y-92410600D01*
X191744600Y-92410600D01*
X191744600Y-92430600D01*
X192665350Y-92430600D01*
X192824100Y-92271850D01*
X192824100Y-92177291D01*
X192727427Y-91943902D01*
X192701159Y-91917634D01*
X192786477Y-91791240D01*
X192836540Y-91541600D01*
X192836540Y-91033600D01*
X192789563Y-90791477D01*
X192698074Y-90652203D01*
X192786477Y-90521240D01*
X192836540Y-90271600D01*
X192836540Y-89763600D01*
X192789563Y-89521477D01*
X192698074Y-89382203D01*
X192786477Y-89251240D01*
X192836540Y-89001600D01*
X192836540Y-88493600D01*
X192789563Y-88251477D01*
X192698074Y-88112203D01*
X192786477Y-87981240D01*
X192836540Y-87731600D01*
X192836540Y-87223600D01*
X192789563Y-86981477D01*
X192698074Y-86842203D01*
X192786477Y-86711240D01*
X192836540Y-86461600D01*
X192836540Y-85953600D01*
X192789563Y-85711477D01*
X192698074Y-85572203D01*
X192786477Y-85441240D01*
X192836540Y-85191600D01*
X192836540Y-84683600D01*
X192789563Y-84441477D01*
X192649773Y-84228673D01*
X192438740Y-84086223D01*
X192189100Y-84036160D01*
X191488841Y-84036160D01*
X191465200Y-82948671D01*
X191465200Y-80772000D01*
X194462400Y-80772000D01*
X194462400Y-96807473D01*
G36*
X224315000Y-99715000D02*
X224255996Y-99715000D01*
X224255996Y-96905679D01*
X224205196Y-96782733D01*
X224205196Y-52201679D01*
X223858058Y-51361542D01*
X223215839Y-50718201D01*
X222376309Y-50369597D01*
X221467279Y-50368804D01*
X220627142Y-50715942D01*
X219983801Y-51358161D01*
X219635197Y-52197691D01*
X219634404Y-53106721D01*
X219981542Y-53946858D01*
X220623761Y-54590199D01*
X221463291Y-54938803D01*
X222372321Y-54939596D01*
X223212458Y-54592458D01*
X223855799Y-53950239D01*
X224204403Y-53110709D01*
X224205196Y-52201679D01*
X224205196Y-96782733D01*
X223908858Y-96065542D01*
X223774000Y-95930448D01*
X223774000Y-80093145D01*
X223774000Y-80028455D01*
X223648325Y-79396645D01*
X223316800Y-78900482D01*
X223316800Y-63369770D01*
X223316800Y-63117151D01*
X223316800Y-61779150D01*
X223316800Y-61207650D01*
X223316800Y-59869649D01*
X223316800Y-59617030D01*
X223220127Y-59383641D01*
X223041498Y-59205013D01*
X222808109Y-59108340D01*
X221217490Y-59108340D01*
X221058740Y-59267090D01*
X221058740Y-61366400D01*
X223158050Y-61366400D01*
X223316800Y-61207650D01*
X223316800Y-61779150D01*
X223158050Y-61620400D01*
X221058740Y-61620400D01*
X221058740Y-63719710D01*
X221217490Y-63878460D01*
X222808109Y-63878460D01*
X223041498Y-63781787D01*
X223220127Y-63603159D01*
X223316800Y-63369770D01*
X223316800Y-78900482D01*
X223290433Y-78861022D01*
X223285440Y-78857685D01*
X223285440Y-75572000D01*
X223285440Y-73272000D01*
X223283018Y-73259516D01*
X223283018Y-69642337D01*
X223261314Y-68932552D01*
X223031446Y-68377601D01*
X222749025Y-68260581D01*
X222569419Y-68440186D01*
X222569419Y-68080975D01*
X222452399Y-67798554D01*
X221788337Y-67546982D01*
X221078552Y-67568686D01*
X220804740Y-67682102D01*
X220804740Y-63719710D01*
X220804740Y-61620400D01*
X220804740Y-61366400D01*
X220804740Y-59267090D01*
X220645990Y-59108340D01*
X219980067Y-59108340D01*
X220041758Y-59082787D01*
X220220387Y-58904159D01*
X220317060Y-58670770D01*
X220317060Y-58418151D01*
X220317060Y-57080150D01*
X220317060Y-56508650D01*
X220317060Y-55170649D01*
X220317060Y-54918030D01*
X220220387Y-54684641D01*
X220041758Y-54506013D01*
X219808369Y-54409340D01*
X219055383Y-54409340D01*
X219055383Y-52579946D01*
X219055383Y-51814054D01*
X218786588Y-51228621D01*
X218314218Y-50790615D01*
X217832344Y-50591025D01*
X217576400Y-50710164D01*
X217576400Y-52070000D01*
X218936767Y-52070000D01*
X219055383Y-51814054D01*
X219055383Y-52579946D01*
X218936767Y-52324000D01*
X217576400Y-52324000D01*
X217576400Y-53683836D01*
X217832344Y-53802975D01*
X218314218Y-53603385D01*
X218786588Y-53165379D01*
X219055383Y-52579946D01*
X219055383Y-54409340D01*
X218217750Y-54409340D01*
X218059000Y-54568090D01*
X218059000Y-56667400D01*
X220158310Y-56667400D01*
X220317060Y-56508650D01*
X220317060Y-57080150D01*
X220158310Y-56921400D01*
X218059000Y-56921400D01*
X218059000Y-59020710D01*
X218217750Y-59179460D01*
X218883672Y-59179460D01*
X218821982Y-59205013D01*
X218643353Y-59383641D01*
X218546680Y-59617030D01*
X218546680Y-59869649D01*
X218546680Y-61207650D01*
X218705430Y-61366400D01*
X220804740Y-61366400D01*
X220804740Y-61620400D01*
X218705430Y-61620400D01*
X218546680Y-61779150D01*
X218546680Y-63117151D01*
X218546680Y-63369770D01*
X218643353Y-63603159D01*
X218821982Y-63781787D01*
X219055371Y-63878460D01*
X220645990Y-63878460D01*
X220804740Y-63719710D01*
X220804740Y-67682102D01*
X220523601Y-67798554D01*
X220406581Y-68080975D01*
X221488000Y-69162395D01*
X222569419Y-68080975D01*
X222569419Y-68440186D01*
X221667605Y-69342000D01*
X222749025Y-70423419D01*
X223031446Y-70306399D01*
X223283018Y-69642337D01*
X223283018Y-73259516D01*
X223238463Y-73029877D01*
X223098673Y-72817073D01*
X222887640Y-72674623D01*
X222638000Y-72624560D01*
X222569419Y-72624560D01*
X222569419Y-70603025D01*
X221488000Y-69521605D01*
X221308395Y-69701210D01*
X221308395Y-69342000D01*
X220226975Y-68260581D01*
X219944554Y-68377601D01*
X219692982Y-69041663D01*
X219714686Y-69751448D01*
X219944554Y-70306399D01*
X220226975Y-70423419D01*
X221308395Y-69342000D01*
X221308395Y-69701210D01*
X220406581Y-70603025D01*
X220523601Y-70885446D01*
X221187663Y-71137018D01*
X221897448Y-71115314D01*
X222452399Y-70885446D01*
X222569419Y-70603025D01*
X222569419Y-72624560D01*
X220338000Y-72624560D01*
X220095877Y-72671537D01*
X219883073Y-72811327D01*
X219740623Y-73022360D01*
X219690560Y-73272000D01*
X219690560Y-75572000D01*
X219737537Y-75814123D01*
X219877327Y-76026927D01*
X220088360Y-76169377D01*
X220338000Y-76219440D01*
X222638000Y-76219440D01*
X222880123Y-76172463D01*
X223092927Y-76032673D01*
X223235377Y-75821640D01*
X223285440Y-75572000D01*
X223285440Y-78857685D01*
X222754810Y-78503130D01*
X222123000Y-78377455D01*
X221491190Y-78503130D01*
X221151701Y-78729969D01*
X221059673Y-78589873D01*
X220848640Y-78447423D01*
X220599000Y-78397360D01*
X218567000Y-78397360D01*
X218324877Y-78444337D01*
X218112073Y-78584127D01*
X217969623Y-78795160D01*
X217919560Y-79044800D01*
X217919560Y-81076800D01*
X217966537Y-81318923D01*
X218106327Y-81531727D01*
X218317360Y-81674177D01*
X218567000Y-81724240D01*
X220599000Y-81724240D01*
X220841123Y-81677263D01*
X221053927Y-81537473D01*
X221152163Y-81391939D01*
X221491190Y-81618470D01*
X222123000Y-81744145D01*
X222754810Y-81618470D01*
X223290433Y-81260578D01*
X223648325Y-80724955D01*
X223774000Y-80093145D01*
X223774000Y-95930448D01*
X223266639Y-95422201D01*
X222427109Y-95073597D01*
X221518079Y-95072804D01*
X220677942Y-95419942D01*
X220034601Y-96062161D01*
X219685997Y-96901691D01*
X219685204Y-97810721D01*
X220032342Y-98650858D01*
X220674561Y-99294199D01*
X221514091Y-99642803D01*
X222423121Y-99643596D01*
X223263258Y-99296458D01*
X223906599Y-98654239D01*
X224255203Y-97814709D01*
X224255996Y-96905679D01*
X224255996Y-99715000D01*
X219255240Y-99715000D01*
X219255240Y-87758400D01*
X219255240Y-86758400D01*
X219208263Y-86516277D01*
X219068473Y-86303473D01*
X219004162Y-86260062D01*
X219146127Y-86118098D01*
X219242800Y-85884709D01*
X219242800Y-85544150D01*
X219242800Y-84972650D01*
X219242800Y-84632091D01*
X219146127Y-84398702D01*
X218967499Y-84220073D01*
X218734110Y-84123400D01*
X218481491Y-84123400D01*
X218268550Y-84123400D01*
X218109800Y-84282150D01*
X218109800Y-85131400D01*
X219084050Y-85131400D01*
X219242800Y-84972650D01*
X219242800Y-85544150D01*
X219084050Y-85385400D01*
X218109800Y-85385400D01*
X218109800Y-85405400D01*
X217855800Y-85405400D01*
X217855800Y-85385400D01*
X217855800Y-85131400D01*
X217855800Y-84282150D01*
X217805000Y-84231350D01*
X217805000Y-59020710D01*
X217805000Y-56921400D01*
X217805000Y-56667400D01*
X217805000Y-54568090D01*
X217646250Y-54409340D01*
X217322400Y-54409340D01*
X217322400Y-53683836D01*
X217322400Y-52324000D01*
X217302400Y-52324000D01*
X217302400Y-52070000D01*
X217322400Y-52070000D01*
X217322400Y-50710164D01*
X217066456Y-50591025D01*
X216584582Y-50790615D01*
X216487564Y-50880574D01*
X216386073Y-50726073D01*
X216175040Y-50583623D01*
X215925400Y-50533560D01*
X213893400Y-50533560D01*
X213651277Y-50580537D01*
X213438473Y-50720327D01*
X213296023Y-50931360D01*
X213245960Y-51181000D01*
X213245960Y-53213000D01*
X213292937Y-53455123D01*
X213432727Y-53667927D01*
X213643760Y-53810377D01*
X213893400Y-53860440D01*
X215925400Y-53860440D01*
X216167523Y-53813463D01*
X216380327Y-53673673D01*
X216488137Y-53513956D01*
X216584582Y-53603385D01*
X217066456Y-53802975D01*
X217322400Y-53683836D01*
X217322400Y-54409340D01*
X216055631Y-54409340D01*
X215822242Y-54506013D01*
X215643613Y-54684641D01*
X215546940Y-54918030D01*
X215546940Y-55170649D01*
X215546940Y-56508650D01*
X215705690Y-56667400D01*
X217805000Y-56667400D01*
X217805000Y-56921400D01*
X215705690Y-56921400D01*
X215546940Y-57080150D01*
X215546940Y-58418151D01*
X215546940Y-58670770D01*
X215643613Y-58904159D01*
X215822242Y-59082787D01*
X215853899Y-59095900D01*
X213182200Y-59095900D01*
X212940077Y-59142877D01*
X212727273Y-59282667D01*
X212584823Y-59493700D01*
X212534760Y-59743340D01*
X212534760Y-63243460D01*
X212581737Y-63485583D01*
X212721527Y-63698387D01*
X212932560Y-63840837D01*
X213182200Y-63890900D01*
X215072666Y-63890900D01*
X215228300Y-64046533D01*
X215228300Y-64417306D01*
X215098873Y-64502327D01*
X214956423Y-64713360D01*
X214906360Y-64963000D01*
X214906360Y-66863000D01*
X214953337Y-67105123D01*
X215093127Y-67317927D01*
X215304160Y-67460377D01*
X215553800Y-67510440D01*
X216553800Y-67510440D01*
X216795923Y-67463463D01*
X217008727Y-67323673D01*
X217151177Y-67112640D01*
X217201240Y-66863000D01*
X217201240Y-64963000D01*
X217154263Y-64720877D01*
X217014473Y-64508073D01*
X216879300Y-64416829D01*
X216879300Y-63852681D01*
X216924443Y-63843923D01*
X217137247Y-63704133D01*
X217279697Y-63493100D01*
X217329760Y-63243460D01*
X217329760Y-59743340D01*
X217282783Y-59501217D01*
X217142993Y-59288413D01*
X216981584Y-59179460D01*
X217646250Y-59179460D01*
X217805000Y-59020710D01*
X217805000Y-84231350D01*
X217697050Y-84123400D01*
X217484109Y-84123400D01*
X217231490Y-84123400D01*
X216998101Y-84220073D01*
X216819473Y-84398702D01*
X216722800Y-84632091D01*
X216722800Y-84972650D01*
X216881550Y-85131400D01*
X217855800Y-85131400D01*
X217855800Y-85385400D01*
X216881550Y-85385400D01*
X216722800Y-85544150D01*
X216722800Y-85884709D01*
X216819473Y-86118098D01*
X216960950Y-86259576D01*
X216902873Y-86297727D01*
X216811629Y-86432900D01*
X216195405Y-86432900D01*
X216195400Y-86432899D01*
X215879495Y-86495737D01*
X215611683Y-86674683D01*
X215611680Y-86674686D01*
X215367083Y-86919283D01*
X215208601Y-87156467D01*
X215208601Y-70343018D01*
X215184541Y-69693223D01*
X214982165Y-69204642D01*
X214715363Y-69106043D01*
X213742805Y-70078600D01*
X214715363Y-71051157D01*
X214982165Y-70952558D01*
X215208601Y-70343018D01*
X215208601Y-87156467D01*
X215188137Y-87187094D01*
X215125300Y-87503000D01*
X215125300Y-88605235D01*
X214985378Y-88744914D01*
X214820687Y-89141532D01*
X214820313Y-89570984D01*
X214984311Y-89967889D01*
X215074500Y-90058235D01*
X215074500Y-90982800D01*
X215074500Y-91998800D01*
X215074500Y-92288103D01*
X215010778Y-92351714D01*
X214846087Y-92748332D01*
X214845713Y-93177784D01*
X215009711Y-93574689D01*
X215313114Y-93878622D01*
X215709732Y-94043313D01*
X216139184Y-94043687D01*
X216536089Y-93879689D01*
X216680628Y-93735402D01*
X216830748Y-93735402D01*
X216672000Y-93894150D01*
X216672000Y-94234709D01*
X216768673Y-94468098D01*
X216947301Y-94646727D01*
X217180690Y-94743400D01*
X217433309Y-94743400D01*
X217646250Y-94743400D01*
X217805000Y-94584650D01*
X217805000Y-93735400D01*
X217785000Y-93735400D01*
X217785000Y-93481400D01*
X217805000Y-93481400D01*
X217805000Y-93461400D01*
X218059000Y-93461400D01*
X218059000Y-93481400D01*
X219033250Y-93481400D01*
X219192000Y-93322650D01*
X219192000Y-92982091D01*
X219095327Y-92748702D01*
X218953849Y-92607223D01*
X219011927Y-92569073D01*
X219154377Y-92358040D01*
X219204440Y-92108400D01*
X219204440Y-91108400D01*
X219157463Y-90866277D01*
X219017673Y-90653473D01*
X218806640Y-90511023D01*
X218557000Y-90460960D01*
X217307000Y-90460960D01*
X217064877Y-90507937D01*
X216852073Y-90647727D01*
X216760829Y-90782900D01*
X216725500Y-90782900D01*
X216725500Y-90058452D01*
X216814622Y-89969486D01*
X216979313Y-89572868D01*
X216979687Y-89143416D01*
X216815689Y-88746511D01*
X216776300Y-88707053D01*
X216776300Y-88083900D01*
X216812106Y-88083900D01*
X216897127Y-88213327D01*
X217108160Y-88355777D01*
X217357800Y-88405840D01*
X218607800Y-88405840D01*
X218849923Y-88358863D01*
X219062727Y-88219073D01*
X219205177Y-88008040D01*
X219255240Y-87758400D01*
X219255240Y-99715000D01*
X219192000Y-99715000D01*
X219192000Y-94234709D01*
X219192000Y-93894150D01*
X219033250Y-93735400D01*
X218059000Y-93735400D01*
X218059000Y-94584650D01*
X218217750Y-94743400D01*
X218430691Y-94743400D01*
X218683310Y-94743400D01*
X218916699Y-94646727D01*
X219095327Y-94468098D01*
X219192000Y-94234709D01*
X219192000Y-99715000D01*
X217805000Y-99715000D01*
X214535757Y-99715000D01*
X214535757Y-71230763D01*
X213563200Y-70258205D01*
X213549057Y-70272347D01*
X213369452Y-70092742D01*
X213383595Y-70078600D01*
X213369452Y-70064457D01*
X213549057Y-69884852D01*
X213563200Y-69898995D01*
X214535757Y-68926437D01*
X214437158Y-68659635D01*
X214201240Y-68571994D01*
X214201240Y-66863000D01*
X214201240Y-64963000D01*
X214154263Y-64720877D01*
X214014473Y-64508073D01*
X213803440Y-64365623D01*
X213553800Y-64315560D01*
X212553800Y-64315560D01*
X212311677Y-64362537D01*
X212098873Y-64502327D01*
X211956423Y-64713360D01*
X211906360Y-64963000D01*
X211906360Y-65087500D01*
X211830949Y-65087500D01*
X211713873Y-64909273D01*
X211543900Y-64794539D01*
X211543900Y-63842640D01*
X211786023Y-63795663D01*
X211998827Y-63655873D01*
X212141277Y-63444840D01*
X212191340Y-63195200D01*
X212191340Y-60147200D01*
X212144363Y-59905077D01*
X212115400Y-59860986D01*
X212115400Y-58495510D01*
X212115400Y-58242891D01*
X212115400Y-55606950D01*
X212115400Y-55035450D01*
X212115400Y-52399509D01*
X212115400Y-52146890D01*
X212018727Y-51913501D01*
X211840098Y-51734873D01*
X211606709Y-51638200D01*
X208718150Y-51638200D01*
X208559400Y-51796950D01*
X208559400Y-55194200D01*
X211956650Y-55194200D01*
X212115400Y-55035450D01*
X212115400Y-55606950D01*
X211956650Y-55448200D01*
X208559400Y-55448200D01*
X208559400Y-58845450D01*
X208718150Y-59004200D01*
X211606709Y-59004200D01*
X211840098Y-58907527D01*
X212018727Y-58728899D01*
X212115400Y-58495510D01*
X212115400Y-59860986D01*
X212004573Y-59692273D01*
X211793540Y-59549823D01*
X211543900Y-59499760D01*
X209892900Y-59499760D01*
X209650777Y-59546737D01*
X209437973Y-59686527D01*
X209295523Y-59897560D01*
X209245460Y-60147200D01*
X209245460Y-63195200D01*
X209292437Y-63437323D01*
X209432227Y-63650127D01*
X209643260Y-63792577D01*
X209892900Y-63842640D01*
X209892900Y-64841366D01*
X209798273Y-64903527D01*
X209754862Y-64967837D01*
X209612898Y-64825873D01*
X209379509Y-64729200D01*
X209038950Y-64729200D01*
X208880200Y-64887950D01*
X208880200Y-65862200D01*
X208900200Y-65862200D01*
X208900200Y-66116200D01*
X208880200Y-66116200D01*
X208880200Y-67090450D01*
X209038950Y-67249200D01*
X209379509Y-67249200D01*
X209612898Y-67152527D01*
X209754376Y-67011049D01*
X209792527Y-67069127D01*
X210003560Y-67211577D01*
X210253200Y-67261640D01*
X211253200Y-67261640D01*
X211495323Y-67214663D01*
X211708127Y-67074873D01*
X211850577Y-66863840D01*
X211875712Y-66738500D01*
X211906360Y-66738500D01*
X211906360Y-66863000D01*
X211953337Y-67105123D01*
X212093127Y-67317927D01*
X212304160Y-67460377D01*
X212553800Y-67510440D01*
X213553800Y-67510440D01*
X213795923Y-67463463D01*
X214008727Y-67323673D01*
X214151177Y-67112640D01*
X214201240Y-66863000D01*
X214201240Y-68571994D01*
X213827618Y-68433199D01*
X213177823Y-68457259D01*
X212689242Y-68659635D01*
X212623341Y-68837957D01*
X212623153Y-68836987D01*
X212483363Y-68624183D01*
X212272330Y-68481733D01*
X212022690Y-68431670D01*
X210023710Y-68431670D01*
X209781587Y-68478647D01*
X209568783Y-68618437D01*
X209426333Y-68829470D01*
X209376270Y-69079110D01*
X209376270Y-71078090D01*
X209423247Y-71320213D01*
X209563037Y-71533017D01*
X209774070Y-71675467D01*
X210023710Y-71725530D01*
X212022690Y-71725530D01*
X212264813Y-71678553D01*
X212477617Y-71538763D01*
X212620067Y-71327730D01*
X212622322Y-71316484D01*
X212689242Y-71497565D01*
X213298782Y-71724001D01*
X213948577Y-71699941D01*
X214437158Y-71497565D01*
X214535757Y-71230763D01*
X214535757Y-99715000D01*
X213905440Y-99715000D01*
X213905440Y-79748000D01*
X213905440Y-74148000D01*
X213858463Y-73905877D01*
X213718673Y-73693073D01*
X213507640Y-73550623D01*
X213258000Y-73500560D01*
X208626200Y-73500560D01*
X208626200Y-67090450D01*
X208626200Y-66116200D01*
X208626200Y-65862200D01*
X208626200Y-64887950D01*
X208467450Y-64729200D01*
X208305400Y-64729200D01*
X208305400Y-58845450D01*
X208305400Y-55448200D01*
X208305400Y-55194200D01*
X208305400Y-51796950D01*
X208146650Y-51638200D01*
X205258091Y-51638200D01*
X205024702Y-51734873D01*
X204846073Y-51913501D01*
X204749400Y-52146890D01*
X204749400Y-52399509D01*
X204749400Y-55035450D01*
X204908150Y-55194200D01*
X208305400Y-55194200D01*
X208305400Y-55448200D01*
X204908150Y-55448200D01*
X204749400Y-55606950D01*
X204749400Y-58242891D01*
X204749400Y-58495510D01*
X204846073Y-58728899D01*
X205024702Y-58907527D01*
X205258091Y-59004200D01*
X208146650Y-59004200D01*
X208305400Y-58845450D01*
X208305400Y-64729200D01*
X208126891Y-64729200D01*
X207893502Y-64825873D01*
X207714873Y-65004501D01*
X207619340Y-65235137D01*
X207619340Y-63195200D01*
X207619340Y-60147200D01*
X207572363Y-59905077D01*
X207432573Y-59692273D01*
X207221540Y-59549823D01*
X206971900Y-59499760D01*
X205320900Y-59499760D01*
X205078777Y-59546737D01*
X204865973Y-59686527D01*
X204723523Y-59897560D01*
X204673460Y-60147200D01*
X204673460Y-62586306D01*
X203618384Y-63641382D01*
X203618384Y-52558913D01*
X203618384Y-51835087D01*
X203425154Y-51282680D01*
X203035236Y-50846268D01*
X202507991Y-50592291D01*
X202492226Y-50589642D01*
X202260200Y-50710783D01*
X202260200Y-52070000D01*
X203474124Y-52070000D01*
X203618384Y-51835087D01*
X203618384Y-52558913D01*
X203474124Y-52324000D01*
X202260200Y-52324000D01*
X202260200Y-53683217D01*
X202492226Y-53804358D01*
X202507991Y-53801709D01*
X203035236Y-53547732D01*
X203425154Y-53111320D01*
X203618384Y-52558913D01*
X203618384Y-63641382D01*
X203048083Y-64211683D01*
X202869137Y-64479494D01*
X202806300Y-64795400D01*
X202806300Y-66738718D01*
X202769651Y-66753862D01*
X202488685Y-67034337D01*
X202210204Y-66755369D01*
X201667462Y-66530002D01*
X201667462Y-61771828D01*
X201262291Y-60791239D01*
X200512707Y-60040345D01*
X199532827Y-59633464D01*
X198471828Y-59632538D01*
X197491239Y-60037709D01*
X196740345Y-60787293D01*
X196333464Y-61767173D01*
X196332538Y-62828172D01*
X196737709Y-63808761D01*
X197487293Y-64559655D01*
X198467173Y-64966536D01*
X199528172Y-64967462D01*
X200508761Y-64562291D01*
X201259655Y-63812707D01*
X201666536Y-62832827D01*
X201667462Y-61771828D01*
X201667462Y-66530002D01*
X201650272Y-66522865D01*
X201043988Y-66522336D01*
X200483651Y-66753862D01*
X200054569Y-67182196D01*
X199822065Y-67742128D01*
X199821536Y-68348412D01*
X200053062Y-68908749D01*
X200481396Y-69337831D01*
X201041328Y-69570335D01*
X201647612Y-69570864D01*
X202207949Y-69339338D01*
X202488914Y-69058862D01*
X202767396Y-69337831D01*
X203327328Y-69570335D01*
X203933612Y-69570864D01*
X204493949Y-69339338D01*
X204923031Y-68911004D01*
X205155535Y-68351072D01*
X205156064Y-67744788D01*
X204924538Y-67184451D01*
X204496204Y-66755369D01*
X204457300Y-66739214D01*
X204457300Y-65137333D01*
X205751993Y-63842640D01*
X206971900Y-63842640D01*
X207214023Y-63795663D01*
X207426827Y-63655873D01*
X207569277Y-63444840D01*
X207619340Y-63195200D01*
X207619340Y-65235137D01*
X207618200Y-65237890D01*
X207618200Y-65490509D01*
X207618200Y-65703450D01*
X207776950Y-65862200D01*
X208626200Y-65862200D01*
X208626200Y-66116200D01*
X207776950Y-66116200D01*
X207618200Y-66274950D01*
X207618200Y-66487891D01*
X207618200Y-66740510D01*
X207714873Y-66973899D01*
X207893502Y-67152527D01*
X208126891Y-67249200D01*
X208467450Y-67249200D01*
X208626200Y-67090450D01*
X208626200Y-73500560D01*
X208498535Y-73500560D01*
X206443988Y-71446012D01*
X206010883Y-71156621D01*
X205500000Y-71054999D01*
X205499994Y-71055000D01*
X204389103Y-71055000D01*
X204334299Y-71018381D01*
X203766156Y-70905370D01*
X201871844Y-70905370D01*
X201303701Y-71018381D01*
X200822052Y-71340208D01*
X200500225Y-71821857D01*
X200387214Y-72390000D01*
X200500225Y-72958143D01*
X200822052Y-73439792D01*
X201151617Y-73660000D01*
X200822052Y-73880208D01*
X200500225Y-74361857D01*
X200387214Y-74930000D01*
X200500225Y-75498143D01*
X200822052Y-75979792D01*
X201151617Y-76200000D01*
X200822052Y-76420208D01*
X200500225Y-76901857D01*
X200387214Y-77470000D01*
X200500225Y-78038143D01*
X200822052Y-78519792D01*
X201303701Y-78841619D01*
X201871844Y-78954630D01*
X203766156Y-78954630D01*
X204334299Y-78841619D01*
X204815948Y-78519792D01*
X205137775Y-78038143D01*
X205250786Y-77470000D01*
X205137775Y-76901857D01*
X204815948Y-76420208D01*
X204486382Y-76200000D01*
X204815948Y-75979792D01*
X205137775Y-75498143D01*
X205250786Y-74930000D01*
X205137775Y-74361857D01*
X204815948Y-73880208D01*
X204583662Y-73725000D01*
X204947024Y-73725000D01*
X206210560Y-74988535D01*
X206210560Y-79748000D01*
X206257537Y-79990123D01*
X206397327Y-80202927D01*
X206608360Y-80345377D01*
X206858000Y-80395440D01*
X213258000Y-80395440D01*
X213500123Y-80348463D01*
X213712927Y-80208673D01*
X213855377Y-79997640D01*
X213905440Y-79748000D01*
X213905440Y-99715000D01*
X213893000Y-99715000D01*
X213893000Y-96874309D01*
X213893000Y-94533750D01*
X213893000Y-93962250D01*
X213893000Y-91621691D01*
X213796327Y-91388302D01*
X213617699Y-91209673D01*
X213384310Y-91113000D01*
X213131691Y-91113000D01*
X210343750Y-91113000D01*
X210185000Y-91271750D01*
X210185000Y-94121000D01*
X213734250Y-94121000D01*
X213893000Y-93962250D01*
X213893000Y-94533750D01*
X213734250Y-94375000D01*
X210185000Y-94375000D01*
X210185000Y-97224250D01*
X210343750Y-97383000D01*
X213131691Y-97383000D01*
X213384310Y-97383000D01*
X213617699Y-97286327D01*
X213796327Y-97107698D01*
X213893000Y-96874309D01*
X213893000Y-99715000D01*
X209931000Y-99715000D01*
X209931000Y-97224250D01*
X209931000Y-94375000D01*
X209931000Y-94121000D01*
X209931000Y-91271750D01*
X209772250Y-91113000D01*
X206984309Y-91113000D01*
X206731690Y-91113000D01*
X206498301Y-91209673D01*
X206319673Y-91388302D01*
X206223000Y-91621691D01*
X206223000Y-93962250D01*
X206381750Y-94121000D01*
X209931000Y-94121000D01*
X209931000Y-94375000D01*
X206381750Y-94375000D01*
X206223000Y-94533750D01*
X206223000Y-96874309D01*
X206319673Y-97107698D01*
X206498301Y-97286327D01*
X206731690Y-97383000D01*
X206984309Y-97383000D01*
X209772250Y-97383000D01*
X209931000Y-97224250D01*
X209931000Y-99715000D01*
X205880385Y-99715000D01*
X205930240Y-99466400D01*
X205930240Y-97434400D01*
X205883263Y-97192277D01*
X205743473Y-96979473D01*
X205702069Y-96951524D01*
X205702069Y-86140937D01*
X205553507Y-85781388D01*
X205435200Y-85662874D01*
X205435200Y-83958394D01*
X205552540Y-83841259D01*
X205701730Y-83481970D01*
X205702069Y-83092937D01*
X205553507Y-82733388D01*
X205278659Y-82458060D01*
X204919370Y-82308870D01*
X204530337Y-82308531D01*
X204170788Y-82457093D01*
X203895460Y-82731941D01*
X203765348Y-83045283D01*
X203590537Y-83045131D01*
X203230988Y-83193693D01*
X202955660Y-83468541D01*
X202825006Y-83783189D01*
X202468988Y-83930293D01*
X202193660Y-84205141D01*
X202044470Y-84564430D01*
X202044131Y-84953463D01*
X202192693Y-85313012D01*
X202311000Y-85431525D01*
X202311000Y-85662805D01*
X202193660Y-85779941D01*
X202044470Y-86139230D01*
X202044131Y-86528263D01*
X202192693Y-86887812D01*
X202467541Y-87163140D01*
X202826830Y-87312330D01*
X202846741Y-87312347D01*
X202954693Y-87573612D01*
X203229541Y-87848940D01*
X203588830Y-87998130D01*
X203977863Y-87998469D01*
X204337412Y-87849907D01*
X204612740Y-87575059D01*
X204721764Y-87312498D01*
X204917663Y-87312669D01*
X205277212Y-87164107D01*
X205552540Y-86889259D01*
X205701730Y-86529970D01*
X205702069Y-86140937D01*
X205702069Y-96951524D01*
X205532440Y-96837023D01*
X205282800Y-96786960D01*
X203555600Y-96786960D01*
X203313477Y-96833937D01*
X203100673Y-96973727D01*
X202958223Y-97184760D01*
X202950481Y-97223362D01*
X202938870Y-97205985D01*
X202452689Y-96881129D01*
X201879200Y-96767055D01*
X201667462Y-96809172D01*
X201667462Y-87171828D01*
X201262291Y-86191239D01*
X200512707Y-85440345D01*
X199532827Y-85033464D01*
X198471828Y-85032538D01*
X197491239Y-85437709D01*
X196740345Y-86187293D01*
X196597400Y-86531543D01*
X196597400Y-76849710D01*
X196597400Y-76597091D01*
X196597400Y-76384150D01*
X196597400Y-75812650D01*
X196597400Y-75599709D01*
X196597400Y-75347090D01*
X196500727Y-75113701D01*
X196418625Y-75031600D01*
X196500727Y-74949499D01*
X196597400Y-74716110D01*
X196597400Y-74463491D01*
X196597400Y-74250550D01*
X196597400Y-73679050D01*
X196597400Y-73466109D01*
X196597400Y-73213490D01*
X196500727Y-72980101D01*
X196322098Y-72801473D01*
X196088709Y-72704800D01*
X195748150Y-72704800D01*
X195589400Y-72863550D01*
X195589400Y-73837800D01*
X196438650Y-73837800D01*
X196597400Y-73679050D01*
X196597400Y-74250550D01*
X196438650Y-74091800D01*
X195589400Y-74091800D01*
X195589400Y-74997150D01*
X195589400Y-75066050D01*
X195589400Y-75971400D01*
X196438650Y-75971400D01*
X196597400Y-75812650D01*
X196597400Y-76384150D01*
X196438650Y-76225400D01*
X195589400Y-76225400D01*
X195589400Y-77199650D01*
X195748150Y-77358400D01*
X196088709Y-77358400D01*
X196322098Y-77261727D01*
X196500727Y-77083099D01*
X196597400Y-76849710D01*
X196597400Y-86531543D01*
X196333464Y-87167173D01*
X196332538Y-88228172D01*
X196737709Y-89208761D01*
X197487293Y-89959655D01*
X198467173Y-90366536D01*
X199528172Y-90367462D01*
X200508761Y-89962291D01*
X201259655Y-89212707D01*
X201666536Y-88232827D01*
X201667462Y-87171828D01*
X201667462Y-96809172D01*
X201305711Y-96881129D01*
X200819530Y-97205985D01*
X200609200Y-97520765D01*
X200398870Y-97205985D01*
X199912689Y-96881129D01*
X199339200Y-96767055D01*
X198765711Y-96881129D01*
X198279530Y-97205985D01*
X198069200Y-97520765D01*
X197858870Y-97205985D01*
X197372689Y-96881129D01*
X196799200Y-96767055D01*
X196265800Y-96873154D01*
X196265800Y-79121000D01*
X191642083Y-79121000D01*
X191599025Y-73179055D01*
X192314960Y-73894990D01*
X192314960Y-74589800D01*
X192361937Y-74831923D01*
X192493907Y-75032823D01*
X192365023Y-75223760D01*
X192314960Y-75473400D01*
X192314960Y-76723400D01*
X192361937Y-76965523D01*
X192501727Y-77178327D01*
X192712760Y-77320777D01*
X192962400Y-77370840D01*
X193962400Y-77370840D01*
X194204523Y-77323863D01*
X194417327Y-77184073D01*
X194460737Y-77119762D01*
X194602702Y-77261727D01*
X194836091Y-77358400D01*
X195176650Y-77358400D01*
X195335400Y-77199650D01*
X195335400Y-76225400D01*
X195315400Y-76225400D01*
X195315400Y-75971400D01*
X195335400Y-75971400D01*
X195335400Y-75066050D01*
X195335400Y-74997150D01*
X195335400Y-74091800D01*
X195315400Y-74091800D01*
X195315400Y-73837800D01*
X195335400Y-73837800D01*
X195335400Y-72863550D01*
X195176650Y-72704800D01*
X194836091Y-72704800D01*
X194602702Y-72801473D01*
X194461223Y-72942950D01*
X194423073Y-72884873D01*
X194212040Y-72742423D01*
X194005200Y-72700943D01*
X194005200Y-60527510D01*
X194005200Y-60274891D01*
X194005200Y-59416950D01*
X194005200Y-58845450D01*
X194005200Y-57987509D01*
X194005200Y-57734890D01*
X193908527Y-57501501D01*
X193729898Y-57322873D01*
X193496509Y-57226200D01*
X192385950Y-57226200D01*
X192227200Y-57384950D01*
X192227200Y-59004200D01*
X193846450Y-59004200D01*
X194005200Y-58845450D01*
X194005200Y-59416950D01*
X193846450Y-59258200D01*
X192227200Y-59258200D01*
X192227200Y-60877450D01*
X192385950Y-61036200D01*
X193496509Y-61036200D01*
X193729898Y-60939527D01*
X193908527Y-60760899D01*
X194005200Y-60527510D01*
X194005200Y-72700943D01*
X193962400Y-72692360D01*
X193267590Y-72692360D01*
X192733214Y-72157984D01*
X192747713Y-72123068D01*
X192748087Y-71693616D01*
X192584089Y-71296711D01*
X192405000Y-71117309D01*
X192405000Y-69065197D01*
X192583022Y-68887486D01*
X192747713Y-68490868D01*
X192748087Y-68061416D01*
X192584089Y-67664511D01*
X192280686Y-67360578D01*
X191884068Y-67195887D01*
X191681022Y-67195710D01*
X191681269Y-66913137D01*
X191551341Y-66598687D01*
X191516005Y-61722208D01*
X191523226Y-61036200D01*
X191814450Y-61036200D01*
X191973200Y-60877450D01*
X191973200Y-59258200D01*
X191953200Y-59258200D01*
X191953200Y-59004200D01*
X191973200Y-59004200D01*
X191973200Y-57384950D01*
X191814450Y-57226200D01*
X191563331Y-57226200D01*
X191599333Y-53805978D01*
X191973200Y-53880345D01*
X192546689Y-53766271D01*
X193032870Y-53441415D01*
X193243200Y-53126634D01*
X193453530Y-53441415D01*
X193939711Y-53766271D01*
X194513200Y-53880345D01*
X195086689Y-53766271D01*
X195572870Y-53441415D01*
X195783200Y-53126634D01*
X195993530Y-53441415D01*
X196479711Y-53766271D01*
X197053200Y-53880345D01*
X197626689Y-53766271D01*
X198112870Y-53441415D01*
X198323200Y-53126634D01*
X198533530Y-53441415D01*
X199019711Y-53766271D01*
X199593200Y-53880345D01*
X200166689Y-53766271D01*
X200652870Y-53441415D01*
X200859660Y-53131930D01*
X201231164Y-53547732D01*
X201758409Y-53801709D01*
X201774174Y-53804358D01*
X202006200Y-53683217D01*
X202006200Y-52324000D01*
X201986200Y-52324000D01*
X201986200Y-52070000D01*
X202006200Y-52070000D01*
X202006200Y-50710783D01*
X201774174Y-50589642D01*
X201758409Y-50592291D01*
X201231164Y-50846268D01*
X200859660Y-51262069D01*
X200652870Y-50952585D01*
X200166689Y-50627729D01*
X199593200Y-50513655D01*
X199019711Y-50627729D01*
X198533530Y-50952585D01*
X198323200Y-51267365D01*
X198112870Y-50952585D01*
X197626689Y-50627729D01*
X197053200Y-50513655D01*
X196479711Y-50627729D01*
X195993530Y-50952585D01*
X195783200Y-51267365D01*
X195572870Y-50952585D01*
X195086689Y-50627729D01*
X194513200Y-50513655D01*
X193939711Y-50627729D01*
X193453530Y-50952585D01*
X193243200Y-51267365D01*
X193032870Y-50952585D01*
X192546689Y-50627729D01*
X191973200Y-50513655D01*
X191633277Y-50581269D01*
X191636396Y-50285000D01*
X224315000Y-50285000D01*
X224315000Y-99715000D01*
X224315000Y-99715000D01*
G37*
X224315000Y-99715000D02*
X224255996Y-99715000D01*
X224255996Y-96905679D01*
X224205196Y-96782733D01*
X224205196Y-52201679D01*
X223858058Y-51361542D01*
X223215839Y-50718201D01*
X222376309Y-50369597D01*
X221467279Y-50368804D01*
X220627142Y-50715942D01*
X219983801Y-51358161D01*
X219635197Y-52197691D01*
X219634404Y-53106721D01*
X219981542Y-53946858D01*
X220623761Y-54590199D01*
X221463291Y-54938803D01*
X222372321Y-54939596D01*
X223212458Y-54592458D01*
X223855799Y-53950239D01*
X224204403Y-53110709D01*
X224205196Y-52201679D01*
X224205196Y-96782733D01*
X223908858Y-96065542D01*
X223774000Y-95930448D01*
X223774000Y-80093145D01*
X223774000Y-80028455D01*
X223648325Y-79396645D01*
X223316800Y-78900482D01*
X223316800Y-63369770D01*
X223316800Y-63117151D01*
X223316800Y-61779150D01*
X223316800Y-61207650D01*
X223316800Y-59869649D01*
X223316800Y-59617030D01*
X223220127Y-59383641D01*
X223041498Y-59205013D01*
X222808109Y-59108340D01*
X221217490Y-59108340D01*
X221058740Y-59267090D01*
X221058740Y-61366400D01*
X223158050Y-61366400D01*
X223316800Y-61207650D01*
X223316800Y-61779150D01*
X223158050Y-61620400D01*
X221058740Y-61620400D01*
X221058740Y-63719710D01*
X221217490Y-63878460D01*
X222808109Y-63878460D01*
X223041498Y-63781787D01*
X223220127Y-63603159D01*
X223316800Y-63369770D01*
X223316800Y-78900482D01*
X223290433Y-78861022D01*
X223285440Y-78857685D01*
X223285440Y-75572000D01*
X223285440Y-73272000D01*
X223283018Y-73259516D01*
X223283018Y-69642337D01*
X223261314Y-68932552D01*
X223031446Y-68377601D01*
X222749025Y-68260581D01*
X222569419Y-68440186D01*
X222569419Y-68080975D01*
X222452399Y-67798554D01*
X221788337Y-67546982D01*
X221078552Y-67568686D01*
X220804740Y-67682102D01*
X220804740Y-63719710D01*
X220804740Y-61620400D01*
X220804740Y-61366400D01*
X220804740Y-59267090D01*
X220645990Y-59108340D01*
X219980067Y-59108340D01*
X220041758Y-59082787D01*
X220220387Y-58904159D01*
X220317060Y-58670770D01*
X220317060Y-58418151D01*
X220317060Y-57080150D01*
X220317060Y-56508650D01*
X220317060Y-55170649D01*
X220317060Y-54918030D01*
X220220387Y-54684641D01*
X220041758Y-54506013D01*
X219808369Y-54409340D01*
X219055383Y-54409340D01*
X219055383Y-52579946D01*
X219055383Y-51814054D01*
X218786588Y-51228621D01*
X218314218Y-50790615D01*
X217832344Y-50591025D01*
X217576400Y-50710164D01*
X217576400Y-52070000D01*
X218936767Y-52070000D01*
X219055383Y-51814054D01*
X219055383Y-52579946D01*
X218936767Y-52324000D01*
X217576400Y-52324000D01*
X217576400Y-53683836D01*
X217832344Y-53802975D01*
X218314218Y-53603385D01*
X218786588Y-53165379D01*
X219055383Y-52579946D01*
X219055383Y-54409340D01*
X218217750Y-54409340D01*
X218059000Y-54568090D01*
X218059000Y-56667400D01*
X220158310Y-56667400D01*
X220317060Y-56508650D01*
X220317060Y-57080150D01*
X220158310Y-56921400D01*
X218059000Y-56921400D01*
X218059000Y-59020710D01*
X218217750Y-59179460D01*
X218883672Y-59179460D01*
X218821982Y-59205013D01*
X218643353Y-59383641D01*
X218546680Y-59617030D01*
X218546680Y-59869649D01*
X218546680Y-61207650D01*
X218705430Y-61366400D01*
X220804740Y-61366400D01*
X220804740Y-61620400D01*
X218705430Y-61620400D01*
X218546680Y-61779150D01*
X218546680Y-63117151D01*
X218546680Y-63369770D01*
X218643353Y-63603159D01*
X218821982Y-63781787D01*
X219055371Y-63878460D01*
X220645990Y-63878460D01*
X220804740Y-63719710D01*
X220804740Y-67682102D01*
X220523601Y-67798554D01*
X220406581Y-68080975D01*
X221488000Y-69162395D01*
X222569419Y-68080975D01*
X222569419Y-68440186D01*
X221667605Y-69342000D01*
X222749025Y-70423419D01*
X223031446Y-70306399D01*
X223283018Y-69642337D01*
X223283018Y-73259516D01*
X223238463Y-73029877D01*
X223098673Y-72817073D01*
X222887640Y-72674623D01*
X222638000Y-72624560D01*
X222569419Y-72624560D01*
X222569419Y-70603025D01*
X221488000Y-69521605D01*
X221308395Y-69701210D01*
X221308395Y-69342000D01*
X220226975Y-68260581D01*
X219944554Y-68377601D01*
X219692982Y-69041663D01*
X219714686Y-69751448D01*
X219944554Y-70306399D01*
X220226975Y-70423419D01*
X221308395Y-69342000D01*
X221308395Y-69701210D01*
X220406581Y-70603025D01*
X220523601Y-70885446D01*
X221187663Y-71137018D01*
X221897448Y-71115314D01*
X222452399Y-70885446D01*
X222569419Y-70603025D01*
X222569419Y-72624560D01*
X220338000Y-72624560D01*
X220095877Y-72671537D01*
X219883073Y-72811327D01*
X219740623Y-73022360D01*
X219690560Y-73272000D01*
X219690560Y-75572000D01*
X219737537Y-75814123D01*
X219877327Y-76026927D01*
X220088360Y-76169377D01*
X220338000Y-76219440D01*
X222638000Y-76219440D01*
X222880123Y-76172463D01*
X223092927Y-76032673D01*
X223235377Y-75821640D01*
X223285440Y-75572000D01*
X223285440Y-78857685D01*
X222754810Y-78503130D01*
X222123000Y-78377455D01*
X221491190Y-78503130D01*
X221151701Y-78729969D01*
X221059673Y-78589873D01*
X220848640Y-78447423D01*
X220599000Y-78397360D01*
X218567000Y-78397360D01*
X218324877Y-78444337D01*
X218112073Y-78584127D01*
X217969623Y-78795160D01*
X217919560Y-79044800D01*
X217919560Y-81076800D01*
X217966537Y-81318923D01*
X218106327Y-81531727D01*
X218317360Y-81674177D01*
X218567000Y-81724240D01*
X220599000Y-81724240D01*
X220841123Y-81677263D01*
X221053927Y-81537473D01*
X221152163Y-81391939D01*
X221491190Y-81618470D01*
X222123000Y-81744145D01*
X222754810Y-81618470D01*
X223290433Y-81260578D01*
X223648325Y-80724955D01*
X223774000Y-80093145D01*
X223774000Y-95930448D01*
X223266639Y-95422201D01*
X222427109Y-95073597D01*
X221518079Y-95072804D01*
X220677942Y-95419942D01*
X220034601Y-96062161D01*
X219685997Y-96901691D01*
X219685204Y-97810721D01*
X220032342Y-98650858D01*
X220674561Y-99294199D01*
X221514091Y-99642803D01*
X222423121Y-99643596D01*
X223263258Y-99296458D01*
X223906599Y-98654239D01*
X224255203Y-97814709D01*
X224255996Y-96905679D01*
X224255996Y-99715000D01*
X219255240Y-99715000D01*
X219255240Y-87758400D01*
X219255240Y-86758400D01*
X219208263Y-86516277D01*
X219068473Y-86303473D01*
X219004162Y-86260062D01*
X219146127Y-86118098D01*
X219242800Y-85884709D01*
X219242800Y-85544150D01*
X219242800Y-84972650D01*
X219242800Y-84632091D01*
X219146127Y-84398702D01*
X218967499Y-84220073D01*
X218734110Y-84123400D01*
X218481491Y-84123400D01*
X218268550Y-84123400D01*
X218109800Y-84282150D01*
X218109800Y-85131400D01*
X219084050Y-85131400D01*
X219242800Y-84972650D01*
X219242800Y-85544150D01*
X219084050Y-85385400D01*
X218109800Y-85385400D01*
X218109800Y-85405400D01*
X217855800Y-85405400D01*
X217855800Y-85385400D01*
X217855800Y-85131400D01*
X217855800Y-84282150D01*
X217805000Y-84231350D01*
X217805000Y-59020710D01*
X217805000Y-56921400D01*
X217805000Y-56667400D01*
X217805000Y-54568090D01*
X217646250Y-54409340D01*
X217322400Y-54409340D01*
X217322400Y-53683836D01*
X217322400Y-52324000D01*
X217302400Y-52324000D01*
X217302400Y-52070000D01*
X217322400Y-52070000D01*
X217322400Y-50710164D01*
X217066456Y-50591025D01*
X216584582Y-50790615D01*
X216487564Y-50880574D01*
X216386073Y-50726073D01*
X216175040Y-50583623D01*
X215925400Y-50533560D01*
X213893400Y-50533560D01*
X213651277Y-50580537D01*
X213438473Y-50720327D01*
X213296023Y-50931360D01*
X213245960Y-51181000D01*
X213245960Y-53213000D01*
X213292937Y-53455123D01*
X213432727Y-53667927D01*
X213643760Y-53810377D01*
X213893400Y-53860440D01*
X215925400Y-53860440D01*
X216167523Y-53813463D01*
X216380327Y-53673673D01*
X216488137Y-53513956D01*
X216584582Y-53603385D01*
X217066456Y-53802975D01*
X217322400Y-53683836D01*
X217322400Y-54409340D01*
X216055631Y-54409340D01*
X215822242Y-54506013D01*
X215643613Y-54684641D01*
X215546940Y-54918030D01*
X215546940Y-55170649D01*
X215546940Y-56508650D01*
X215705690Y-56667400D01*
X217805000Y-56667400D01*
X217805000Y-56921400D01*
X215705690Y-56921400D01*
X215546940Y-57080150D01*
X215546940Y-58418151D01*
X215546940Y-58670770D01*
X215643613Y-58904159D01*
X215822242Y-59082787D01*
X215853899Y-59095900D01*
X213182200Y-59095900D01*
X212940077Y-59142877D01*
X212727273Y-59282667D01*
X212584823Y-59493700D01*
X212534760Y-59743340D01*
X212534760Y-63243460D01*
X212581737Y-63485583D01*
X212721527Y-63698387D01*
X212932560Y-63840837D01*
X213182200Y-63890900D01*
X215072666Y-63890900D01*
X215228300Y-64046533D01*
X215228300Y-64417306D01*
X215098873Y-64502327D01*
X214956423Y-64713360D01*
X214906360Y-64963000D01*
X214906360Y-66863000D01*
X214953337Y-67105123D01*
X215093127Y-67317927D01*
X215304160Y-67460377D01*
X215553800Y-67510440D01*
X216553800Y-67510440D01*
X216795923Y-67463463D01*
X217008727Y-67323673D01*
X217151177Y-67112640D01*
X217201240Y-66863000D01*
X217201240Y-64963000D01*
X217154263Y-64720877D01*
X217014473Y-64508073D01*
X216879300Y-64416829D01*
X216879300Y-63852681D01*
X216924443Y-63843923D01*
X217137247Y-63704133D01*
X217279697Y-63493100D01*
X217329760Y-63243460D01*
X217329760Y-59743340D01*
X217282783Y-59501217D01*
X217142993Y-59288413D01*
X216981584Y-59179460D01*
X217646250Y-59179460D01*
X217805000Y-59020710D01*
X217805000Y-84231350D01*
X217697050Y-84123400D01*
X217484109Y-84123400D01*
X217231490Y-84123400D01*
X216998101Y-84220073D01*
X216819473Y-84398702D01*
X216722800Y-84632091D01*
X216722800Y-84972650D01*
X216881550Y-85131400D01*
X217855800Y-85131400D01*
X217855800Y-85385400D01*
X216881550Y-85385400D01*
X216722800Y-85544150D01*
X216722800Y-85884709D01*
X216819473Y-86118098D01*
X216960950Y-86259576D01*
X216902873Y-86297727D01*
X216811629Y-86432900D01*
X216195405Y-86432900D01*
X216195400Y-86432899D01*
X215879495Y-86495737D01*
X215611683Y-86674683D01*
X215611680Y-86674686D01*
X215367083Y-86919283D01*
X215208601Y-87156467D01*
X215208601Y-70343018D01*
X215184541Y-69693223D01*
X214982165Y-69204642D01*
X214715363Y-69106043D01*
X213742805Y-70078600D01*
X214715363Y-71051157D01*
X214982165Y-70952558D01*
X215208601Y-70343018D01*
X215208601Y-87156467D01*
X215188137Y-87187094D01*
X215125300Y-87503000D01*
X215125300Y-88605235D01*
X214985378Y-88744914D01*
X214820687Y-89141532D01*
X214820313Y-89570984D01*
X214984311Y-89967889D01*
X215074500Y-90058235D01*
X215074500Y-90982800D01*
X215074500Y-91998800D01*
X215074500Y-92288103D01*
X215010778Y-92351714D01*
X214846087Y-92748332D01*
X214845713Y-93177784D01*
X215009711Y-93574689D01*
X215313114Y-93878622D01*
X215709732Y-94043313D01*
X216139184Y-94043687D01*
X216536089Y-93879689D01*
X216680628Y-93735402D01*
X216830748Y-93735402D01*
X216672000Y-93894150D01*
X216672000Y-94234709D01*
X216768673Y-94468098D01*
X216947301Y-94646727D01*
X217180690Y-94743400D01*
X217433309Y-94743400D01*
X217646250Y-94743400D01*
X217805000Y-94584650D01*
X217805000Y-93735400D01*
X217785000Y-93735400D01*
X217785000Y-93481400D01*
X217805000Y-93481400D01*
X217805000Y-93461400D01*
X218059000Y-93461400D01*
X218059000Y-93481400D01*
X219033250Y-93481400D01*
X219192000Y-93322650D01*
X219192000Y-92982091D01*
X219095327Y-92748702D01*
X218953849Y-92607223D01*
X219011927Y-92569073D01*
X219154377Y-92358040D01*
X219204440Y-92108400D01*
X219204440Y-91108400D01*
X219157463Y-90866277D01*
X219017673Y-90653473D01*
X218806640Y-90511023D01*
X218557000Y-90460960D01*
X217307000Y-90460960D01*
X217064877Y-90507937D01*
X216852073Y-90647727D01*
X216760829Y-90782900D01*
X216725500Y-90782900D01*
X216725500Y-90058452D01*
X216814622Y-89969486D01*
X216979313Y-89572868D01*
X216979687Y-89143416D01*
X216815689Y-88746511D01*
X216776300Y-88707053D01*
X216776300Y-88083900D01*
X216812106Y-88083900D01*
X216897127Y-88213327D01*
X217108160Y-88355777D01*
X217357800Y-88405840D01*
X218607800Y-88405840D01*
X218849923Y-88358863D01*
X219062727Y-88219073D01*
X219205177Y-88008040D01*
X219255240Y-87758400D01*
X219255240Y-99715000D01*
X219192000Y-99715000D01*
X219192000Y-94234709D01*
X219192000Y-93894150D01*
X219033250Y-93735400D01*
X218059000Y-93735400D01*
X218059000Y-94584650D01*
X218217750Y-94743400D01*
X218430691Y-94743400D01*
X218683310Y-94743400D01*
X218916699Y-94646727D01*
X219095327Y-94468098D01*
X219192000Y-94234709D01*
X219192000Y-99715000D01*
X217805000Y-99715000D01*
X214535757Y-99715000D01*
X214535757Y-71230763D01*
X213563200Y-70258205D01*
X213549057Y-70272347D01*
X213369452Y-70092742D01*
X213383595Y-70078600D01*
X213369452Y-70064457D01*
X213549057Y-69884852D01*
X213563200Y-69898995D01*
X214535757Y-68926437D01*
X214437158Y-68659635D01*
X214201240Y-68571994D01*
X214201240Y-66863000D01*
X214201240Y-64963000D01*
X214154263Y-64720877D01*
X214014473Y-64508073D01*
X213803440Y-64365623D01*
X213553800Y-64315560D01*
X212553800Y-64315560D01*
X212311677Y-64362537D01*
X212098873Y-64502327D01*
X211956423Y-64713360D01*
X211906360Y-64963000D01*
X211906360Y-65087500D01*
X211830949Y-65087500D01*
X211713873Y-64909273D01*
X211543900Y-64794539D01*
X211543900Y-63842640D01*
X211786023Y-63795663D01*
X211998827Y-63655873D01*
X212141277Y-63444840D01*
X212191340Y-63195200D01*
X212191340Y-60147200D01*
X212144363Y-59905077D01*
X212115400Y-59860986D01*
X212115400Y-58495510D01*
X212115400Y-58242891D01*
X212115400Y-55606950D01*
X212115400Y-55035450D01*
X212115400Y-52399509D01*
X212115400Y-52146890D01*
X212018727Y-51913501D01*
X211840098Y-51734873D01*
X211606709Y-51638200D01*
X208718150Y-51638200D01*
X208559400Y-51796950D01*
X208559400Y-55194200D01*
X211956650Y-55194200D01*
X212115400Y-55035450D01*
X212115400Y-55606950D01*
X211956650Y-55448200D01*
X208559400Y-55448200D01*
X208559400Y-58845450D01*
X208718150Y-59004200D01*
X211606709Y-59004200D01*
X211840098Y-58907527D01*
X212018727Y-58728899D01*
X212115400Y-58495510D01*
X212115400Y-59860986D01*
X212004573Y-59692273D01*
X211793540Y-59549823D01*
X211543900Y-59499760D01*
X209892900Y-59499760D01*
X209650777Y-59546737D01*
X209437973Y-59686527D01*
X209295523Y-59897560D01*
X209245460Y-60147200D01*
X209245460Y-63195200D01*
X209292437Y-63437323D01*
X209432227Y-63650127D01*
X209643260Y-63792577D01*
X209892900Y-63842640D01*
X209892900Y-64841366D01*
X209798273Y-64903527D01*
X209754862Y-64967837D01*
X209612898Y-64825873D01*
X209379509Y-64729200D01*
X209038950Y-64729200D01*
X208880200Y-64887950D01*
X208880200Y-65862200D01*
X208900200Y-65862200D01*
X208900200Y-66116200D01*
X208880200Y-66116200D01*
X208880200Y-67090450D01*
X209038950Y-67249200D01*
X209379509Y-67249200D01*
X209612898Y-67152527D01*
X209754376Y-67011049D01*
X209792527Y-67069127D01*
X210003560Y-67211577D01*
X210253200Y-67261640D01*
X211253200Y-67261640D01*
X211495323Y-67214663D01*
X211708127Y-67074873D01*
X211850577Y-66863840D01*
X211875712Y-66738500D01*
X211906360Y-66738500D01*
X211906360Y-66863000D01*
X211953337Y-67105123D01*
X212093127Y-67317927D01*
X212304160Y-67460377D01*
X212553800Y-67510440D01*
X213553800Y-67510440D01*
X213795923Y-67463463D01*
X214008727Y-67323673D01*
X214151177Y-67112640D01*
X214201240Y-66863000D01*
X214201240Y-68571994D01*
X213827618Y-68433199D01*
X213177823Y-68457259D01*
X212689242Y-68659635D01*
X212623341Y-68837957D01*
X212623153Y-68836987D01*
X212483363Y-68624183D01*
X212272330Y-68481733D01*
X212022690Y-68431670D01*
X210023710Y-68431670D01*
X209781587Y-68478647D01*
X209568783Y-68618437D01*
X209426333Y-68829470D01*
X209376270Y-69079110D01*
X209376270Y-71078090D01*
X209423247Y-71320213D01*
X209563037Y-71533017D01*
X209774070Y-71675467D01*
X210023710Y-71725530D01*
X212022690Y-71725530D01*
X212264813Y-71678553D01*
X212477617Y-71538763D01*
X212620067Y-71327730D01*
X212622322Y-71316484D01*
X212689242Y-71497565D01*
X213298782Y-71724001D01*
X213948577Y-71699941D01*
X214437158Y-71497565D01*
X214535757Y-71230763D01*
X214535757Y-99715000D01*
X213905440Y-99715000D01*
X213905440Y-79748000D01*
X213905440Y-74148000D01*
X213858463Y-73905877D01*
X213718673Y-73693073D01*
X213507640Y-73550623D01*
X213258000Y-73500560D01*
X208626200Y-73500560D01*
X208626200Y-67090450D01*
X208626200Y-66116200D01*
X208626200Y-65862200D01*
X208626200Y-64887950D01*
X208467450Y-64729200D01*
X208305400Y-64729200D01*
X208305400Y-58845450D01*
X208305400Y-55448200D01*
X208305400Y-55194200D01*
X208305400Y-51796950D01*
X208146650Y-51638200D01*
X205258091Y-51638200D01*
X205024702Y-51734873D01*
X204846073Y-51913501D01*
X204749400Y-52146890D01*
X204749400Y-52399509D01*
X204749400Y-55035450D01*
X204908150Y-55194200D01*
X208305400Y-55194200D01*
X208305400Y-55448200D01*
X204908150Y-55448200D01*
X204749400Y-55606950D01*
X204749400Y-58242891D01*
X204749400Y-58495510D01*
X204846073Y-58728899D01*
X205024702Y-58907527D01*
X205258091Y-59004200D01*
X208146650Y-59004200D01*
X208305400Y-58845450D01*
X208305400Y-64729200D01*
X208126891Y-64729200D01*
X207893502Y-64825873D01*
X207714873Y-65004501D01*
X207619340Y-65235137D01*
X207619340Y-63195200D01*
X207619340Y-60147200D01*
X207572363Y-59905077D01*
X207432573Y-59692273D01*
X207221540Y-59549823D01*
X206971900Y-59499760D01*
X205320900Y-59499760D01*
X205078777Y-59546737D01*
X204865973Y-59686527D01*
X204723523Y-59897560D01*
X204673460Y-60147200D01*
X204673460Y-62586306D01*
X203618384Y-63641382D01*
X203618384Y-52558913D01*
X203618384Y-51835087D01*
X203425154Y-51282680D01*
X203035236Y-50846268D01*
X202507991Y-50592291D01*
X202492226Y-50589642D01*
X202260200Y-50710783D01*
X202260200Y-52070000D01*
X203474124Y-52070000D01*
X203618384Y-51835087D01*
X203618384Y-52558913D01*
X203474124Y-52324000D01*
X202260200Y-52324000D01*
X202260200Y-53683217D01*
X202492226Y-53804358D01*
X202507991Y-53801709D01*
X203035236Y-53547732D01*
X203425154Y-53111320D01*
X203618384Y-52558913D01*
X203618384Y-63641382D01*
X203048083Y-64211683D01*
X202869137Y-64479494D01*
X202806300Y-64795400D01*
X202806300Y-66738718D01*
X202769651Y-66753862D01*
X202488685Y-67034337D01*
X202210204Y-66755369D01*
X201667462Y-66530002D01*
X201667462Y-61771828D01*
X201262291Y-60791239D01*
X200512707Y-60040345D01*
X199532827Y-59633464D01*
X198471828Y-59632538D01*
X197491239Y-60037709D01*
X196740345Y-60787293D01*
X196333464Y-61767173D01*
X196332538Y-62828172D01*
X196737709Y-63808761D01*
X197487293Y-64559655D01*
X198467173Y-64966536D01*
X199528172Y-64967462D01*
X200508761Y-64562291D01*
X201259655Y-63812707D01*
X201666536Y-62832827D01*
X201667462Y-61771828D01*
X201667462Y-66530002D01*
X201650272Y-66522865D01*
X201043988Y-66522336D01*
X200483651Y-66753862D01*
X200054569Y-67182196D01*
X199822065Y-67742128D01*
X199821536Y-68348412D01*
X200053062Y-68908749D01*
X200481396Y-69337831D01*
X201041328Y-69570335D01*
X201647612Y-69570864D01*
X202207949Y-69339338D01*
X202488914Y-69058862D01*
X202767396Y-69337831D01*
X203327328Y-69570335D01*
X203933612Y-69570864D01*
X204493949Y-69339338D01*
X204923031Y-68911004D01*
X205155535Y-68351072D01*
X205156064Y-67744788D01*
X204924538Y-67184451D01*
X204496204Y-66755369D01*
X204457300Y-66739214D01*
X204457300Y-65137333D01*
X205751993Y-63842640D01*
X206971900Y-63842640D01*
X207214023Y-63795663D01*
X207426827Y-63655873D01*
X207569277Y-63444840D01*
X207619340Y-63195200D01*
X207619340Y-65235137D01*
X207618200Y-65237890D01*
X207618200Y-65490509D01*
X207618200Y-65703450D01*
X207776950Y-65862200D01*
X208626200Y-65862200D01*
X208626200Y-66116200D01*
X207776950Y-66116200D01*
X207618200Y-66274950D01*
X207618200Y-66487891D01*
X207618200Y-66740510D01*
X207714873Y-66973899D01*
X207893502Y-67152527D01*
X208126891Y-67249200D01*
X208467450Y-67249200D01*
X208626200Y-67090450D01*
X208626200Y-73500560D01*
X208498535Y-73500560D01*
X206443988Y-71446012D01*
X206010883Y-71156621D01*
X205500000Y-71054999D01*
X205499994Y-71055000D01*
X204389103Y-71055000D01*
X204334299Y-71018381D01*
X203766156Y-70905370D01*
X201871844Y-70905370D01*
X201303701Y-71018381D01*
X200822052Y-71340208D01*
X200500225Y-71821857D01*
X200387214Y-72390000D01*
X200500225Y-72958143D01*
X200822052Y-73439792D01*
X201151617Y-73660000D01*
X200822052Y-73880208D01*
X200500225Y-74361857D01*
X200387214Y-74930000D01*
X200500225Y-75498143D01*
X200822052Y-75979792D01*
X201151617Y-76200000D01*
X200822052Y-76420208D01*
X200500225Y-76901857D01*
X200387214Y-77470000D01*
X200500225Y-78038143D01*
X200822052Y-78519792D01*
X201303701Y-78841619D01*
X201871844Y-78954630D01*
X203766156Y-78954630D01*
X204334299Y-78841619D01*
X204815948Y-78519792D01*
X205137775Y-78038143D01*
X205250786Y-77470000D01*
X205137775Y-76901857D01*
X204815948Y-76420208D01*
X204486382Y-76200000D01*
X204815948Y-75979792D01*
X205137775Y-75498143D01*
X205250786Y-74930000D01*
X205137775Y-74361857D01*
X204815948Y-73880208D01*
X204583662Y-73725000D01*
X204947024Y-73725000D01*
X206210560Y-74988535D01*
X206210560Y-79748000D01*
X206257537Y-79990123D01*
X206397327Y-80202927D01*
X206608360Y-80345377D01*
X206858000Y-80395440D01*
X213258000Y-80395440D01*
X213500123Y-80348463D01*
X213712927Y-80208673D01*
X213855377Y-79997640D01*
X213905440Y-79748000D01*
X213905440Y-99715000D01*
X213893000Y-99715000D01*
X213893000Y-96874309D01*
X213893000Y-94533750D01*
X213893000Y-93962250D01*
X213893000Y-91621691D01*
X213796327Y-91388302D01*
X213617699Y-91209673D01*
X213384310Y-91113000D01*
X213131691Y-91113000D01*
X210343750Y-91113000D01*
X210185000Y-91271750D01*
X210185000Y-94121000D01*
X213734250Y-94121000D01*
X213893000Y-93962250D01*
X213893000Y-94533750D01*
X213734250Y-94375000D01*
X210185000Y-94375000D01*
X210185000Y-97224250D01*
X210343750Y-97383000D01*
X213131691Y-97383000D01*
X213384310Y-97383000D01*
X213617699Y-97286327D01*
X213796327Y-97107698D01*
X213893000Y-96874309D01*
X213893000Y-99715000D01*
X209931000Y-99715000D01*
X209931000Y-97224250D01*
X209931000Y-94375000D01*
X209931000Y-94121000D01*
X209931000Y-91271750D01*
X209772250Y-91113000D01*
X206984309Y-91113000D01*
X206731690Y-91113000D01*
X206498301Y-91209673D01*
X206319673Y-91388302D01*
X206223000Y-91621691D01*
X206223000Y-93962250D01*
X206381750Y-94121000D01*
X209931000Y-94121000D01*
X209931000Y-94375000D01*
X206381750Y-94375000D01*
X206223000Y-94533750D01*
X206223000Y-96874309D01*
X206319673Y-97107698D01*
X206498301Y-97286327D01*
X206731690Y-97383000D01*
X206984309Y-97383000D01*
X209772250Y-97383000D01*
X209931000Y-97224250D01*
X209931000Y-99715000D01*
X205880385Y-99715000D01*
X205930240Y-99466400D01*
X205930240Y-97434400D01*
X205883263Y-97192277D01*
X205743473Y-96979473D01*
X205702069Y-96951524D01*
X205702069Y-86140937D01*
X205553507Y-85781388D01*
X205435200Y-85662874D01*
X205435200Y-83958394D01*
X205552540Y-83841259D01*
X205701730Y-83481970D01*
X205702069Y-83092937D01*
X205553507Y-82733388D01*
X205278659Y-82458060D01*
X204919370Y-82308870D01*
X204530337Y-82308531D01*
X204170788Y-82457093D01*
X203895460Y-82731941D01*
X203765348Y-83045283D01*
X203590537Y-83045131D01*
X203230988Y-83193693D01*
X202955660Y-83468541D01*
X202825006Y-83783189D01*
X202468988Y-83930293D01*
X202193660Y-84205141D01*
X202044470Y-84564430D01*
X202044131Y-84953463D01*
X202192693Y-85313012D01*
X202311000Y-85431525D01*
X202311000Y-85662805D01*
X202193660Y-85779941D01*
X202044470Y-86139230D01*
X202044131Y-86528263D01*
X202192693Y-86887812D01*
X202467541Y-87163140D01*
X202826830Y-87312330D01*
X202846741Y-87312347D01*
X202954693Y-87573612D01*
X203229541Y-87848940D01*
X203588830Y-87998130D01*
X203977863Y-87998469D01*
X204337412Y-87849907D01*
X204612740Y-87575059D01*
X204721764Y-87312498D01*
X204917663Y-87312669D01*
X205277212Y-87164107D01*
X205552540Y-86889259D01*
X205701730Y-86529970D01*
X205702069Y-86140937D01*
X205702069Y-96951524D01*
X205532440Y-96837023D01*
X205282800Y-96786960D01*
X203555600Y-96786960D01*
X203313477Y-96833937D01*
X203100673Y-96973727D01*
X202958223Y-97184760D01*
X202950481Y-97223362D01*
X202938870Y-97205985D01*
X202452689Y-96881129D01*
X201879200Y-96767055D01*
X201667462Y-96809172D01*
X201667462Y-87171828D01*
X201262291Y-86191239D01*
X200512707Y-85440345D01*
X199532827Y-85033464D01*
X198471828Y-85032538D01*
X197491239Y-85437709D01*
X196740345Y-86187293D01*
X196597400Y-86531543D01*
X196597400Y-76849710D01*
X196597400Y-76597091D01*
X196597400Y-76384150D01*
X196597400Y-75812650D01*
X196597400Y-75599709D01*
X196597400Y-75347090D01*
X196500727Y-75113701D01*
X196418625Y-75031600D01*
X196500727Y-74949499D01*
X196597400Y-74716110D01*
X196597400Y-74463491D01*
X196597400Y-74250550D01*
X196597400Y-73679050D01*
X196597400Y-73466109D01*
X196597400Y-73213490D01*
X196500727Y-72980101D01*
X196322098Y-72801473D01*
X196088709Y-72704800D01*
X195748150Y-72704800D01*
X195589400Y-72863550D01*
X195589400Y-73837800D01*
X196438650Y-73837800D01*
X196597400Y-73679050D01*
X196597400Y-74250550D01*
X196438650Y-74091800D01*
X195589400Y-74091800D01*
X195589400Y-74997150D01*
X195589400Y-75066050D01*
X195589400Y-75971400D01*
X196438650Y-75971400D01*
X196597400Y-75812650D01*
X196597400Y-76384150D01*
X196438650Y-76225400D01*
X195589400Y-76225400D01*
X195589400Y-77199650D01*
X195748150Y-77358400D01*
X196088709Y-77358400D01*
X196322098Y-77261727D01*
X196500727Y-77083099D01*
X196597400Y-76849710D01*
X196597400Y-86531543D01*
X196333464Y-87167173D01*
X196332538Y-88228172D01*
X196737709Y-89208761D01*
X197487293Y-89959655D01*
X198467173Y-90366536D01*
X199528172Y-90367462D01*
X200508761Y-89962291D01*
X201259655Y-89212707D01*
X201666536Y-88232827D01*
X201667462Y-87171828D01*
X201667462Y-96809172D01*
X201305711Y-96881129D01*
X200819530Y-97205985D01*
X200609200Y-97520765D01*
X200398870Y-97205985D01*
X199912689Y-96881129D01*
X199339200Y-96767055D01*
X198765711Y-96881129D01*
X198279530Y-97205985D01*
X198069200Y-97520765D01*
X197858870Y-97205985D01*
X197372689Y-96881129D01*
X196799200Y-96767055D01*
X196265800Y-96873154D01*
X196265800Y-79121000D01*
X191642083Y-79121000D01*
X191599025Y-73179055D01*
X192314960Y-73894990D01*
X192314960Y-74589800D01*
X192361937Y-74831923D01*
X192493907Y-75032823D01*
X192365023Y-75223760D01*
X192314960Y-75473400D01*
X192314960Y-76723400D01*
X192361937Y-76965523D01*
X192501727Y-77178327D01*
X192712760Y-77320777D01*
X192962400Y-77370840D01*
X193962400Y-77370840D01*
X194204523Y-77323863D01*
X194417327Y-77184073D01*
X194460737Y-77119762D01*
X194602702Y-77261727D01*
X194836091Y-77358400D01*
X195176650Y-77358400D01*
X195335400Y-77199650D01*
X195335400Y-76225400D01*
X195315400Y-76225400D01*
X195315400Y-75971400D01*
X195335400Y-75971400D01*
X195335400Y-75066050D01*
X195335400Y-74997150D01*
X195335400Y-74091800D01*
X195315400Y-74091800D01*
X195315400Y-73837800D01*
X195335400Y-73837800D01*
X195335400Y-72863550D01*
X195176650Y-72704800D01*
X194836091Y-72704800D01*
X194602702Y-72801473D01*
X194461223Y-72942950D01*
X194423073Y-72884873D01*
X194212040Y-72742423D01*
X194005200Y-72700943D01*
X194005200Y-60527510D01*
X194005200Y-60274891D01*
X194005200Y-59416950D01*
X194005200Y-58845450D01*
X194005200Y-57987509D01*
X194005200Y-57734890D01*
X193908527Y-57501501D01*
X193729898Y-57322873D01*
X193496509Y-57226200D01*
X192385950Y-57226200D01*
X192227200Y-57384950D01*
X192227200Y-59004200D01*
X193846450Y-59004200D01*
X194005200Y-58845450D01*
X194005200Y-59416950D01*
X193846450Y-59258200D01*
X192227200Y-59258200D01*
X192227200Y-60877450D01*
X192385950Y-61036200D01*
X193496509Y-61036200D01*
X193729898Y-60939527D01*
X193908527Y-60760899D01*
X194005200Y-60527510D01*
X194005200Y-72700943D01*
X193962400Y-72692360D01*
X193267590Y-72692360D01*
X192733214Y-72157984D01*
X192747713Y-72123068D01*
X192748087Y-71693616D01*
X192584089Y-71296711D01*
X192405000Y-71117309D01*
X192405000Y-69065197D01*
X192583022Y-68887486D01*
X192747713Y-68490868D01*
X192748087Y-68061416D01*
X192584089Y-67664511D01*
X192280686Y-67360578D01*
X191884068Y-67195887D01*
X191681022Y-67195710D01*
X191681269Y-66913137D01*
X191551341Y-66598687D01*
X191516005Y-61722208D01*
X191523226Y-61036200D01*
X191814450Y-61036200D01*
X191973200Y-60877450D01*
X191973200Y-59258200D01*
X191953200Y-59258200D01*
X191953200Y-59004200D01*
X191973200Y-59004200D01*
X191973200Y-57384950D01*
X191814450Y-57226200D01*
X191563331Y-57226200D01*
X191599333Y-53805978D01*
X191973200Y-53880345D01*
X192546689Y-53766271D01*
X193032870Y-53441415D01*
X193243200Y-53126634D01*
X193453530Y-53441415D01*
X193939711Y-53766271D01*
X194513200Y-53880345D01*
X195086689Y-53766271D01*
X195572870Y-53441415D01*
X195783200Y-53126634D01*
X195993530Y-53441415D01*
X196479711Y-53766271D01*
X197053200Y-53880345D01*
X197626689Y-53766271D01*
X198112870Y-53441415D01*
X198323200Y-53126634D01*
X198533530Y-53441415D01*
X199019711Y-53766271D01*
X199593200Y-53880345D01*
X200166689Y-53766271D01*
X200652870Y-53441415D01*
X200859660Y-53131930D01*
X201231164Y-53547732D01*
X201758409Y-53801709D01*
X201774174Y-53804358D01*
X202006200Y-53683217D01*
X202006200Y-52324000D01*
X201986200Y-52324000D01*
X201986200Y-52070000D01*
X202006200Y-52070000D01*
X202006200Y-50710783D01*
X201774174Y-50589642D01*
X201758409Y-50592291D01*
X201231164Y-50846268D01*
X200859660Y-51262069D01*
X200652870Y-50952585D01*
X200166689Y-50627729D01*
X199593200Y-50513655D01*
X199019711Y-50627729D01*
X198533530Y-50952585D01*
X198323200Y-51267365D01*
X198112870Y-50952585D01*
X197626689Y-50627729D01*
X197053200Y-50513655D01*
X196479711Y-50627729D01*
X195993530Y-50952585D01*
X195783200Y-51267365D01*
X195572870Y-50952585D01*
X195086689Y-50627729D01*
X194513200Y-50513655D01*
X193939711Y-50627729D01*
X193453530Y-50952585D01*
X193243200Y-51267365D01*
X193032870Y-50952585D01*
X192546689Y-50627729D01*
X191973200Y-50513655D01*
X191633277Y-50581269D01*
X191636396Y-50285000D01*
X224315000Y-50285000D01*
X224315000Y-99715000D01*
M02*
