G04 #@! TF.FileFunction,Soldermask,Top*
%FSLAX46Y46*%
G04 Gerber Fmt 4.6, Leading zero omitted, Abs format (unit mm)*
G04 Created by KiCad (PCBNEW (2015-01-16 BZR 5376)-product) date 3/6/2015 8:50:02 PM*
%MOMM*%
G01*
G04 APERTURE LIST*
%ADD10C,0.100000*%
%ADD11O,3.500120X1.699260*%
%ADD12R,1.250000X1.000000*%
%ADD13C,2.300000*%
%ADD14R,2.300000X2.300000*%
%ADD15R,0.700000X1.300000*%
%ADD16R,1.300000X0.700000*%
%ADD17C,1.524000*%
%ADD18R,0.508000X1.143000*%
%ADD19C,1.501140*%
%ADD20R,1.727200X1.727200*%
%ADD21O,1.727200X1.727200*%
%ADD22C,4.064000*%
%ADD23R,1.143000X0.508000*%
%ADD24R,2.499360X2.301240*%
%ADD25R,3.500120X3.500120*%
%ADD26C,1.724000*%
%ADD27R,1.998980X1.998980*%
%ADD28C,1.998980*%
%ADD29R,0.550000X1.600000*%
%ADD30R,1.600000X0.550000*%
%ADD31C,3.300000*%
%ADD32R,1.727200X2.032000*%
%ADD33O,1.727200X2.032000*%
%ADD34C,1.778000*%
%ADD35R,2.032000X2.032000*%
%ADD36O,2.032000X2.032000*%
G04 APERTURE END LIST*
D10*
D11*
X202819000Y-74930000D03*
X202819000Y-77470000D03*
X202819000Y-72390000D03*
D12*
X195021200Y-80280000D03*
X195021200Y-82280000D03*
X190500000Y-78349600D03*
X190500000Y-80349600D03*
D13*
X221488000Y-69342000D03*
D14*
X221488000Y-74422000D03*
D15*
X186146400Y-81229200D03*
X188046400Y-81229200D03*
X202880000Y-81737200D03*
X200980000Y-81737200D03*
D16*
X198526400Y-74081600D03*
X198526400Y-75981600D03*
X222605600Y-86578400D03*
X222605600Y-88478400D03*
X222605600Y-90845600D03*
X222605600Y-92745600D03*
X214884000Y-96332000D03*
X214884000Y-98232000D03*
D15*
X212481200Y-98044000D03*
X210581200Y-98044000D03*
D17*
X174868400Y-57481400D03*
X174868400Y-63981400D03*
X170368400Y-63981400D03*
X170368400Y-57481400D03*
D18*
X192506600Y-71907400D03*
X193776600Y-71907400D03*
X195046600Y-71907400D03*
X196316600Y-71907400D03*
X196316600Y-78257400D03*
X195046600Y-78257400D03*
X193776600Y-78257400D03*
X192506600Y-78257400D03*
D19*
X184000140Y-62611000D03*
X179118260Y-62611000D03*
D20*
X170637200Y-73660000D03*
D21*
X173177200Y-73660000D03*
X170637200Y-76200000D03*
X173177200Y-76200000D03*
X170637200Y-78740000D03*
X173177200Y-78740000D03*
D22*
X199000000Y-62300000D03*
X199000000Y-87700000D03*
D23*
X213487000Y-85598000D03*
X213487000Y-86868000D03*
X213487000Y-88138000D03*
X213487000Y-89408000D03*
X213487000Y-90678000D03*
X213487000Y-91948000D03*
X213487000Y-93218000D03*
X219837000Y-93218000D03*
X219837000Y-91948000D03*
X219837000Y-89408000D03*
X219837000Y-88138000D03*
X219837000Y-86868000D03*
X219837000Y-85598000D03*
X219837000Y-90678000D03*
D24*
X214543640Y-76149200D03*
X210245960Y-76149200D03*
D25*
X214932260Y-61493400D03*
X220931740Y-61493400D03*
X217932000Y-56794400D03*
D20*
X177571400Y-54660800D03*
D21*
X177571400Y-52120800D03*
X180111400Y-54660800D03*
X180111400Y-52120800D03*
X182651400Y-54660800D03*
X182651400Y-52120800D03*
D26*
X172150400Y-98178000D03*
X174650400Y-98178000D03*
X177150400Y-98178000D03*
X172150400Y-83678000D03*
X177150400Y-83678000D03*
D27*
X211023200Y-70078600D03*
D28*
X213563200Y-70078600D03*
D29*
X186899200Y-68292400D03*
X186099200Y-68292400D03*
X185299200Y-68292400D03*
X184499200Y-68292400D03*
X183699200Y-68292400D03*
X182899200Y-68292400D03*
X182099200Y-68292400D03*
X181299200Y-68292400D03*
D30*
X179849200Y-69742400D03*
X179849200Y-70542400D03*
X179849200Y-71342400D03*
X179849200Y-72142400D03*
X179849200Y-72942400D03*
X179849200Y-73742400D03*
X179849200Y-74542400D03*
X179849200Y-75342400D03*
D29*
X181299200Y-76792400D03*
X182099200Y-76792400D03*
X182899200Y-76792400D03*
X183699200Y-76792400D03*
X184499200Y-76792400D03*
X185299200Y-76792400D03*
X186099200Y-76792400D03*
X186899200Y-76792400D03*
D30*
X188349200Y-75342400D03*
X188349200Y-74542400D03*
X188349200Y-73742400D03*
X188349200Y-72942400D03*
X188349200Y-72142400D03*
X188349200Y-71342400D03*
X188349200Y-70542400D03*
X188349200Y-69742400D03*
D20*
X170561000Y-69545200D03*
D21*
X170561000Y-67005200D03*
X173101000Y-69545200D03*
X173101000Y-67005200D03*
D31*
X221970600Y-97358200D03*
X183845200Y-97332800D03*
X171094400Y-52654200D03*
X221919800Y-52654200D03*
D32*
X204419200Y-98450400D03*
D33*
X201879200Y-98450400D03*
X199339200Y-98450400D03*
X196799200Y-98450400D03*
X194259200Y-98450400D03*
X191719200Y-98450400D03*
X189179200Y-98450400D03*
D15*
X195163400Y-69164200D03*
X197063400Y-69164200D03*
D34*
X203631800Y-68046600D03*
X201345800Y-68046600D03*
D35*
X214909400Y-52197000D03*
D36*
X217449400Y-52197000D03*
D35*
X219583000Y-80060800D03*
D36*
X222123000Y-80060800D03*
D32*
X186893200Y-52197000D03*
D33*
X189433200Y-52197000D03*
X191973200Y-52197000D03*
X194513200Y-52197000D03*
X197053200Y-52197000D03*
X199593200Y-52197000D03*
X202133200Y-52197000D03*
M02*
