M48
;DRILL file {kicad (2015-01-16 BZR 5376)-product} date 3/6/2015 10:24:29 PM
;FORMAT={2:4/ absolute / inch / suppress leading zeros}
FMAT,2
INCH,TZ
T1C0.013
T2C0.025
T3C0.030
T4C0.032
T5C0.039
T6C0.039
T7C0.040
T8C0.051
T9C0.105
T10C0.130
%
G90
G05
M72
T1
X67040Y-37110
X67840Y-34290
X68260Y-37120
X68850Y-34260
X69480Y-37120
X69920Y-34200
X70270Y-27200
X70270Y-29650
X70600Y-31220
X70600Y-37120
X70610Y-27080
X70860Y-26830
X71000Y-26310
X71330Y-28750
X71330Y-31150
X71480Y-28220
X71550Y-27470
X72480Y-35960
X72500Y-33960
X72500Y-34960
X73460Y-35420
X73740Y-36460
X73750Y-30830
X73750Y-34120
X73820Y-33430
X73990Y-30270
X74080Y-33150
X74240Y-29980
X74250Y-32770
X74640Y-32620
X74660Y-29350
X74850Y-27458
X75080Y-26420
X79930Y-33370
X79930Y-33990
X80230Y-33080
X80230Y-34260
X80600Y-32790
X80600Y-33990
T2
X67030Y-35710
X67400Y-34130
X67570Y-23820
X70620Y-35710
X71900Y-29640
X72020Y-27480
X72320Y-26300
X72390Y-32390
X72590Y-29690
X72980Y-27500
X75460Y-26880
X75460Y-28310
X76186Y-32394
X77270Y-26560
X77650Y-30810
X82440Y-38600
X85000Y-35180
X85010Y-36600
X86020Y-35200
T3
X67074Y-22630
X67074Y-25190
X68846Y-22630
X68846Y-25190
T4
X70519Y-24650
X72441Y-24650
X79270Y-26790
X80170Y-26790
X83080Y-27590
X84080Y-27590
T5
X67776Y-32944
X67776Y-38653
X68760Y-38653
X69744Y-32944
X69744Y-38653
T6
X79850Y-28500
X79850Y-29500
X79850Y-30500
T7
X67150Y-26380
X67150Y-27380
X67180Y-29000
X67180Y-30000
X67180Y-31000
X68150Y-26380
X68150Y-27380
X68180Y-29000
X68180Y-30000
X68180Y-31000
X69910Y-20520
X69910Y-21520
X70910Y-20520
X70910Y-21520
X71910Y-20520
X71910Y-21520
X73580Y-20550
X74480Y-38760
X74580Y-20550
X75480Y-38760
X75580Y-20550
X76480Y-38760
X76580Y-20550
X77480Y-38760
X77580Y-20550
X78480Y-38760
X78580Y-20550
X79480Y-38760
X79580Y-20550
X80480Y-38760
X84610Y-20550
X85610Y-20550
X86450Y-31520
X87450Y-31520
T8
X87200Y-27300
X87200Y-29300
T9
X78346Y-24528
X78346Y-34528
T10
X67360Y-20730
X72380Y-38320
X87370Y-20730
X87390Y-38330
T6
X84619Y-24604G85X84619Y-23817
G05
X86193Y-22360G85X85407Y-22360
G05
X86981Y-24604G85X86981Y-23817
G05
T0
M30
