G04 #@! TF.FileFunction,Soldermask,Bot*
%FSLAX46Y46*%
G04 Gerber Fmt 4.6, Leading zero omitted, Abs format (unit mm)*
G04 Created by KiCad (PCBNEW (2015-01-16 BZR 5376)-product) date 3/6/2015 8:50:02 PM*
%MOMM*%
G01*
G04 APERTURE LIST*
%ADD10C,0.100000*%
%ADD11O,3.500120X1.699260*%
%ADD12R,1.000000X1.250000*%
%ADD13R,0.750000X0.800000*%
%ADD14R,1.250000X1.000000*%
%ADD15C,2.300000*%
%ADD16R,2.300000X2.300000*%
%ADD17R,0.700000X1.300000*%
%ADD18C,1.524000*%
%ADD19C,1.501140*%
%ADD20R,1.727200X1.727200*%
%ADD21O,1.727200X1.727200*%
%ADD22C,4.064000*%
%ADD23R,6.400000X5.600000*%
%ADD24R,6.400000X5.000000*%
%ADD25R,3.500120X3.500120*%
%ADD26R,1.300000X0.700000*%
%ADD27C,1.724000*%
%ADD28R,1.998980X1.998980*%
%ADD29C,1.998980*%
%ADD30R,1.143000X0.508000*%
%ADD31R,1.651000X3.048000*%
%ADD32R,6.096000X6.096000*%
%ADD33C,3.300000*%
%ADD34R,1.727200X2.032000*%
%ADD35O,1.727200X2.032000*%
%ADD36R,2.540000X2.540000*%
%ADD37C,1.778000*%
%ADD38R,2.032000X2.032000*%
%ADD39O,2.032000X2.032000*%
%ADD40R,1.000000X1.900000*%
G04 APERTURE END LIST*
D10*
D11*
X202819000Y-74930000D03*
X202819000Y-77470000D03*
X202819000Y-72390000D03*
D12*
X193462400Y-73964800D03*
X195462400Y-73964800D03*
X193462400Y-76098400D03*
X195462400Y-76098400D03*
D13*
X183972200Y-60465400D03*
X183972200Y-58965400D03*
X179120800Y-60465400D03*
X179120800Y-58965400D03*
D12*
X183353200Y-73812400D03*
X185353200Y-73812400D03*
X183353200Y-71577200D03*
X185353200Y-71577200D03*
D14*
X217932000Y-91608400D03*
X217932000Y-93608400D03*
X217982800Y-87258400D03*
X217982800Y-85258400D03*
X174752000Y-87918800D03*
X174752000Y-85918800D03*
D15*
X221488000Y-69342000D03*
D16*
X221488000Y-74422000D03*
D17*
X172938400Y-60477400D03*
X174838400Y-60477400D03*
D18*
X174868400Y-57481400D03*
X174868400Y-63981400D03*
X170368400Y-63981400D03*
X170368400Y-57481400D03*
D19*
X184000140Y-62611000D03*
X179118260Y-62611000D03*
D20*
X170637200Y-73660000D03*
D21*
X173177200Y-73660000D03*
X170637200Y-76200000D03*
X173177200Y-76200000D03*
X170637200Y-78740000D03*
X173177200Y-78740000D03*
D22*
X199000000Y-62300000D03*
X199000000Y-87700000D03*
D23*
X210058000Y-76948000D03*
D24*
X210058000Y-94248000D03*
D14*
X173380400Y-93386400D03*
X173380400Y-95386400D03*
X185267600Y-81467200D03*
X185267600Y-79467200D03*
D25*
X214932260Y-61493400D03*
X220931740Y-61493400D03*
X217932000Y-56794400D03*
D20*
X177571400Y-54660800D03*
D21*
X177571400Y-52120800D03*
X180111400Y-54660800D03*
X180111400Y-52120800D03*
X182651400Y-54660800D03*
X182651400Y-52120800D03*
D26*
X177596800Y-87818000D03*
X177596800Y-85918000D03*
X171805600Y-85968800D03*
X171805600Y-87868800D03*
X179374800Y-93538000D03*
X179374800Y-95438000D03*
X179374800Y-89728000D03*
X179374800Y-91628000D03*
X170281600Y-95438000D03*
X170281600Y-93538000D03*
X170332400Y-89677200D03*
X170332400Y-91577200D03*
D27*
X172150400Y-98178000D03*
X174650400Y-98178000D03*
X177150400Y-98178000D03*
X172150400Y-83678000D03*
X177150400Y-83678000D03*
D12*
X210753200Y-65989200D03*
X208753200Y-65989200D03*
D14*
X176479200Y-93437200D03*
X176479200Y-95437200D03*
D28*
X211023200Y-70078600D03*
D29*
X213563200Y-70078600D03*
D30*
X191617600Y-84937600D03*
X191617600Y-86207600D03*
X191617600Y-87477600D03*
X191617600Y-88747600D03*
X191617600Y-90017600D03*
X191617600Y-91287600D03*
X191617600Y-92557600D03*
X185267600Y-92557600D03*
X185267600Y-91287600D03*
X185267600Y-88747600D03*
X185267600Y-87477600D03*
X185267600Y-86207600D03*
X185267600Y-84937600D03*
X185267600Y-90017600D03*
D31*
X210718400Y-61671200D03*
D32*
X208432400Y-55321200D03*
D31*
X206146400Y-61671200D03*
D20*
X170561000Y-69545200D03*
D21*
X170561000Y-67005200D03*
X173101000Y-69545200D03*
X173101000Y-67005200D03*
D33*
X221970600Y-97358200D03*
X183845200Y-97332800D03*
X171094400Y-52654200D03*
X221919800Y-52654200D03*
D34*
X204419200Y-98450400D03*
D35*
X201879200Y-98450400D03*
X199339200Y-98450400D03*
X196799200Y-98450400D03*
X194259200Y-98450400D03*
X191719200Y-98450400D03*
X189179200Y-98450400D03*
D36*
X192100200Y-59131200D03*
X189560200Y-59131200D03*
D37*
X203631800Y-68046600D03*
X201345800Y-68046600D03*
D38*
X214909400Y-52197000D03*
D39*
X217449400Y-52197000D03*
D40*
X216053800Y-65913000D03*
X213053800Y-65913000D03*
D38*
X219583000Y-80060800D03*
D39*
X222123000Y-80060800D03*
D34*
X186893200Y-52197000D03*
D35*
X189433200Y-52197000D03*
X191973200Y-52197000D03*
X194513200Y-52197000D03*
X197053200Y-52197000D03*
X199593200Y-52197000D03*
X202133200Y-52197000D03*
M02*
